{
classes = (
{
automatic = 1;
code = "A Aacute Abreve Acircumflex Adieresis Agrave Amacron Aogonek Aring Atilde AE B C Cacute Ccaron Ccedilla Cdotaccent D Eth Dcaron Dcroat E Eacute Ecaron Ecircumflex Edieresis Edotaccent Egrave Emacron Eogonek F G Gbreve Gcommaaccent Gdotaccent H Hbar I IJ Iacute Icircumflex Idieresis Idotaccent Igrave Imacron Iogonek J K Kcommaaccent L Lacute Lcaron Lcommaaccent Ldot Lslash M N Nacute Ncaron Ncommaaccent Eng Ntilde O Oacute Ocircumflex Odieresis Ograve Ohungarumlaut Omacron Oslash Otilde OE P Thorn Q R Racute Rcaron Rcommaaccent S Sacute Scaron Scedilla Scommaaccent T Tbar Tcaron Tcedilla Tcommaaccent U Uacute Ucircumflex Udieresis Ugrave Uhungarumlaut Umacron Uogonek Uring V W Wacute Wcircumflex Wdieresis Wgrave X Y Yacute Ycircumflex Ydieresis Ygrave Z Zacute Zcaron Zdotaccent A.ss01 E.ss01 M.ss01 N.ss01 Q.ss01 R.ss01 U.ss01 W.ss01";
name = Uppercase;
}
);
copyright = "Copyright \U00A9 2013 by Andrew Paglinawan. All rights reserved.";
customParameters = (
{
name = description;
value = "Copyright \U00A9 2013 by Andrew Paglinawan. All rights reserved.";
},
{
name = vendorID;
value = AP;
},
{
name = licenseURL;
value = "http://scripts.sil.org/OFL_web";
}
);
date = "2013-10-26 16:10:21 +0000";
designer = "Andrew Paglinawan";
designerURL = www.andrewpaglinawan.com;
familyName = "Quicksand Pro";
featurePrefixes = (
{
automatic = 1;
code = "languagesystem DFLT dflt;\012languagesystem grek dflt;\012languagesystem latn dflt;\012languagesystem latn CAT;\012languagesystem latn ROM;\012languagesystem latn MOL;\012languagesystem latn TRK;\012";
name = Languagesystems;
}
);
features = (
{
automatic = 1;
code = "feature locl;\012feature sups;\012feature frac;\012feature ordn;\012feature case;\012feature salt;\012feature ss01;\012";
name = aalt;
},
{
automatic = 1;

glyphs = (
{
glyphname = A;
lastChange = "2013-12-18 08:31:27 +0400";
layers = (
{
anchors = (
{
name = ogonek;
position = "{453, 10}";
},
{
name = top;
position = "{367, 700}";
}
);
layerId = "6A4EEAE7-E2C6-4FA4-83F5-ABDB5FD8E17B";
name = Light;
paths = (
{
closed = 1;
nodes = (
"383 689 LINE SMOOTH",
"382 698 OFFCURVE",
"375 703 OFFCURVE",
"366 702 CURVE",
"358 703 OFFCURVE",
"349 698 OFFCURVE",
"344 689 CURVE SMOOTH",
"-46 27 LINE SMOOTH",
"-52 16 OFFCURVE",
"-50 5 OFFCURVE",
"-39 1 CURVE SMOOTH",
"-29 -3 OFFCURVE",
"-17 2 OFFCURVE",
"-11 13 CURVE SMOOTH",
"86 177 LINE",
"423 177 LINE",
"450 13 LINE SMOOTH",
"452 2 OFFCURVE",
"462 -3 OFFCURVE",
"474 1 CURVE SMOOTH",
"485 5 OFFCURVE",
"493 16 OFFCURVE",
"491 27 CURVE SMOOTH"
);
},
{
closed = 1;
nodes = (
"110 217 LINE",
"349 626 LINE",
"417 217 LINE"
);
}
);
width = 556.307;
}
);
leftKerningGroup = A;
rightKerningGroup = dollar;
unicode = 0041;
},
{
glyphname = AE;
lastChange = "2013-12-18 08:31:27 +0400";
layers = (
{
layerId = "6A4EEAE7-E2C6-4FA4-83F5-ABDB5FD8E17B";
name = Light;
paths = (
{
closed = 1;
nodes = (
"519 40 LINE SMOOTH",
"516 40 OFFCURVE",
"514 42 OFFCURVE",
"514 45 CURVE SMOOTH",
"514 286 LINE SMOOTH",
"514 289 OFFCURVE",
"516 291 OFFCURVE",
"519 291 CURVE SMOOTH",
"816 291 LINE SMOOTH",
"827 291 OFFCURVE",
"836 299 OFFCURVE",
"836 311 CURVE SMOOTH",
"836 322 OFFCURVE",
"827 331 OFFCURVE",
"816 331 CURVE SMOOTH",
"519 331 LINE SMOOTH",
"516 331 OFFCURVE",
"514 333 OFFCURVE",
"514 336 CURVE SMOOTH",
"514 655 LINE SMOOTH",
"514 658 OFFCURVE",
"516 660 OFFCURVE",
"519 660 CURVE SMOOTH",
"861 660 LINE SMOOTH",
"872 660 OFFCURVE",
"881 668 OFFCURVE",
"881 680 CURVE SMOOTH",
"881 691 OFFCURVE",
"872 700 OFFCURVE",
"861 700 CURVE SMOOTH",
"494 700 LINE",
"492 700 LINE",
"485 700 OFFCURVE",
"479 697 OFFCURVE",
"474 691 CURVE",
"15 37 LINE SMOOTH",
"9 28 OFFCURVE",
"11 16 OFFCURVE",
"20 9 CURVE SMOOTH",
"29 2 OFFCURVE",
"41 5 OFFCURVE",
"48 14 CURVE",
"162 177 LINE",
"474 177 LINE",
"474 20 LINE SMOOTH",
"474 9 OFFCURVE",
"483 0 OFFCURVE",
"494 0 CURVE SMOOTH",
"861 0 LINE SMOOTH",
"872 0 OFFCURVE",
"881 8 OFFCURVE",
"881 20 CURVE SMOOTH",
"881 31 OFFCURVE",
"872 40 OFFCURVE",
"861 40 CURVE SMOOTH"
);
},
{
closed = 1;
nodes = (
"191 217 LINE",
"474 621 LINE",
"474 217 LINE"
);
}
);
width = 931;
}
);
leftMetricsKey = A;
rightMetricsKey = E;
unicode = 00C6;
},
{
glyphname = B;
lastChange = "2013-12-18 08:31:27 +0400";
layers = (
{
layerId = "6A4EEAE7-E2C6-4FA4-83F5-ABDB5FD8E17B";
name = Light;
paths = (
{
closed = 1;
nodes = (
"431 408 OFFCURVE",
"470 459 OFFCURVE",
"483 520 CURVE SMOOTH",
"506 627 OFFCURVE",
"437 700 OFFCURVE",
"340 700 CURVE SMOOTH",
"196 700 LINE SMOOTH",
"185 700 OFFCURVE",
"174 691 OFFCURVE",
"172 680 CURVE SMOOTH",
"32 20 LINE SMOOTH",
"30 9 OFFCURVE",
"37 0 OFFCURVE",
"48 0 CURVE SMOOTH",
"239 0 LINE SMOOTH",
"352 0 OFFCURVE",
"462 67 OFFCURVE",
"488 189 CURVE SMOOTH",
"509 287 OFFCURVE",
"461 349 OFFCURVE",
"383 370 CURVE SMOOTH",
"379 371 OFFCURVE",
"379 374 OFFCURVE",
"384 376 CURVE SMOOTH"
);
},
{
closed = 1;
nodes = (
"207 655 LINE SMOOTH",
"207 658 OFFCURVE",
"210 660 OFFCURVE",
"213 660 CURVE SMOOTH",
"332 660 LINE SMOOTH",
"411 660 OFFCURVE",
"462 608 OFFCURVE",
"443 520 CURVE SMOOTH",
"424 431 OFFCURVE",
"351 379 OFFCURVE",
"272 379 CURVE SMOOTH",
"153 379 LINE SMOOTH",
"150 379 OFFCURVE",
"149 381 OFFCURVE",
"149 384 CURVE SMOOTH"
);
},
{
closed = 1;
nodes = (
"81 40 LINE SMOOTH",
"78 40 OFFCURVE",
"77 42 OFFCURVE",
"77 45 CURVE SMOOTH",
"138 333 LINE SMOOTH",
"139 336 OFFCURVE",
"141 338 OFFCURVE",
"144 338 CURVE SMOOTH",
"310 338 LINE SMOOTH",
"404 338 OFFCURVE",
"470 293 OFFCURVE",
"448 189 CURVE SMOOTH",
"426 85 OFFCURVE",
"341 40 OFFCURVE",
"247 40 CURVE SMOOTH"
);
}
);
width = 529.941;
}
);
leftKerningGroup = B;
rightKerningGroup = B;
unicode = 0042;
},
{
glyphname = C;
lastChange = "2013-12-18 08:31:27 +0400";
layers = (
{
anchors = (
{
name = bottom;
position = "{315, 0}";
},
{
name = top;
position = "{389, 700}";
}
);
layerId = "6A4EEAE7-E2C6-4FA4-83F5-ABDB5FD8E17B";
name = Light;
paths = (
{
closed = 1;
nodes = (
"636 674 OFFCURVE",
"560 700 OFFCURVE",
"479 700 CURVE SMOOTH",
"273 700 OFFCURVE",
"85 551 OFFCURVE",
"63 350 CURVE SMOOTH",
"41 149 OFFCURVE",
"199 0 OFFCURVE",
"405 0 CURVE SMOOTH",
"486 0 OFFCURVE",
"566 25 OFFCURVE",
"632 68 CURVE SMOOTH",
"642 75 OFFCURVE",
"645 87 OFFCURVE",
"639 96 CURVE SMOOTH",
"633 105 OFFCURVE",
"621 107 OFFCURVE",
"611 100 CURVE SMOOTH",
"551 62 OFFCURVE",
"484 40 OFFCURVE",
"409 40 CURVE SMOOTH",
"221 40 OFFCURVE",
"83 167 OFFCURVE",
"103 350 CURVE SMOOTH",
"123 533 OFFCURVE",
"287 660 OFFCURVE",
"475 660 CURVE SMOOTH",
"549 660 OFFCURVE",
"614 637 OFFCURVE",
"666 599 CURVE SMOOTH",
"674 593 OFFCURVE",
"685 594 OFFCURVE",
"693 603 CURVE SMOOTH",
"701 613 OFFCURVE",
"700 625 OFFCURVE",
"691 632 CURVE SMOOTH"
);
}
);
width = 694.425;
}
);
leftKerningGroup = C;
rightKerningGroup = C;
unicode = 0043;
},
{
glyphname = D;
lastChange = "2013-12-18 08:31:27 +0400";
layers = (
{
anchors = (
{
name = center;
position = "{348, 350}";
},
{
name = top;
position = "{422, 700}";
}
);
layerId = "6A4EEAE7-E2C6-4FA4-83F5-ABDB5FD8E17B";
name = Light;
paths = (
{
closed = 1;
nodes = (
"196 700 LINE SMOOTH",
"185 700 OFFCURVE",
"174 691 OFFCURVE",
"172 680 CURVE SMOOTH",
"32 20 LINE SMOOTH",
"30 9 OFFCURVE",
"37 0 OFFCURVE",
"48 0 CURVE SMOOTH",
"268 0 LINE SMOOTH",
"469 0 OFFCURVE",
"591 158 OFFCURVE",
"632 350 CURVE SMOOTH",
"671 532 OFFCURVE",
"617 700 OFFCURVE",
"416 700 CURVE SMOOTH"
);
},
{
closed = 1;
nodes = (
"81 40 LINE SMOOTH",
"78 40 OFFCURVE",
"77 42 OFFCURVE",
"77 45 CURVE SMOOTH",
"207 655 LINE SMOOTH",
"207 658 OFFCURVE",
"210 660 OFFCURVE",
"213 660 CURVE SMOOTH",
"398 660 LINE SMOOTH",
"581 660 OFFCURVE",
"627 513 OFFCURVE",
"592 350 CURVE SMOOTH",
"555 177 OFFCURVE",
"449 40 OFFCURVE",
"266 40 CURVE SMOOTH"
);
}
);
width = 685.809;
}
);
leftKerningGroup = B;
rightKerningGroup = D;
unicode = 0044;
},
{
glyphname = Eth;
lastChange = "2013-12-18 08:31:27 +0400";
layers = (
{
components = (
{
name = D;
transform = "{1, 0, 0, 1, 24, 0}";
}
);
layerId = "6A4EEAE7-E2C6-4FA4-83F5-ABDB5FD8E17B";
name = Light;
paths = (
{
closed = 1;
nodes = (
"268 330 LINE SMOOTH",
"282 330 OFFCURVE",
"292 338 OFFCURVE",
"292 350 CURVE SMOOTH",
"292 364 OFFCURVE",
"282 370 OFFCURVE",
"268 370 CURVE SMOOTH",
"48 370 LINE SMOOTH",
"34 370 OFFCURVE",
"24 363 OFFCURVE",
"24 350 CURVE SMOOTH",
"24 336 OFFCURVE",
"33 330 OFFCURVE",
"48 330 CURVE"
);
}
);
width = 659;
}
);
unicode = 00D0;
},
{
glyphname = E;
lastChange = "2013-12-18 08:31:27 +0400";
layers = (
{
anchors = (
{
name = bottom;
position = "{212, 0}";
},
{
name = ogonek;
position = "{432, 10}";
},
{
name = top;
position = "{360, 700}";
}
);
layerId = "6A4EEAE7-E2C6-4FA4-83F5-ABDB5FD8E17B";
name = Light;
paths = (
{
closed = 1;
nodes = (
"555 660 LINE SMOOTH",
"566 660 OFFCURVE",
"577 668 OFFCURVE",
"579 680 CURVE SMOOTH",
"581 691 OFFCURVE",
"574 700 OFFCURVE",
"563 700 CURVE SMOOTH",
"196 700 LINE SMOOTH",
"185 700 OFFCURVE",
"174 691 OFFCURVE",
"172 680 CURVE SMOOTH",
"32 20 LINE SMOOTH",
"30 9 OFFCURVE",
"37 0 OFFCURVE",
"48 0 CURVE SMOOTH",
"415 0 LINE SMOOTH",
"426 0 OFFCURVE",
"436 8 OFFCURVE",
"439 20 CURVE SMOOTH",
"441 31 OFFCURVE",
"434 40 OFFCURVE",
"423 40 CURVE SMOOTH",
"81 40 LINE SMOOTH",
"78 40 OFFCURVE",
"77 42 OFFCURVE",
"77 45 CURVE SMOOTH",
"128 286 LINE SMOOTH",
"129 289 OFFCURVE",
"131 291 OFFCURVE",
"134 291 CURVE SMOOTH",
"431 291 LINE SMOOTH",
"442 291 OFFCURVE",
"453 299 OFFCURVE",
"456 311 CURVE SMOOTH",
"458 322 OFFCURVE",
"451 331 OFFCURVE",
"440 331 CURVE SMOOTH",
"143 331 LINE SMOOTH",
"140 331 OFFCURVE",
"138 333 OFFCURVE",
"139 336 CURVE SMOOTH",
"207 655 LINE SMOOTH",
"207 658 OFFCURVE",
"210 660 OFFCURVE",
"213 660 CURVE SMOOTH"
);
}
);
width = 558.34;
}
);
leftKerningGroup = B;
rightKerningGroup = E;
unicode = 0045;
},
{
glyphname = Emacron;
lastChange = "2013-12-18 08:31:27 +0400";
layers = (
{
components = (
{
name = E;
transform = "{1, 0, 0, 1, 0, 0}";
}
);
layerId = "6A4EEAE7-E2C6-4FA4-83F5-ABDB5FD8E17B";
name = Light;
paths = (
{
closed = 1;
nodes = (
"263 826 LINE SMOOTH",
"252 826 OFFCURVE",
"243 818 OFFCURVE",
"243 806 CURVE SMOOTH",
"243 794 OFFCURVE",
"252 786 OFFCURVE",
"263 786 CURVE SMOOTH",
"522 786 LINE SMOOTH",
"533 786 OFFCURVE",
"542 794 OFFCURVE",
"542 806 CURVE SMOOTH",
"542 818 OFFCURVE",
"533 826 OFFCURVE",
"522 826 CURVE SMOOTH"
);
}
);
width = 547;
}
);
unicode = 0112;
},
{
glyphname = F;
lastChange = "2013-12-18 08:31:27 +0400";
layers = (
{
layerId = "6A4EEAE7-E2C6-4FA4-83F5-ABDB5FD8E17B";
name = Light;
paths = (
{
closed = 1;
nodes = (
"555 660 LINE SMOOTH",
"566 660 OFFCURVE",
"577 668 OFFCURVE",
"579 680 CURVE SMOOTH",
"581 691 OFFCURVE",
"574 700 OFFCURVE",
"563 700 CURVE SMOOTH",
"196 700 LINE SMOOTH",
"185 700 OFFCURVE",
"174 691 OFFCURVE",
"172 680 CURVE SMOOTH",
"32 20 LINE SMOOTH",
"30 9 OFFCURVE",
"36 0 OFFCURVE",
"48 0 CURVE SMOOTH",
"60 0 OFFCURVE",
"70 9 OFFCURVE",
"72 20 CURVE SMOOTH",
"128 286 LINE SMOOTH",
"129 289 OFFCURVE",
"131 291 OFFCURVE",
"134 291 CURVE SMOOTH",
"431 291 LINE SMOOTH",
"442 291 OFFCURVE",
"453 299 OFFCURVE",
"456 311 CURVE SMOOTH",
"458 322 OFFCURVE",
"451 331 OFFCURVE",
"440 331 CURVE SMOOTH",
"143 331 LINE SMOOTH",
"140 331 OFFCURVE",
"138 333 OFFCURVE",
"139 336 CURVE SMOOTH",
"207 655 LINE SMOOTH",
"207 658 OFFCURVE",
"210 660 OFFCURVE",
"213 660 CURVE SMOOTH"
);
}
);
width = 536.34;
}
);
leftKerningGroup = B;
rightKerningGroup = F;
unicode = 0046;
},
{
glyphname = G;
lastChange = "2013-12-18 08:31:27 +0400";
layers = (
{
anchors = (
{
name = bottom;
position = "{318, 0}";
},
{
name = top;
position = "{392, 700}";
}
);
layerId = "6A4EEAE7-E2C6-4FA4-83F5-ABDB5FD8E17B";
name = Light;
paths = (
{
closed = 1;
nodes = (
"642 300 LINE SMOOTH",
"644 311 OFFCURVE",
"637 320 OFFCURVE",
"625 320 CURVE SMOOTH",
"625 320 OFFCURVE",
"624 320 OFFCURVE",
"624 320 CURVE",
"623 320 LINE",
"435 320 LINE SMOOTH",
"424 320 OFFCURVE",
"414 312 OFFCURVE",
"412 300 CURVE SMOOTH",
"411 289 OFFCURVE",
"419 280 OFFCURVE",
"430 280 CURVE SMOOTH",
"600 280 LINE",
"581 94 LINE",
"527 61 OFFCURVE",
"461 40 OFFCURVE",
"395 40 CURVE SMOOTH",
"219 40 OFFCURVE",
"91 180 OFFCURVE",
"109 350 CURVE SMOOTH",
"127 520 OFFCURVE",
"285 660 OFFCURVE",
"461 660 CURVE SMOOTH",
"530 660 OFFCURVE",
"591 639 OFFCURVE",
"639 603 CURVE",
"649 597 OFFCURVE",
"660 598 OFFCURVE",
"668 607 CURVE",
"676 617 OFFCURVE",
"675 629 OFFCURVE",
"666 636 CURVE SMOOTH",
"612 676 OFFCURVE",
"542 700 OFFCURVE",
"465 700 CURVE SMOOTH",
"267 700 OFFCURVE",
"90 543 OFFCURVE",
"69 350 CURVE SMOOTH",
"48 157 OFFCURVE",
"193 0 OFFCURVE",
"391 0 CURVE SMOOTH",
"468 0 OFFCURVE",
"545 26 OFFCURVE",
"609 66 CURVE SMOOTH",
"613 69 OFFCURVE",
"616 73 OFFCURVE",
"618 78 CURVE",
"619 80 OFFCURVE",
"619 82 OFFCURVE",
"619 84 CURVE SMOOTH"
);
}
);
width = 747.876;
}
);
leftKerningGroup = C;
rightKerningGroup = G;
unicode = 0047;
},
{
glyphname = H;
lastChange = "2013-12-18 08:31:27 +0400";
layers = (
{
anchors = (
{
name = center;
position = "{342, 350}";
},
{
name = top;
position = "{416, 700}";
}
);
layerId = "6A4EEAE7-E2C6-4FA4-83F5-ABDB5FD8E17B";
name = Light;
paths = (
{
closed = 1;
nodes = (
"623 700 OFFCURVE",
"613 691 OFFCURVE",
"611 680 CURVE SMOOTH",
"546 375 LINE SMOOTH",
"546 372 OFFCURVE",
"543 370 OFFCURVE",
"540 370 CURVE SMOOTH",
"151 370 LINE SMOOTH",
"148 370 OFFCURVE",
"147 372 OFFCURVE",
"147 375 CURVE SMOOTH",
"212 680 LINE SMOOTH",
"214 691 OFFCURVE",
"208 700 OFFCURVE",
"196 700 CURVE SMOOTH",
"185 700 OFFCURVE",
"174 691 OFFCURVE",
"172 680 CURVE SMOOTH",
"32 20 LINE SMOOTH",
"30 9 OFFCURVE",
"36 0 OFFCURVE",
"48 0 CURVE SMOOTH",
"59 0 OFFCURVE",
"70 9 OFFCURVE",
"72 20 CURVE SMOOTH",
"137 325 LINE SMOOTH",
"137 328 OFFCURVE",
"140 330 OFFCURVE",
"143 330 CURVE SMOOTH",
"532 330 LINE SMOOTH",
"535 330 OFFCURVE",
"536 328 OFFCURVE",
"536 325 CURVE SMOOTH",
"471 20 LINE SMOOTH",
"469 9 OFFCURVE",
"475 0 OFFCURVE",
"487 0 CURVE SMOOTH",
"498 0 OFFCURVE",
"509 9 OFFCURVE",
"511 20 CURVE SMOOTH",
"651 680 LINE SMOOTH",
"653 691 OFFCURVE",
"647 700 OFFCURVE",
"635 700 CURVE SMOOTH"
);
}
);
width = 663.379;
}
);
leftKerningGroup = B;
rightKerningGroup = H;
unicode = 0048;
},
{
glyphname = Hbar;
lastChange = "2013-12-18 08:31:27 +0400";
layers = (
{
anchors = (
{
name = center;
position = "{327, 350}";
},
{
name = top;
position = "{401, 700}";
}
);
layerId = "6A4EEAE7-E2C6-4FA4-83F5-ABDB5FD8E17B";
name = Light;
paths = (
{
closed = 1;
nodes = (
"638 529 LINE SMOOTH",
"635 529 OFFCURVE",
"633 531 OFFCURVE",
"634 534 CURVE SMOOTH",
"665 680 LINE",
"667 691 OFFCURVE",
"661 700 OFFCURVE",
"649 700 CURVE SMOOTH",
"637 700 OFFCURVE",
"627 691 OFFCURVE",
"625 680 CURVE SMOOTH",
"594 534 LINE SMOOTH",
"593 531 OFFCURVE",
"591 529 OFFCURVE",
"588 529 CURVE SMOOTH",
"199 529 LINE SMOOTH",
"196 529 OFFCURVE",
"194 531 OFFCURVE",
"195 534 CURVE SMOOTH",
"226 680 LINE SMOOTH",
"228 691 OFFCURVE",
"222 700 OFFCURVE",
"210 700 CURVE SMOOTH",
"199 700 OFFCURVE",
"188 691 OFFCURVE",
"186 680 CURVE SMOOTH",
"155 534 LINE SMOOTH",
"154 531 OFFCURVE",
"152 529 OFFCURVE",
"149 529 CURVE SMOOTH",
"58 529 LINE SMOOTH",
"47 529 OFFCURVE",
"36 521 OFFCURVE",
"33 509 CURVE SMOOTH",
"31 498 OFFCURVE",
"38 489 OFFCURVE",
"49 489 CURVE SMOOTH",
"140 489 LINE SMOOTH",
"144 489 OFFCURVE",
"145 487 OFFCURVE",
"144 484 CURVE SMOOTH",
"46 20 LINE SMOOTH",
"44 9 OFFCURVE",
"50 0 OFFCURVE",
"62 0 CURVE SMOOTH",
"73 0 OFFCURVE",
"84 9 OFFCURVE",
"86 20 CURVE SMOOTH",
"151 325 LINE",
"151 328 OFFCURVE",
"154 330 OFFCURVE",
"157 330 CURVE SMOOTH",
"546 330 LINE SMOOTH",
"549 330 OFFCURVE",
"550 328 OFFCURVE",
"550 325 CURVE",
"485 20 LINE SMOOTH",
"483 9 OFFCURVE",
"489 0 OFFCURVE",
"501 0 CURVE SMOOTH",
"512 0 OFFCURVE",
"523 9 OFFCURVE",
"525 20 CURVE",
"623 484 LINE SMOOTH",
"624 487 OFFCURVE",
"626 489 OFFCURVE",
"629 489 CURVE SMOOTH",
"720 489 LINE SMOOTH",
"731 489 OFFCURVE",
"742 497 OFFCURVE",
"744 509 CURVE SMOOTH",
"747 520 OFFCURVE",
"740 529 OFFCURVE",
"729 529 CURVE SMOOTH"
);
},
{
closed = 1;
nodes = (
"165 370 LINE SMOOTH",
"162 370 OFFCURVE",
"161 372 OFFCURVE",
"161 375 CURVE",
"184 484 LINE SMOOTH",
"185 487 OFFCURVE",
"187 489 OFFCURVE",
"190 489 CURVE SMOOTH",
"579 489 LINE SMOOTH",
"582 489 OFFCURVE",
"584 487 OFFCURVE",
"583 484 CURVE SMOOTH",
"560 375 LINE",
"560 372 OFFCURVE",
"557 370 OFFCURVE",
"554 370 CURVE SMOOTH"
);
}
);
width = 711;
}
);
unicode = 0126;
},
{
glyphname = I;
lastChange = "2013-12-18 08:31:27 +0400";
layers = (
{
anchors = (
{
name = ogonek;
position = "{141, 10}";
},
{
name = top;
position = "{195, 700}";
}
);
layerId = "6A4EEAE7-E2C6-4FA4-83F5-ABDB5FD8E17B";
name = Light;
paths = (
{
closed = 1;
nodes = (
"212 681 LINE SMOOTH",
"215 692 OFFCURVE",
"209 701 OFFCURVE",
"197 701 CURVE SMOOTH",
"186 701 OFFCURVE",
"175 692 OFFCURVE",
"172 681 CURVE SMOOTH",
"32 20 LINE SMOOTH",
"29 9 OFFCURVE",
"35 0 OFFCURVE",
"47 0 CURVE SMOOTH",
"58 0 OFFCURVE",
"69 9 OFFCURVE",
"72 20 CURVE SMOOTH"
);
}
);
width = 224.762;
}
);
leftKerningGroup = B;
rightKerningGroup = H;
unicode = 0049;
},
{
glyphname = Imacron;
lastChange = "2013-12-18 08:31:27 +0400";
layers = (
{
components = (
{
name = I;
transform = "{1, 0, 0, 1, 0, 0}";
}
);
layerId = "6A4EEAE7-E2C6-4FA4-83F5-ABDB5FD8E17B";
name = Light;
paths = (
{
closed = 1;
nodes = (
"80 826 LINE SMOOTH",
"69 826 OFFCURVE",
"60 818 OFFCURVE",
"60 806 CURVE SMOOTH",
"60 794 OFFCURVE",
"69 786 OFFCURVE",
"80 786 CURVE SMOOTH",
"339 786 LINE SMOOTH",
"350 786 OFFCURVE",
"359 794 OFFCURVE",
"359 806 CURVE SMOOTH",
"359 818 OFFCURVE",
"350 826 OFFCURVE",
"339 826 CURVE SMOOTH"
);
}
);
width = 225;
}
);
unicode = 012A;
},
{
glyphname = J;
lastChange = "2013-12-18 08:31:27 +0400";
layers = (
{
anchors = (
{
name = top;
position = "{348, 700}";
}
);
layerId = "6A4EEAE7-E2C6-4FA4-83F5-ABDB5FD8E17B";
name = Light;
paths = (
{
closed = 1;
nodes = (
"500 700 OFFCURVE",
"490 691 OFFCURVE",
"488 680 CURVE SMOOTH",
"392 229 LINE SMOOTH",
"370 125 OFFCURVE",
"266 40 OFFCURVE",
"163 40 CURVE SMOOTH",
"85 40 OFFCURVE",
"29 87 OFFCURVE",
"14 154 CURVE SMOOTH",
"11 164 OFFCURVE",
"4 169 OFFCURVE",
"-7 166 CURVE SMOOTH",
"-20 162 OFFCURVE",
"-29 150 OFFCURVE",
"-26 139 CURVE SMOOTH",
"-8 57 OFFCURVE",
"61 0 OFFCURVE",
"155 0 CURVE SMOOTH",
"281 0 OFFCURVE",
"405 103 OFFCURVE",
"432 229 CURVE SMOOTH",
"528 680 LINE SMOOTH",
"530 691 OFFCURVE",
"524 700 OFFCURVE",
"512 700 CURVE SMOOTH"
);
}
);
width = 533.379;
}
);
leftKerningGroup = J;
rightKerningGroup = J;
unicode = 004A;
},
{
glyphname = K;
lastChange = "2013-12-18 08:31:27 +0400";
layers = (
{
anchors = (
{
name = bottom;
position = "{278, 0}";
},
{
name = top;
position = "{427, 700}";
}
);
layerId = "6A4EEAE7-E2C6-4FA4-83F5-ABDB5FD8E17B";
name = Light;
paths = (
{
closed = 1;
nodes = (
"360 383 LINE SMOOTH",
"358 386 OFFCURVE",
"359 388 OFFCURVE",
"361 390 CURVE SMOOTH",
"691 662 LINE SMOOTH",
"701 670 OFFCURVE",
"703 682 OFFCURVE",
"697 690 CURVE SMOOTH",
"691 698 OFFCURVE",
"679 698 OFFCURVE",
"669 690 CURVE SMOOTH",
"126 242 LINE SMOOTH",
"122 239 OFFCURVE",
"119 240 OFFCURVE",
"120 245 CURVE SMOOTH",
"213 680 LINE SMOOTH",
"215 691 OFFCURVE",
"209 700 OFFCURVE",
"197 700 CURVE SMOOTH",
"185 700 OFFCURVE",
"175 691 OFFCURVE",
"173 680 CURVE SMOOTH",
"32 20 LINE SMOOTH",
"30 9 OFFCURVE",
"36 0 OFFCURVE",
"48 0 CURVE SMOOTH",
"60 0 OFFCURVE",
"70 9 OFFCURVE",
"72 20 CURVE SMOOTH",
"106 176 LINE SMOOTH",
"106 179 OFFCURVE",
"108 181 OFFCURVE",
"110 183 CURVE SMOOTH",
"319 355 LINE SMOOTH",
"321 357 OFFCURVE",
"324 357 OFFCURVE",
"325 354 CURVE SMOOTH",
"541 2 LINE SMOOTH",
"546 -7 OFFCURVE",
"556 -8 OFFCURVE",
"567 -1 CURVE",
"568 -1 LINE",
"578 7 OFFCURVE",
"581 19 OFFCURVE",
"576 28 CURVE SMOOTH"
);
}
);
width = 642.375;
}
);
leftKerningGroup = B;
rightKerningGroup = K;
unicode = 004B;
},
{
glyphname = L;
lastChange = "2013-12-18 08:31:27 +0400";
layers = (
{
anchors = (
{
name = bottom;
position = "{192, 0}";
},
{
name = top;
position = "{340, 700}";
}
);
layerId = "6A4EEAE7-E2C6-4FA4-83F5-ABDB5FD8E17B";
name = Light;
paths = (
{
closed = 1;
nodes = (
"81 40 LINE SMOOTH",
"78 40 OFFCURVE",
"77 42 OFFCURVE",
"77 45 CURVE SMOOTH",
"212 680 LINE SMOOTH",
"214 691 OFFCURVE",
"208 700 OFFCURVE",
"196 700 CURVE SMOOTH",
"185 700 OFFCURVE",
"174 691 OFFCURVE",
"172 680 CURVE SMOOTH",
"32 20 LINE SMOOTH",
"30 9 OFFCURVE",
"36 0 OFFCURVE",
"48 0 CURVE SMOOTH",
"415 0 LINE SMOOTH",
"426 0 OFFCURVE",
"436 8 OFFCURVE",
"439 20 CURVE SMOOTH",
"441 31 OFFCURVE",
"434 40 OFFCURVE",
"423 40 CURVE SMOOTH"
);
}
);
width = 495.34;
}
);
leftKerningGroup = B;
rightKerningGroup = L;
unicode = 004C;
},
{
glyphname = Lslash;
lastChange = "2013-12-18 08:31:27 +0400";
layers = (
{
components = (
{
name = L;
transform = "{1, 0, 0, 1, 132, 0}";
}
);
layerId = "6A4EEAE7-E2C6-4FA4-83F5-ABDB5FD8E17B";
name = Light;
paths = (
{
closed = 1;
nodes = (
"73 354 LINE SMOOTH",
"61 349 OFFCURVE",
"58 340 OFFCURVE",
"63 328 CURVE SMOOTH",
"68 316 OFFCURVE",
"77 313 OFFCURVE",
"89 318 CURVE SMOOTH",
"422 464 LINE SMOOTH",
"434 469 OFFCURVE",
"437 478 OFFCURVE",
"432 490 CURVE SMOOTH",
"427 502 OFFCURVE",
"418 505 OFFCURVE",
"406 500 CURVE SMOOTH"
);
}
);
width = 639;
}
);
unicode = 0141;
},
{
glyphname = M;
lastChange = "2013-12-18 08:31:27 +0400";
layers = (
{
layerId = "6A4EEAE7-E2C6-4FA4-83F5-ABDB5FD8E17B";
name = Light;
paths = (
{
closed = 1;
nodes = (
"821 701 OFFCURVE",
"813 698 OFFCURVE",
"806 691 CURVE SMOOTH",
"434 324 LINE SMOOTH",
"431 322 OFFCURVE",
"429 322 OFFCURVE",
"426 324 CURVE SMOOTH",
"211 691 LINE",
"211 692 LINE SMOOTH",
"210 694 OFFCURVE",
"209 696 OFFCURVE",
"206 697 CURVE SMOOTH",
"202 700 OFFCURVE",
"199 701 OFFCURVE",
"193 700 CURVE SMOOTH",
"183 698 OFFCURVE",
"174 690 OFFCURVE",
"172 680 CURVE SMOOTH",
"32 20 LINE SMOOTH",
"29 9 OFFCURVE",
"36 0 OFFCURVE",
"48 0 CURVE SMOOTH",
"59 0 OFFCURVE",
"69 9 OFFCURVE",
"72 20 CURVE SMOOTH",
"197 610 LINE SMOOTH",
"198 615 OFFCURVE",
"202 616 OFFCURVE",
"204 612 CURVE SMOOTH",
"403 275 LINE",
"406 269 OFFCURVE",
"412 266 OFFCURVE",
"419 267 CURVE",
"425 266 OFFCURVE",
"433 269 OFFCURVE",
"438 275 CURVE",
"781 612 LINE SMOOTH",
"785 616 OFFCURVE",
"787 615 OFFCURVE",
"786 610 CURVE SMOOTH",
"661 20 LINE SMOOTH",
"658 9 OFFCURVE",
"665 0 OFFCURVE",
"677 0 CURVE SMOOTH",
"688 0 OFFCURVE",
"698 9 OFFCURVE",
"701 20 CURVE SMOOTH",
"841 680 LINE SMOOTH",
"843 690 OFFCURVE",
"838 699 OFFCURVE",
"827 700 CURVE"
);
}
);
width = 853.431;
}
);
leftKerningGroup = B;
rightKerningGroup = H;
unicode = 004D;
},
{
glyphname = N;
lastChange = "2013-12-18 08:31:27 +0400";
layers = (
{
anchors = (
{
name = bottom;
position = "{301, 0}";
},
{
name = top;
position = "{449, 700}";
}
);
layerId = "6A4EEAE7-E2C6-4FA4-83F5-ABDB5FD8E17B";
name = Light;
paths = (
{
closed = 1;
nodes = (
"716 676 LINE",
"719 687 OFFCURVE",
"713 696 OFFCURVE",
"701 696 CURVE SMOOTH",
"690 696 OFFCURVE",
"679 687 OFFCURVE",
"676 676 CURVE SMOOTH",
"552 89 LINE SMOOTH",
"550 84 OFFCURVE",
"547 83 OFFCURVE",
"545 87 CURVE SMOOTH",
"211 691 LINE",
"211 692 LINE SMOOTH",
"210 694 OFFCURVE",
"209 696 OFFCURVE",
"206 697 CURVE SMOOTH",
"202 700 OFFCURVE",
"199 701 OFFCURVE",
"193 700 CURVE",
"183 698 OFFCURVE",
"174 690 OFFCURVE",
"172 680 CURVE SMOOTH",
"32 20 LINE SMOOTH",
"30 9 OFFCURVE",
"36 0 OFFCURVE",
"48 0 CURVE SMOOTH",
"59 0 OFFCURVE",
"70 9 OFFCURVE",
"72 20 CURVE SMOOTH",
"198 612 LINE SMOOTH",
"199 617 OFFCURVE",
"202 618 OFFCURVE",
"204 614 CURVE SMOOTH",
"537 8 LINE SMOOTH",
"542 -1 OFFCURVE",
"554 -3 OFFCURVE",
"564 3 CURVE SMOOTH",
"572 8 OFFCURVE",
"577 15 OFFCURVE",
"577 22 CURVE"
);
}
);
width = 728.765;
}
);
leftKerningGroup = B;
rightKerningGroup = H;
unicode = 004E;
},
{
glyphname = Eng;
lastChange = "2013-12-18 08:31:27 +0400";
layers = (
{
components = (
{
name = N;
transform = "{1, 0, 0, 1, 0, 0}";
}
);
layerId = "6A4EEAE7-E2C6-4FA4-83F5-ABDB5FD8E17B";
name = Light;
paths = (
{
closed = 1;
nodes = (
"601 -200 OFFCURVE",
"635 -123 OFFCURVE",
"635 -44 CURVE SMOOTH",
"635 -13 OFFCURVE",
"636 13 OFFCURVE",
"636 42 CURVE",
"596 42 LINE",
"596 13 OFFCURVE",
"595 -13 OFFCURVE",
"595 -44 CURVE SMOOTH",
"595 -111 OFFCURVE",
"574 -160 OFFCURVE",
"459 -160 CURVE SMOOTH",
"447 -160 OFFCURVE",
"438 -168 OFFCURVE",
"438 -180 CURVE SMOOTH",
"438 -192 OFFCURVE",
"447 -200 OFFCURVE",
"460 -200 CURVE SMOOTH"
);
}
);
width = 727;
}
);
unicode = 014A;
},
{
glyphname = O;
lastChange = "2013-12-18 08:31:27 +0400";
layers = (
{
anchors = (
{
name = top;
position = "{471, 700}";
}
);
layerId = "6A4EEAE7-E2C6-4FA4-83F5-ABDB5FD8E17B";
name = Light;
paths = (
{
closed = 1;
nodes = (
"706 169 OFFCURVE",
"561 30 OFFCURVE",
"402 30 CURVE",
"243 30 OFFCURVE",
"128 169 OFFCURVE",
"147 350 CURVE",
"166 531 OFFCURVE",
"311 670 OFFCURVE",
"470 670 CURVE",
"629 670 OFFCURVE",
"744 531 OFFCURVE",
"725 350 CURVE"
);
},
{
closed = 1;
nodes = (
"787 553 OFFCURVE",
"657 710 OFFCURVE",
"475 710 CURVE",
"293 710 OFFCURVE",
"129 553 OFFCURVE",
"107 350 CURVE",
"85 147 OFFCURVE",
"215 -10 OFFCURVE",
"397 -10 CURVE",
"579 -10 OFFCURVE",
"743 147 OFFCURVE",
"765 350 CURVE"
);
}
);
width = 776.799;
}
);
leftKerningGroup = C;
rightKerningGroup = D;
unicode = 004F;
},
{
glyphname = Omacron;
lastChange = "2013-12-18 08:31:27 +0400";
layers = (
{
components = (
{
name = O;
transform = "{1, 0, 0, 1, 0, 0}";
}
);
layerId = "6A4EEAE7-E2C6-4FA4-83F5-ABDB5FD8E17B";
name = Light;
paths = (
{
closed = 1;
nodes = (
"376 826 LINE SMOOTH",
"365 826 OFFCURVE",
"356 818 OFFCURVE",
"356 806 CURVE SMOOTH",
"356 794 OFFCURVE",
"365 786 OFFCURVE",
"376 786 CURVE SMOOTH",
"635 786 LINE SMOOTH",
"646 786 OFFCURVE",
"655 794 OFFCURVE",
"655 806 CURVE SMOOTH",
"655 818 OFFCURVE",
"646 826 OFFCURVE",
"635 826 CURVE SMOOTH"
);
}
);
width = 777;
}
);
unicode = 014C;
},
{
glyphname = Oslash;
lastChange = "2013-12-18 08:31:27 +0400";
layers = (
{
layerId = "6A4EEAE7-E2C6-4FA4-83F5-ABDB5FD8E17B";
name = Light;
paths = (
{
closed = 1;
nodes = (
"684 707 LINE SMOOTH",
"690 714 OFFCURVE",
"685 720 OFFCURVE",
"673 720 CURVE SMOOTH",
"655 720 LINE SMOOTH",
"646 720 OFFCURVE",
"644 718 OFFCURVE",
"634 706 CURVE SMOOTH",
"568 628 LINE SMOOTH",
"566 625 OFFCURVE",
"564 625 OFFCURVE",
"561 627 CURVE SMOOTH",
"506 673 OFFCURVE",
"436 700 OFFCURVE",
"361 700 CURVE SMOOTH",
"179 700 OFFCURVE",
"32 543 OFFCURVE",
"32 350 CURVE SMOOTH",
"32 255 OFFCURVE",
"68 168 OFFCURVE",
"126 104 CURVE SMOOTH",
"128 102 OFFCURVE",
"128 100 OFFCURVE",
"126 97 CURVE SMOOTH",
"40 -6 LINE",
"31 -18 OFFCURVE",
"35 -20 OFFCURVE",
"50 -20 CURVE SMOOTH",
"68 -20 LINE SMOOTH",
"78 -20 OFFCURVE",
"78 -20 OFFCURVE",
"90 -6 CURVE SMOOTH",
"154 71 LINE SMOOTH",
"156 74 OFFCURVE",
"158 74 OFFCURVE",
"161 72 CURVE SMOOTH",
"216 27 OFFCURVE",
"286 0 OFFCURVE",
"361 0 CURVE SMOOTH",
"543 0 OFFCURVE",
"690 157 OFFCURVE",
"690 350 CURVE SMOOTH",
"690 445 OFFCURVE",
"654 532 OFFCURVE",
"596 595 CURVE SMOOTH",
"594 597 OFFCURVE",
"594 599 OFFCURVE",
"596 602 CURVE SMOOTH"
);
},
{
closed = 1;
nodes = (
"72 521 OFFCURVE",
"202 660 OFFCURVE",
"361 660 CURVE SMOOTH",
"426 660 OFFCURVE",
"487 636 OFFCURVE",
"536 596 CURVE SMOOTH",
"539 594 OFFCURVE",
"539 592 OFFCURVE",
"537 589 CURVE SMOOTH",
"158 136 LINE SMOOTH",
"156 134 OFFCURVE",
"154 133 OFFCURVE",
"151 136 CURVE SMOOTH",
"103 192 OFFCURVE",
"72 267 OFFCURVE",
"72 350 CURVE SMOOTH"
);
},
{
closed = 1;
nodes = (
"296 40 OFFCURVE",
"235 64 OFFCURVE",
"187 103 CURVE SMOOTH",
"184 105 OFFCURVE",
"184 107 OFFCURVE",
"186 110 CURVE SMOOTH",
"564 563 LINE SMOOTH",
"566 565 OFFCURVE",
"568 566 OFFCURVE",
"571 563 CURVE SMOOTH",
"619 507 OFFCURVE",
"650 432 OFFCURVE",
"650 350 CURVE SMOOTH",
"650 179 OFFCURVE",
"520 40 OFFCURVE",
"361 40 CURVE SMOOTH"
);
}
);
width = 721;
}
);
unicode = 00D8;
},
{
glyphname = OE;
lastChange = "2013-12-18 08:31:27 +0400";
layers = (
{
anchors = (
{
name = bottom;
position = "{633, 0}";
},
{
name = center;
position = "{311, 350}";
},
{
name = ogonek;
position = "{853, 10}";
},
{
name = top;
position = "{386, 700}";
}
);
layerId = "6A4EEAE7-E2C6-4FA4-83F5-ABDB5FD8E17B";
name = Light;
paths = (
{
closed = 1;
nodes = (
"501 40 LINE SMOOTH",
"498 40 OFFCURVE",
"498 42 OFFCURVE",
"497 45 CURVE",
"548 286 LINE",
"550 289 OFFCURVE",
"551 291 OFFCURVE",
"554 291 CURVE SMOOTH",
"851 291 LINE SMOOTH",
"862 291 OFFCURVE",
"873 299 OFFCURVE",
"877 311 CURVE",
"879 322 OFFCURVE",
"872 331 OFFCURVE",
"861 331 CURVE SMOOTH",
"564 331 LINE SMOOTH",
"561 331 OFFCURVE",
"558 333 OFFCURVE",
"560 336 CURVE",
"628 655 LINE",
"627 658 OFFCURVE",
"631 660 OFFCURVE",
"634 660 CURVE SMOOTH",
"976 660 LINE SMOOTH",
"987 660 OFFCURVE",
"998 668 OFFCURVE",
"999 680 CURVE",
"1001 691 OFFCURVE",
"994 700 OFFCURVE",
"983 700 CURVE SMOOTH",
"616 700 LINE SMOOTH",
"616 700 OFFCURVE",
"615 700 OFFCURVE",
"614 700 CURVE",
"612 700 LINE",
"392 700 LINE SMOOTH",
"191 700 OFFCURVE",
"66 532 OFFCURVE",
"27 350 CURVE SMOOTH",
"-13 158 OFFCURVE",
"42 0 OFFCURVE",
"243 0 CURVE SMOOTH",
"463 0 LINE SMOOTH",
"464 0 OFFCURVE",
"465 0 OFFCURVE",
"466 0 CURVE",
"469 0 LINE",
"836 0 LINE SMOOTH",
"847 0 OFFCURVE",
"856 8 OFFCURVE",
"860 20 CURVE",
"861 31 OFFCURVE",
"854 40 OFFCURVE",
"843 40 CURVE SMOOTH"
);
},
{
closed = 1;
nodes = (
"262 40 LINE SMOOTH",
"79 40 OFFCURVE",
"31 177 OFFCURVE",
"66.9998 350 CURVE",
"102 513 OFFCURVE",
"210 660 OFFCURVE",
"393 660 CURVE SMOOTH",
"578 660 LINE SMOOTH",
"581 660 OFFCURVE",
"583 658 OFFCURVE",
"582 655 CURVE",
"453 45 LINE",
"452 42 OFFCURVE",
"450 40 OFFCURVE",
"447 40 CURVE SMOOTH"
);
}
);
width = 965;
}
);
leftMetricsKey = O;
unicode = 0152;
},
{
glyphname = P;
lastChange = "2013-12-18 08:31:27 +0400";
layers = (
{
layerId = "6A4EEAE7-E2C6-4FA4-83F5-ABDB5FD8E17B";
name = Light;
paths = (
{
closed = 1;
nodes = (
"196 700 LINE SMOOTH",
"185 700 OFFCURVE",
"174 691 OFFCURVE",
"172 680 CURVE SMOOTH",
"32 20 LINE SMOOTH",
"30 9 OFFCURVE",
"36 0 OFFCURVE",
"48 0 CURVE SMOOTH",
"59 0 OFFCURVE",
"70 9 OFFCURVE",
"72 20 CURVE SMOOTH",
"128 286 LINE SMOOTH",
"129 289 OFFCURVE",
"131 291 OFFCURVE",
"134 291 CURVE SMOOTH",
"339 291 LINE SMOOTH",
"443 291 OFFCURVE",
"550 390 OFFCURVE",
"573 499 CURVE SMOOTH",
"596 608 OFFCURVE",
"530 700 OFFCURVE",
"426 700 CURVE SMOOTH"
);
},
{
closed = 1;
nodes = (
"143 331 LINE SMOOTH",
"140 331 OFFCURVE",
"138 333 OFFCURVE",
"139 336 CURVE SMOOTH",
"207 655 LINE SMOOTH",
"207 658 OFFCURVE",
"210 660 OFFCURVE",
"213 660 CURVE SMOOTH",
"418 660 LINE SMOOTH",
"500 660 OFFCURVE",
"551 586 OFFCURVE",
"533 499 CURVE SMOOTH",
"514 412 OFFCURVE",
"430 331 OFFCURVE",
"348 331 CURVE SMOOTH"
);
}
);
width = 570.574;
}
);
leftKerningGroup = B;
rightKerningGroup = P;
unicode = 0050;
},
{
glyphname = Thorn;
lastChange = "2013-12-18 08:31:27 +0400";
layers = (
{
layerId = "6A4EEAE7-E2C6-4FA4-83F5-ABDB5FD8E17B";
name = Light;
paths = (
{
closed = 1;
nodes = (
"507 587 OFFCURVE",
"373 588 OFFCURVE",
"175 588 CURVE SMOOTH",
"171 588 OFFCURVE",
"170 590 OFFCURVE",
"170 593 CURVE SMOOTH",
"197 720 LINE SMOOTH",
"200 731 OFFCURVE",
"194 740 OFFCURVE",
"182 740 CURVE SMOOTH",
"171 740 OFFCURVE",
"160 731 OFFCURVE",
"157 720 CURVE SMOOTH",
"9 20 LINE SMOOTH",
"6 9 OFFCURVE",
"12 0 OFFCURVE",
"24 0 CURVE SMOOTH",
"35 0 OFFCURVE",
"46 9 OFFCURVE",
"49 20 CURVE SMOOTH",
"76 149 LINE SMOOTH",
"77 152 OFFCURVE",
"79 154 OFFCURVE",
"82 154 CURVE SMOOTH",
"273 154 OFFCURVE",
"416 156 OFFCURVE",
"461 371 CURVE SMOOTH"
);
},
{
closed = 1;
nodes = (
"160 543 LINE SMOOTH",
"160 546 OFFCURVE",
"163 548 OFFCURVE",
"166 548 CURVE SMOOTH",
"328 550 OFFCURVE",
"463 566 OFFCURVE",
"421 371 CURVE SMOOTH",
"379 174 OFFCURVE",
"252 192 OFFCURVE",
"91 194 CURVE SMOOTH",
"88 194 OFFCURVE",
"86 196 OFFCURVE",
"87 199 CURVE SMOOTH"
);
}
);
width = 489;
}
);
unicode = 00DE;
},
{
glyphname = Q;
lastChange = "2013-12-18 08:31:27 +0400";
layers = (
{
layerId = "6A4EEAE7-E2C6-4FA4-83F5-ABDB5FD8E17B";
name = Light;
paths = (
{
closed = 1;
nodes = (
"805 -44 OFFCURVE",
"794 -45 OFFCURVE",
"785 -52 CURVE",
"740 -88 OFFCURVE",
"645 -127 OFFCURVE",
"593 -127 CURVE SMOOTH",
"535 -127 OFFCURVE",
"513 -112 OFFCURVE",
"452 -73 CURVE SMOOTH",
"427 -58 OFFCURVE",
"401 -49 OFFCURVE",
"376 -45 CURVE SMOOTH",
"371 -44 OFFCURVE",
"370 -41 OFFCURVE",
"375 -39 CURVE SMOOTH",
"516 22 LINE",
"525 26 OFFCURVE",
"535 30 OFFCURVE",
"543 34 CURVE",
"545 35 LINE",
"661 92 OFFCURVE",
"750 212 OFFCURVE",
"765 350 CURVE SMOOTH",
"786 543 OFFCURVE",
"654 700 OFFCURVE",
"472 700 CURVE SMOOTH",
"291 700 OFFCURVE",
"127 543 OFFCURVE",
"106 350 CURVE SMOOTH",
"87 171 OFFCURVE",
"198 23 OFFCURVE",
"359 3 CURVE SMOOTH",
"363 2 OFFCURVE",
"363 -2 OFFCURVE",
"358 -4 CURVE SMOOTH",
"227 -60 LINE",
"217 -64 OFFCURVE",
"211 -78 OFFCURVE",
"216 -88 CURVE",
"218 -95 OFFCURVE",
"225 -98 OFFCURVE",
"232 -98 CURVE SMOOTH",
"236 -98 OFFCURVE",
"239 -97 OFFCURVE",
"242 -96 CURVE SMOOTH",
"287 -79 OFFCURVE",
"367 -69 OFFCURVE",
"428 -107 CURVE SMOOTH",
"487 -146 OFFCURVE",
"521 -167 OFFCURVE",
"590 -167 CURVE SMOOTH",
"649 -167 OFFCURVE",
"757 -122 OFFCURVE",
"809 -80 CURVE",
"821 -72 OFFCURVE",
"821 -58 OFFCURVE",
"812 -50 CURVE SMOOTH"
);
},
{
closed = 1;
nodes = (
"164 521 OFFCURVE",
"311 660 OFFCURVE",
"469 660 CURVE SMOOTH",
"628 660 OFFCURVE",
"743 521 OFFCURVE",
"725 350 CURVE SMOOTH",
"706 179 OFFCURVE",
"561 40 OFFCURVE",
"402 40 CURVE SMOOTH",
"244 40 OFFCURVE",
"127 179 OFFCURVE",
"146 350 CURVE SMOOTH"
);
}
);
width = 779.788;
}
);
leftKerningGroup = C;
rightKerningGroup = D;
unicode = 0051;
},
{
glyphname = R;
lastChange = "2013-12-18 08:31:27 +0400";
layers = (
{
anchors = (
{
name = bottom;
position = "{243, 0}";
},
{
name = top;
position = "{391, 700}";
}
);
layerId = "6A4EEAE7-E2C6-4FA4-83F5-ABDB5FD8E17B";
name = Light;
paths = (
{
closed = 1;
nodes = (
"516 254 OFFCURVE",
"479 296 OFFCURVE",
"433 316 CURVE SMOOTH",
"431 317 OFFCURVE",
"432 319 OFFCURVE",
"436 321 CURVE SMOOTH",
"508 356 OFFCURVE",
"569 421 OFFCURVE",
"585 496 CURVE SMOOTH",
"609 609 OFFCURVE",
"532 700 OFFCURVE",
"420 700 CURVE SMOOTH",
"196 700 LINE SMOOTH",
"185 700 OFFCURVE",
"174 691 OFFCURVE",
"172 680 CURVE SMOOTH",
"32 20 LINE SMOOTH",
"30 9 OFFCURVE",
"36 0 OFFCURVE",
"48 0 CURVE SMOOTH",
"59 0 OFFCURVE",
"70 9 OFFCURVE",
"72 20 CURVE SMOOTH",
"129 288 LINE SMOOTH",
"129 291 OFFCURVE",
"132 293 OFFCURVE",
"135 293 CURVE SMOOTH",
"324 293 LINE",
"331 293 LINE SMOOTH",
"390 293 OFFCURVE",
"480 275 OFFCURVE",
"456 160 CURVE SMOOTH",
"431 46 OFFCURVE",
"454 18 OFFCURVE",
"479 3 CURVE SMOOTH",
"489 -3 OFFCURVE",
"502 3 OFFCURVE",
"509 15 CURVE SMOOTH",
"514 25 OFFCURVE",
"511 34 OFFCURVE",
"504 39 CURVE SMOOTH",
"486 51 OFFCURVE",
"476 70 OFFCURVE",
"496 160 CURVE SMOOTH"
);
},
{
closed = 1;
nodes = (
"143 333 LINE SMOOTH",
"140 333 OFFCURVE",
"139 335 OFFCURVE",
"139 338 CURVE SMOOTH",
"207 655 LINE SMOOTH",
"207 658 OFFCURVE",
"210 660 OFFCURVE",
"213 660 CURVE SMOOTH",
"412 660 LINE SMOOTH",
"506 660 OFFCURVE",
"565 590 OFFCURVE",
"545 496 CURVE SMOOTH",
"525 403 OFFCURVE",
"426 333 OFFCURVE",
"332 333 CURVE SMOOTH"
);
}
);
width = 612.395;
}
);
leftKerningGroup = B;
rightKerningGroup = R;
unicode = 0052;
},
{
glyphname = S;
lastChange = "2013-12-18 08:31:27 +0400";
layers = (
{
anchors = (
{
name = bottom;
position = "{246, 0}";
},
{
name = top;
position = "{394, 700}";
}
);
layerId = "6A4EEAE7-E2C6-4FA4-83F5-ABDB5FD8E17B";
name = Light;
paths = (
{
closed = 1;
nodes = (
"62 37 OFFCURVE",
"143 0 OFFCURVE",
"247 0 CURVE SMOOTH",
"361 0 OFFCURVE",
"502 77 OFFCURVE",
"526 192 CURVE SMOOTH",
"551 310 OFFCURVE",
"436 347 OFFCURVE",
"340 376 CURVE SMOOTH",
"243 405 OFFCURVE",
"127 427 OFFCURVE",
"147 518 CURVE SMOOTH",
"162 590 OFFCURVE",
"251 660 OFFCURVE",
"366 660 CURVE SMOOTH",
"457 660 OFFCURVE",
"500 629 OFFCURVE",
"529 606 CURVE SMOOTH",
"539 599 OFFCURVE",
"552 602 OFFCURVE",
"560 612 CURVE SMOOTH",
"568 621 OFFCURVE",
"567 632 OFFCURVE",
"559 638 CURVE SMOOTH",
"529 663 OFFCURVE",
"477 700 OFFCURVE",
"374 700 CURVE SMOOTH",
"243 700 OFFCURVE",
"126 610 OFFCURVE",
"107 518 CURVE SMOOTH",
"81 395 OFFCURVE",
"225 367 OFFCURVE",
"321 338 CURVE SMOOTH",
"418 309 OFFCURVE",
"505 280 OFFCURVE",
"486 192 CURVE SMOOTH",
"467 103 OFFCURVE",
"357 40 OFFCURVE",
"255 40 CURVE SMOOTH",
"159 40 OFFCURVE",
"91 71 OFFCURVE",
"48 117 CURVE SMOOTH",
"42 124 OFFCURVE",
"31 125 OFFCURVE",
"21 117 CURVE SMOOTH",
"11 108 OFFCURVE",
"8 96 OFFCURVE",
"15 87 CURVE SMOOTH"
);
}
);
width = 585.523;
}
);
leftKerningGroup = S;
rightKerningGroup = S;
unicode = 0053;
},
{
glyphname = T;
lastChange = "2013-12-18 08:31:27 +0400";
layers = (
{
anchors = (
{
name = bottom;
position = "{196, 0}";
},
{
name = center;
position = "{270, 350}";
},
{
name = top;
position = "{344, 700}";
}
);
layerId = "6A4EEAE7-E2C6-4FA4-83F5-ABDB5FD8E17B";
name = Light;
paths = (
{
closed = 1;
nodes = (
"595 692 OFFCURVE",
"587 700 OFFCURVE",
"576 700 CURVE SMOOTH",
"110 700 LINE SMOOTH",
"99 700 OFFCURVE",
"89 692 OFFCURVE",
"86 680 CURVE SMOOTH",
"84 669 OFFCURVE",
"91 660 OFFCURVE",
"102 660 CURVE SMOOTH",
"310 660 LINE SMOOTH",
"313 660 OFFCURVE",
"314 658 OFFCURVE",
"314 655 CURVE SMOOTH",
"179 20 LINE SMOOTH",
"177 9 OFFCURVE",
"183 0 OFFCURVE",
"195 0 CURVE SMOOTH",
"206 0 OFFCURVE",
"217 9 OFFCURVE",
"219 20 CURVE SMOOTH",
"354 655 LINE SMOOTH",
"354 658 OFFCURVE",
"357 660 OFFCURVE",
"360 660 CURVE SMOOTH",
"568 660 LINE SMOOTH",
"579 660 OFFCURVE",
"590 668 OFFCURVE",
"592 680 CURVE SMOOTH"
);
}
);
width = 535.635;
}
);
leftKerningGroup = T;
rightKerningGroup = T;
unicode = 0054;
},
{
glyphname = U;
lastChange = "2013-12-18 08:31:27 +0400";
layers = (
{
anchors = (
{
name = ogonek;
position = "{615, 10}";
},
{
name = top;
position = "{461, 700}";
}
);
layerId = "6A4EEAE7-E2C6-4FA4-83F5-ABDB5FD8E17B";
name = Light;
paths = (
{
closed = 1;
nodes = (
"727 700 OFFCURVE",
"718 691 OFFCURVE",
"715 680 CURVE SMOOTH",
"632 288 LINE SMOOTH",
"601 145 OFFCURVE",
"463 30 OFFCURVE",
"320 30 CURVE SMOOTH",
"177 30 OFFCURVE",
"86 145 OFFCURVE",
"117 288 CURVE SMOOTH",
"200 680 LINE SMOOTH",
"203 691 OFFCURVE",
"196 700 OFFCURVE",
"184 700 CURVE SMOOTH",
"172 700 OFFCURVE",
"163 691 OFFCURVE",
"160 680 CURVE SMOOTH",
"77 288 LINE SMOOTH",
"42 126 OFFCURVE",
"150 -10 OFFCURVE",
"312 -10 CURVE SMOOTH",
"473 -10 OFFCURVE",
"637 126 OFFCURVE",
"672 288 CURVE SMOOTH",
"755 680 LINE SMOOTH",
"758 691 OFFCURVE",
"751 700 OFFCURVE",
"739 700 CURVE SMOOTH"
);
}
);
width = 759.692;
}
);
leftKerningGroup = U;
rightKerningGroup = U;
unicode = 0055;
},
{
glyphname = Umacron;
lastChange = "2013-12-18 08:31:27 +0400";
layers = (
{
components = (
{
name = U;
transform = "{1, 0, 0, 1, 0, 0}";
}
);
layerId = "6A4EEAE7-E2C6-4FA4-83F5-ABDB5FD8E17B";
name = Light;
paths = (
{
closed = 1;
nodes = (
"343 826 LINE SMOOTH",
"332 826 OFFCURVE",
"323 818 OFFCURVE",
"323 806 CURVE SMOOTH",
"323 794 OFFCURVE",
"332 786 OFFCURVE",
"343 786 CURVE SMOOTH",
"602 786 LINE SMOOTH",
"613 786 OFFCURVE",
"622 794 OFFCURVE",
"622 806 CURVE SMOOTH",
"622 818 OFFCURVE",
"613 826 OFFCURVE",
"602 826 CURVE SMOOTH"
);
}
);
width = 760;
}
);
unicode = 016A;
},
{
glyphname = V;
lastChange = "2013-12-18 08:31:27 +0400";
layers = (
{
layerId = "6A4EEAE7-E2C6-4FA4-83F5-ABDB5FD8E17B";
name = Light;
paths = (
{
closed = 1;
nodes = (
"688 705 OFFCURVE",
"676 700 OFFCURVE",
"668 689 CURVE SMOOTH",
"271 83 LINE SMOOTH",
"269 79 OFFCURVE",
"267 79 OFFCURVE",
"265 83 CURVE SMOOTH",
"126 689 LINE SMOOTH",
"124 700 OFFCURVE",
"114 705 OFFCURVE",
"103 700 CURVE SMOOTH",
"91 695 OFFCURVE",
"85 684 OFFCURVE",
"87 674 CURVE SMOOTH",
"236 19 LINE SMOOTH",
"237 11 OFFCURVE",
"244 6 OFFCURVE",
"252 6 CURVE SMOOTH",
"260 6 OFFCURVE",
"268 11 OFFCURVE",
"274 19 CURVE SMOOTH",
"702 674 LINE",
"708 684 OFFCURVE",
"706 695 OFFCURVE",
"698 700 CURVE"
);
}
);
width = 637.488;
}
);
leftKerningGroup = V;
rightKerningGroup = V;
unicode = 0056;
},
{
glyphname = W;
lastChange = "2013-12-18 08:31:27 +0400";
layers = (
{
anchors = (
{
name = top;
position = "{580, 700}";
}
);
layerId = "6A4EEAE7-E2C6-4FA4-83F5-ABDB5FD8E17B";
name = Light;
paths = (
{
closed = 1;
nodes = (
"1000 705 OFFCURVE",
"987 700 OFFCURVE",
"981 689 CURVE SMOOTH",
"643 83 LINE SMOOTH",
"640 78 OFFCURVE",
"637 78 OFFCURVE",
"636 83 CURVE SMOOTH",
"553 532 LINE SMOOTH",
"551 540 OFFCURVE",
"545 545 OFFCURVE",
"537 545 CURVE",
"528 545 OFFCURVE",
"520 540 OFFCURVE",
"515 532 CURVE SMOOTH",
"242 83 LINE SMOOTH",
"239 78 OFFCURVE",
"236 78 OFFCURVE",
"235 83 CURVE SMOOTH",
"155 689 LINE SMOOTH",
"153 700 OFFCURVE",
"142 705 OFFCURVE",
"130 700 CURVE",
"119 695 OFFCURVE",
"113 684 OFFCURVE",
"114 673 CURVE SMOOTH",
"203 13 LINE SMOOTH",
"203 5 OFFCURVE",
"210 0 OFFCURVE",
"217 0 CURVE",
"226 -1 OFFCURVE",
"235 3 OFFCURVE",
"241 12 CURVE SMOOTH",
"517 466 LINE SMOOTH",
"519 470 OFFCURVE",
"523 470 OFFCURVE",
"523 466 CURVE SMOOTH",
"607 12 LINE SMOOTH",
"608 3 OFFCURVE",
"615 -1 OFFCURVE",
"624 0 CURVE",
"631 0 OFFCURVE",
"640 5 OFFCURVE",
"645 13 CURVE SMOOTH",
"1014 673 LINE SMOOTH",
"1021 684 OFFCURVE",
"1019 695 OFFCURVE",
"1010 700 CURVE"
);
}
);
width = 969.209;
}
);
leftKerningGroup = W;
rightKerningGroup = W;
unicode = 0057;
},
{
glyphname = X;
lastChange = "2013-12-18 08:31:27 +0400";
layers = (
{
layerId = "6A4EEAE7-E2C6-4FA4-83F5-ABDB5FD8E17B";
name = Light;
paths = (
{
closed = 1;
nodes = (
"309 346 LINE SMOOTH",
"307 348 OFFCURVE",
"308 351 OFFCURVE",
"311 353 CURVE SMOOTH",
"610 672 LINE SMOOTH",
"619 682 OFFCURVE",
"620 694 OFFCURVE",
"612 700 CURVE",
"605 707 OFFCURVE",
"592 705 OFFCURVE",
"583 696 CURVE SMOOTH",
"294 389 LINE SMOOTH",
"292 386 OFFCURVE",
"289 386 OFFCURVE",
"287 389 CURVE SMOOTH",
"128 695 LINE SMOOTH",
"123 704 OFFCURVE",
"112 706 OFFCURVE",
"101 700 CURVE SMOOTH",
"90 693 OFFCURVE",
"85 681 OFFCURVE",
"90 671 CURVE SMOOTH",
"256 353 LINE SMOOTH",
"256 351 OFFCURVE",
"255 348 OFFCURVE",
"254 346 CURVE SMOOTH",
"-46 29 LINE SMOOTH",
"-55 19 OFFCURVE",
"-56 7 OFFCURVE",
"-47 0 CURVE SMOOTH",
"-40 -6 OFFCURVE",
"-27 -4 OFFCURVE",
"-18 5 CURVE SMOOTH",
"270 310 LINE SMOOTH",
"273 313 OFFCURVE",
"276 313 OFFCURVE",
"277 310 CURVE SMOOTH",
"437 5 LINE SMOOTH",
"442 -4 OFFCURVE",
"452 -6 OFFCURVE",
"463 0 CURVE SMOOTH",
"474 7 OFFCURVE",
"479 19 OFFCURVE",
"474 29 CURVE SMOOTH"
);
}
);
width = 560.425;
}
);
leftKerningGroup = X;
rightKerningGroup = X;
unicode = 0058;
},
{
glyphname = Y;
lastChange = "2013-12-18 08:31:27 +0400";
layers = (
{
anchors = (
{
name = top;
position = "{332, 700}";
}
);
layerId = "6A4EEAE7-E2C6-4FA4-83F5-ABDB5FD8E17B";
name = Light;
paths = (
{
closed = 1;
nodes = (
"570 707 OFFCURVE",
"558 705 OFFCURVE",
"549 695 CURVE SMOOTH",
"274 404 LINE SMOOTH",
"270 401 OFFCURVE",
"268 401 OFFCURVE",
"266 404 CURVE SMOOTH",
"115 695 LINE SMOOTH",
"110 705 OFFCURVE",
"98 707 OFFCURVE",
"88 700 CURVE SMOOTH",
"77 693 OFFCURVE",
"73 681 OFFCURVE",
"78 672 CURVE SMOOTH",
"239 362 LINE SMOOTH",
"240 360 OFFCURVE",
"240 358 OFFCURVE",
"240 356 CURVE SMOOTH",
"168 20 LINE SMOOTH",
"166 9 OFFCURVE",
"172 0 OFFCURVE",
"184 0 CURVE SMOOTH",
"195 0 OFFCURVE",
"206 9 OFFCURVE",
"208 20 CURVE SMOOTH",
"280 356 LINE SMOOTH",
"280 358 OFFCURVE",
"282 360 OFFCURVE",
"283 362 CURVE SMOOTH",
"577 672 LINE",
"585 682 OFFCURVE",
"586 693 OFFCURVE",
"579 700 CURVE"
);
}
);
width = 508.682;
}
);
leftKerningGroup = Y;
rightKerningGroup = Y;
unicode = 0059;
},
{
glyphname = Z;
lastChange = "2013-12-18 08:31:27 +0400";
layers = (
{
anchors = (
{
name = top;
position = "{410, 700}";
}
);
layerId = "6A4EEAE7-E2C6-4FA4-83F5-ABDB5FD8E17B";
name = Light;
paths = (
{
closed = 1;
nodes = (
"54 40 LINE SMOOTH",
"50 40 OFFCURVE",
"49 43 OFFCURVE",
"52 46 CURVE SMOOTH",
"679 668 LINE SMOOTH",
"687 677 OFFCURVE",
"688 689 OFFCURVE",
"681 696 CURVE SMOOTH",
"677 700 OFFCURVE",
"672 701 OFFCURVE",
"666 700 CURVE",
"186 700 LINE SMOOTH",
"175 700 OFFCURVE",
"165 692 OFFCURVE",
"162 680 CURVE SMOOTH",
"160 669 OFFCURVE",
"167 660 OFFCURVE",
"178 660 CURVE SMOOTH",
"613 660 LINE SMOOTH",
"617 660 OFFCURVE",
"618 657 OFFCURVE",
"615 654 CURVE SMOOTH",
"-11 33 LINE SMOOTH",
"-16 28 OFFCURVE",
"-19 22 OFFCURVE",
"-19 17 CURVE SMOOTH",
"-19 7 OFFCURVE",
"-12 0 OFFCURVE",
"-2 0 CURVE SMOOTH",
"510 0 LINE SMOOTH",
"521 0 OFFCURVE",
"531 8 OFFCURVE",
"534 20 CURVE SMOOTH",
"536 31 OFFCURVE",
"529 40 OFFCURVE",
"518 40 CURVE SMOOTH"
);
}
);
width = 656.681;
}
);
leftKerningGroup = Z;
rightKerningGroup = Z;
unicode = 005A;
},
{
glyphname = A.ss01;
lastChange = "2013-12-18 08:31:27 +0400";
layers = (
{
layerId = "6A4EEAE7-E2C6-4FA4-83F5-ABDB5FD8E17B";
name = Light;
paths = (
{
closed = 1;
nodes = (
"765 710 LINE",
"727 532 LINE SMOOTH",
"726 527 OFFCURVE",
"723 527 OFFCURVE",
"720 531 CURVE SMOOTH",
"684 638 OFFCURVE",
"591 710 OFFCURVE",
"466 710 CURVE SMOOTH",
"279 710 OFFCURVE",
"92 549 OFFCURVE",
"50 350 CURVE SMOOTH",
"8 151 OFFCURVE",
"125 -10 OFFCURVE",
"312 -10 CURVE SMOOTH",
"437 -10 OFFCURVE",
"562 62 OFFCURVE",
"644 169 CURVE SMOOTH",
"647 173 OFFCURVE",
"650 173 OFFCURVE",
"649 168 CURVE SMOOTH",
"611 -10 LINE",
"651 -10 LINE",
"805 710 LINE"
);
},
{
closed = 1;
nodes = (
"157 30 OFFCURVE",
"52 173 OFFCURVE",
"90 350 CURVE SMOOTH",
"128 527 OFFCURVE",
"293 670 OFFCURVE",
"457 670 CURVE SMOOTH",
"621 670 OFFCURVE",
"726 527 OFFCURVE",
"688 350 CURVE SMOOTH",
"650 173 OFFCURVE",
"485 30 OFFCURVE",
"321 30 CURVE SMOOTH"
);
}
);
width = 818;
}
);
},
{
glyphname = E.ss01;
lastChange = "2013-12-18 08:31:27 +0400";
layers = (
{
layerId = "6A4EEAE7-E2C6-4FA4-83F5-ABDB5FD8E17B";
name = Light;
paths = (
{
closed = 1;
nodes = (
"747 367 LINE SMOOTH",
"783 556 OFFCURVE",
"658 710 OFFCURVE",
"474 710 CURVE SMOOTH",
"282 710 OFFCURVE",
"92 549 OFFCURVE",
"50 350 CURVE SMOOTH",
"8 151 OFFCURVE",
"128 -10 OFFCURVE",
"320 -10 CURVE SMOOTH",
"453 -10 OFFCURVE",
"559 38 OFFCURVE",
"654 130 CURVE SMOOTH",
"664 140 OFFCURVE",
"665 153 OFFCURVE",
"656 160 CURVE SMOOTH",
"648 165 OFFCURVE",
"637 163 OFFCURVE",
"629 155 CURVE SMOOTH",
"542 71 OFFCURVE",
"452 30 OFFCURVE",
"329 30 CURVE SMOOTH",
"167 30 OFFCURVE",
"62 161 OFFCURVE",
"86 328 CURVE SMOOTH",
"87 331 OFFCURVE",
"88 333 OFFCURVE",
"92 333 CURVE SMOOTH",
"719 333 LINE SMOOTH",
"730 333 OFFCURVE",
"741 340 OFFCURVE",
"743 350 CURVE SMOOTH"
);
},
{
closed = 1;
nodes = (
"101 373 LINE SMOOTH",
"98 373 OFFCURVE",
"96 375 OFFCURVE",
"97 378 CURVE SMOOTH",
"146 542 OFFCURVE",
"305 670 OFFCURVE",
"465 670 CURVE SMOOTH",
"624 670 OFFCURVE",
"736 537 OFFCURVE",
"709 373 CURVE"
);
}
);
width = 793;
}
);
},
{
glyphname = M.ss01;
lastChange = "2013-12-18 08:31:27 +0400";
layers = (
{
layerId = "6A4EEAE7-E2C6-4FA4-83F5-ABDB5FD8E17B";
name = Light;
paths = (
{
closed = 1;
nodes = (
"200 680 LINE SMOOTH",
"202 691 OFFCURVE",
"196 700 OFFCURVE",
"184 700 CURVE SMOOTH",
"172 700 OFFCURVE",
"162 691 OFFCURVE",
"160 680 CURVE SMOOTH",
"20 20 LINE SMOOTH",
"18 9 OFFCURVE",
"24 0 OFFCURVE",
"36 0 CURVE SMOOTH",
"48 0 OFFCURVE",
"58 9 OFFCURVE",
"60 20 CURVE SMOOTH",
"141 402 LINE SMOOTH",
"171 545 OFFCURVE",
"310 660 OFFCURVE",
"463 660 CURVE SMOOTH",
"596 660 OFFCURVE",
"653 575 OFFCURVE",
"616 402 CURVE SMOOTH",
"535 20 LINE SMOOTH",
"533 9 OFFCURVE",
"539 0 OFFCURVE",
"551 0 CURVE SMOOTH",
"563 0 OFFCURVE",
"573 9 OFFCURVE",
"575 20 CURVE SMOOTH",
"656 402 LINE SMOOTH",
"686 545 OFFCURVE",
"825 660 OFFCURVE",
"978 660 CURVE SMOOTH",
"1111 660 OFFCURVE",
"1168 575 OFFCURVE",
"1131 402 CURVE SMOOTH",
"1050 20 LINE SMOOTH",
"1048 9 OFFCURVE",
"1054 0 OFFCURVE",
"1066 0 CURVE SMOOTH",
"1077 0 OFFCURVE",
"1088 9 OFFCURVE",
"1090 20 CURVE SMOOTH",
"1171 402 LINE SMOOTH",
"1212 594 OFFCURVE",
"1138 700 OFFCURVE",
"986 700 CURVE SMOOTH",
"882 700 OFFCURVE",
"749 644 OFFCURVE",
"672 532 CURVE SMOOTH",
"669 527 OFFCURVE",
"666 528 OFFCURVE",
"666 532 CURVE SMOOTH",
"654 641 OFFCURVE",
"584 700 OFFCURVE",
"471 700 CURVE SMOOTH",
"353 700 OFFCURVE",
"243 638 OFFCURVE",
"172 548 CURVE"
);
}
);
width = 1235;
}
);
},
{
glyphname = N.ss01;
lastChange = "2013-12-18 08:31:27 +0400";
layers = (
{
layerId = "6A4EEAE7-E2C6-4FA4-83F5-ABDB5FD8E17B";
name = Light;
paths = (
{
closed = 1;
nodes = (
"48 0 OFFCURVE",
"58 9 OFFCURVE",
"60 20 CURVE SMOOTH",
"141 402 LINE SMOOTH",
"171 545 OFFCURVE",
"330 660 OFFCURVE",
"483 660 CURVE SMOOTH",
"636 660 OFFCURVE",
"693 575 OFFCURVE",
"656 402 CURVE SMOOTH",
"575 20 LINE SMOOTH",
"573 9 OFFCURVE",
"579 0 OFFCURVE",
"591 0 CURVE SMOOTH",
"602 0 OFFCURVE",
"613 9 OFFCURVE",
"615 20 CURVE SMOOTH",
"696 402 LINE SMOOTH",
"737 594 OFFCURVE",
"663 700 OFFCURVE",
"491 700 CURVE SMOOTH",
"373 700 OFFCURVE",
"243 638 OFFCURVE",
"172 548 CURVE",
"200 680 LINE SMOOTH",
"202 691 OFFCURVE",
"196 700 OFFCURVE",
"184 700 CURVE SMOOTH",
"172 700 OFFCURVE",
"162 691 OFFCURVE",
"160 680 CURVE SMOOTH",
"20 20 LINE SMOOTH",
"18 9 OFFCURVE",
"24 0 OFFCURVE",
"36 0 CURVE SMOOTH"
);
}
);
width = 765;
}
);
},
{
glyphname = Q.ss01;
lastChange = "2013-12-18 08:31:27 +0400";
layers = (
{
layerId = "6A4EEAE7-E2C6-4FA4-83F5-ABDB5FD8E17B";
name = Light;
paths = (
{
closed = 1;
nodes = (
"766 553 OFFCURVE",
"652 710 OFFCURVE",
"470 710 CURVE SMOOTH",
"288 710 OFFCURVE",
"108 553 OFFCURVE",
"65 350 CURVE SMOOTH",
"23 156 OFFCURVE",
"125 4 OFFCURVE",
"292 -9 CURVE SMOOTH",
"295 -9 OFFCURVE",
"297 -11 OFFCURVE",
"296 -14 CURVE SMOOTH",
"272 -128 LINE SMOOTH",
"270 -139 OFFCURVE",
"276 -148 OFFCURVE",
"288 -148 CURVE SMOOTH",
"300 -148 OFFCURVE",
"310 -139 OFFCURVE",
"312 -128 CURVE SMOOTH",
"336 -14 LINE SMOOTH",
"337 -11 OFFCURVE",
"339 -9 OFFCURVE",
"342 -9 CURVE SMOOTH",
"515 4 OFFCURVE",
"681 156 OFFCURVE",
"723 350 CURVE SMOOTH"
);
},
{
closed = 1;
nodes = (
"167 30 OFFCURVE",
"66 169 OFFCURVE",
"105 350 CURVE SMOOTH",
"143 531 OFFCURVE",
"303 670 OFFCURVE",
"462 670 CURVE SMOOTH",
"621 670 OFFCURVE",
"721 531 OFFCURVE",
"683 350 CURVE SMOOTH",
"644 169 OFFCURVE",
"485 30 OFFCURVE",
"326 30 CURVE SMOOTH"
);
}
);
width = 758;
}
);
},
{
glyphname = R.ss01;
lastChange = "2013-12-18 08:31:27 +0400";
layers = (
{
layerId = "6A4EEAE7-E2C6-4FA4-83F5-ABDB5FD8E17B";
name = Light;
paths = (
{
closed = 1;
nodes = (
"199 680 LINE SMOOTH",
"201 691 OFFCURVE",
"195 700 OFFCURVE",
"183 700 CURVE SMOOTH",
"172 700 OFFCURVE",
"161 691 OFFCURVE",
"159 680 CURVE SMOOTH",
"19 20 LINE SMOOTH",
"16 9 OFFCURVE",
"22 0 OFFCURVE",
"34 0 CURVE SMOOTH",
"45 0 OFFCURVE",
"56 9 OFFCURVE",
"59 20 CURVE SMOOTH",
"112 271 LINE SMOOTH",
"157 483 OFFCURVE",
"304 625 OFFCURVE",
"501 671 CURVE SMOOTH",
"514 674 OFFCURVE",
"522 682 OFFCURVE",
"523 694 CURVE SMOOTH",
"523 705 OFFCURVE",
"515 713 OFFCURVE",
"502 710 CURVE",
"362 683 OFFCURVE",
"241 595 OFFCURVE",
"163 480 CURVE SMOOTH",
"159 475 OFFCURVE",
"156 476 OFFCURVE",
"157 481 CURVE SMOOTH"
);
}
);
width = 461.339;
}
);
},
{
glyphname = U.ss01;
lastChange = "2013-12-18 08:31:27 +0400";
layers = (
{
layerId = "6A4EEAE7-E2C6-4FA4-83F5-ABDB5FD8E17B";
name = Light;
paths = (
{
closed = 1;
nodes = (
"717 700 OFFCURVE",
"707 691 OFFCURVE",
"705 680 CURVE SMOOTH",
"624 298 LINE SMOOTH",
"594 155 OFFCURVE",
"435 40 OFFCURVE",
"282 40 CURVE SMOOTH",
"129 40 OFFCURVE",
"72 125 OFFCURVE",
"109 298 CURVE SMOOTH",
"190 680 LINE SMOOTH",
"192 691 OFFCURVE",
"186 700 OFFCURVE",
"174 700 CURVE SMOOTH",
"163 700 OFFCURVE",
"152 691 OFFCURVE",
"150 680 CURVE SMOOTH",
"69 298 LINE SMOOTH",
"28 106 OFFCURVE",
"102 0 OFFCURVE",
"274 0 CURVE SMOOTH",
"392 0 OFFCURVE",
"522 62 OFFCURVE",
"593 152 CURVE",
"565 20 LINE SMOOTH",
"563 9 OFFCURVE",
"569 0 OFFCURVE",
"581 0 CURVE SMOOTH",
"593 0 OFFCURVE",
"603 9 OFFCURVE",
"605 20 CURVE SMOOTH",
"745 680 LINE SMOOTH",
"747 691 OFFCURVE",
"741 700 OFFCURVE",
"729 700 CURVE SMOOTH"
);
}
);
width = 765;
}
);
},
{
glyphname = W.ss01;
lastChange = "2013-12-18 08:31:27 +0400";
layers = (
{
anchors = (
{
name = ogonek;
position = "{565, 10}";
},
{
name = top;
position = "{411, 700}";
}
);
layerId = "6A4EEAE7-E2C6-4FA4-83F5-ABDB5FD8E17B";
name = Light;
paths = (
{
closed = 1;
nodes = (
"1104 700 LINE",
"1015 278 LINE SMOOTH",
"984 135 OFFCURVE",
"890 40 OFFCURVE",
"747 40 CURVE SMOOTH",
"604 40 OFFCURVE",
"549 135 OFFCURVE",
"580 278 CURVE SMOOTH",
"669 700 LINE",
"629 700 LINE",
"540 278 LINE SMOOTH",
"509 135 OFFCURVE",
"415 40 OFFCURVE",
"272 40 CURVE SMOOTH",
"129 40 OFFCURVE",
"74 135 OFFCURVE",
"105 278 CURVE SMOOTH",
"194 700 LINE",
"154 700 LINE",
"65 278 LINE SMOOTH",
"30 116 OFFCURVE",
"102 0 OFFCURVE",
"264 0 CURVE SMOOTH",
"379 0 OFFCURVE",
"472 59 OFFCURVE",
"530 151 CURVE SMOOTH",
"533 155 OFFCURVE",
"535 155 OFFCURVE",
"536 151 CURVE SMOOTH",
"554 59 OFFCURVE",
"624 0 OFFCURVE",
"739 0 CURVE SMOOTH",
"900 0 OFFCURVE",
"1020 116 OFFCURVE",
"1055 278 CURVE SMOOTH",
"1144 700 LINE"
);
}
);
width = 1150;
}
);
},
{
glyphname = a;
lastChange = "2013-12-18 08:31:27 +0400";
layers = (
{
anchors = (
{
name = ogonek;
position = "{511, 10}";
},
{
name = top;
position = "{369, 515}";
}
);
layerId = "6A4EEAE7-E2C6-4FA4-83F5-ABDB5FD8E17B";
name = Light;
paths = (
{
closed = 1;
nodes = (
"598 51 OFFCURVE",
"585 51 OFFCURVE",
"576 46 CURVE",
"568 41 OFFCURVE",
"557 30 OFFCURVE",
"541 30 CURVE SMOOTH",
"510 30 OFFCURVE",
"513 81 OFFCURVE",
"527 152 CURVE SMOOTH",
"599 495 LINE SMOOTH",
"601 506 OFFCURVE",
"596 515 OFFCURVE",
"584 515 CURVE SMOOTH",
"572 515 OFFCURVE",
"562 506 OFFCURVE",
"559 495 CURVE",
"536 386 LINE SMOOTH",
"535 381 OFFCURVE",
"532 381 OFFCURVE",
"530 385 CURVE SMOOTH",
"496 468 OFFCURVE",
"419 525 OFFCURVE",
"324 525 CURVE SMOOTH",
"185 525 OFFCURVE",
"59 405 OFFCURVE",
"44 257 CURVE SMOOTH",
"28 110 OFFCURVE",
"128 -10 OFFCURVE",
"267 -10 CURVE SMOOTH",
"344 -10 OFFCURVE",
"417 27 OFFCURVE",
"469 85 CURVE SMOOTH",
"472 88 OFFCURVE",
"475 87 OFFCURVE",
"475 83 CURVE SMOOTH",
"473 29 OFFCURVE",
"491 -10 OFFCURVE",
"541 -10 CURVE SMOOTH",
"563 -10 OFFCURVE",
"583 -1 OFFCURVE",
"596 10 CURVE SMOOTH",
"605 18 OFFCURVE",
"612 30 OFFCURVE",
"604 42 CURVE SMOOTH"
);
},
{
closed = 1;
nodes = (
"156 30 OFFCURVE",
"70 132 OFFCURVE",
"84 257 CURVE SMOOTH",
"97 383 OFFCURVE",
"203 485 OFFCURVE",
"319 485 CURVE SMOOTH",
"435 485 OFFCURVE",
"520 383 OFFCURVE",
"507 257 CURVE SMOOTH",
"493 132 OFFCURVE",
"388 30 OFFCURVE",
"272 30 CURVE SMOOTH"
);
}
);
width = 657.503;
}
);
leftKerningGroup = a;
rightKerningGroup = a;
unicode = 0061;
},
{
glyphname = ae;
lastChange = "2013-12-18 08:31:27 +0400";
layers = (
{
anchors = (
{
name = bottom;
position = "{685, 0}";
},
{
name = ogonek;
position = "{913, 10}";
},
{
name = top;
position = "{831, 515}";
}
);
layerId = "6A4EEAE7-E2C6-4FA4-83F5-ABDB5FD8E17B";
leftMetricsKey = a;
rightMetricsKey = e;
name = Light;
paths = (
{
closed = 1;
nodes = (
"888 153 OFFCURVE",
"998 277 OFFCURVE",
"998 372 CURVE SMOOTH",
"998 421 OFFCURVE",
"959 525 OFFCURVE",
"798 525 CURVE SMOOTH",
"706.345 525 OFFCURVE",
"635.087 487.848 OFFCURVE",
"586.021 433.168 CURVE",
"599 495 LINE",
"602 506 OFFCURVE",
"596 515 OFFCURVE",
"584 515 CURVE SMOOTH",
"572 515 OFFCURVE",
"562 506 OFFCURVE",
"559 495 CURVE",
"536 386 LINE SMOOTH",
"535 381 OFFCURVE",
"532 381 OFFCURVE",
"530 385 CURVE",
"496 468 OFFCURVE",
"419 525 OFFCURVE",
"324 525 CURVE SMOOTH",
"185 525 OFFCURVE",
"59 405 OFFCURVE",
"44 257 CURVE SMOOTH",
"28 110 OFFCURVE",
"128 -10 OFFCURVE",
"267 -10 CURVE SMOOTH",
"344 -10 OFFCURVE",
"417 27 OFFCURVE",
"469 85 CURVE",
"470 86 OFFCURVE",
"472 87 OFFCURVE",
"473 87 CURVE",
"459 20 LINE",
"456 9 OFFCURVE",
"462 0 OFFCURVE",
"474 0 CURVE SMOOTH",
"485 0 OFFCURVE",
"496 9 OFFCURVE",
"499 20 CURVE",
"520 118 LINE SMOOTH",
"521 122 OFFCURVE",
"524 123 OFFCURVE",
"526 118 CURVE SMOOTH",
"565 24 OFFCURVE",
"659 -10 OFFCURVE",
"736 -10 CURVE SMOOTH",
"815 -10 OFFCURVE",
"877 18 OFFCURVE",
"921 58 CURVE",
"931 66 OFFCURVE",
"930 79 OFFCURVE",
"921 88 CURVE",
"913 95 OFFCURVE",
"902 95 OFFCURVE",
"893 87 CURVE SMOOTH",
"855 51 OFFCURVE",
"806 30 OFFCURVE",
"736 30 CURVE SMOOTH",
"664 30 OFFCURVE",
"557 81 OFFCURVE",
"553 207 CURVE",
"553 210 OFFCURVE",
"555 212 OFFCURVE",
"558 211 CURVE"
);
},
{
closed = 1;
nodes = (
"156 30 OFFCURVE",
"70 132 OFFCURVE",
"84 257 CURVE SMOOTH",
"97 383 OFFCURVE",
"203 485 OFFCURVE",
"319 485 CURVE SMOOTH",
"435 485 OFFCURVE",
"520 383 OFFCURVE",
"507 257 CURVE SMOOTH",
"493 132 OFFCURVE",
"388 30 OFFCURVE",
"272 30 CURVE SMOOTH"
);
},
{
closed = 1;
nodes = (
"927 485 OFFCURVE",
"958 413 OFFCURVE",
"958 372 CURVE SMOOTH",
"958 300 OFFCURVE",
"863 196 OFFCURVE",
"560 252 CURVE",
"557 252 OFFCURVE",
"555 255 OFFCURVE",
"556 258 CURVE",
"575 381 OFFCURVE",
"672 485 OFFCURVE",
"798 485 CURVE SMOOTH"
);
}
);
width = 1037;
}
);
leftMetricsKey = a;
rightMetricsKey = e;
unicode = 00E6;
},
{
glyphname = b;
lastChange = "2013-12-18 08:31:27 +0400";
layers = (
{
layerId = "6A4EEAE7-E2C6-4FA4-83F5-ABDB5FD8E17B";
name = Light;
paths = (
{
closed = 1;
nodes = (
"277 525 OFFCURVE",
"205 490 OFFCURVE",
"153 433 CURVE SMOOTH",
"150 429 OFFCURVE",
"146 431 OFFCURVE",
"147 436 CURVE SMOOTH",
"208 720 LINE",
"211 731 OFFCURVE",
"205 740 OFFCURVE",
"193 740 CURVE SMOOTH",
"181 740 OFFCURVE",
"171 731 OFFCURVE",
"168 720 CURVE",
"20 20 LINE",
"17 9 OFFCURVE",
"24 0 OFFCURVE",
"35 0 CURVE SMOOTH",
"47 0 OFFCURVE",
"57 9 OFFCURVE",
"60 20 CURVE",
"83 130 LINE SMOOTH",
"85 135 OFFCURVE",
"88 135 OFFCURVE",
"90 131 CURVE SMOOTH",
"123 47 OFFCURVE",
"200 -10 OFFCURVE",
"296 -10 CURVE SMOOTH",
"435 -10 OFFCURVE",
"560 110 OFFCURVE",
"576 257 CURVE SMOOTH",
"591 405 OFFCURVE",
"492 525 OFFCURVE",
"353 525 CURVE SMOOTH"
);
},
{
closed = 1;
nodes = (
"522 132 OFFCURVE",
"417 30 OFFCURVE",
"301 30 CURVE SMOOTH",
"185 30 OFFCURVE",
"99 132 OFFCURVE",
"113 257 CURVE SMOOTH",
"126 383 OFFCURVE",
"232 485 OFFCURVE",
"348 485 CURVE SMOOTH",
"464 485 OFFCURVE",
"549 383 OFFCURVE",
"536 257 CURVE SMOOTH"
);
}
);
width = 630.013;
}
);
leftKerningGroup = b;
rightKerningGroup = b;
unicode = 0062;
},
{
glyphname = c;
lastChange = "2013-12-18 08:31:27 +0400";
layers = (
{
anchors = (
{
name = bottom;
position = "{198, 0}";
},
{
name = top;
position = "{308, 515}";
}
);
layerId = "6A4EEAE7-E2C6-4FA4-83F5-ABDB5FD8E17B";
name = Light;
paths = (
{
closed = 1;
nodes = (
"461 494 OFFCURVE",
"389 525 OFFCURVE",
"317 525 CURVE SMOOTH",
"183 525 OFFCURVE",
"57 405 OFFCURVE",
"41 257 CURVE SMOOTH",
"26 115 OFFCURVE",
"123 -10 OFFCURVE",
"260 -10 CURVE SMOOTH",
"336 -10 OFFCURVE",
"396 20 OFFCURVE",
"433 53 CURVE SMOOTH",
"441 60 OFFCURVE",
"446 71 OFFCURVE",
"437 82 CURVE SMOOTH",
"429 91 OFFCURVE",
"417 90 OFFCURVE",
"407 81 CURVE SMOOTH",
"380 57 OFFCURVE",
"333 30 OFFCURVE",
"265 30 CURVE SMOOTH",
"151 30 OFFCURVE",
"67 137 OFFCURVE",
"81 257 CURVE SMOOTH",
"96 382 OFFCURVE",
"200 485 OFFCURVE",
"312 485 CURVE SMOOTH",
"376 485 OFFCURVE",
"434 456 OFFCURVE",
"467 406 CURVE SMOOTH",
"475 394 OFFCURVE",
"488 393 OFFCURVE",
"498 400 CURVE SMOOTH",
"510 409 OFFCURVE",
"505 425 OFFCURVE",
"499 434 CURVE SMOOTH"
);
}
);
width = 537.627;
}
);
leftKerningGroup = c;
rightKerningGroup = c;
unicode = 0063;
},
{
glyphname = d;
lastChange = "2013-12-18 08:31:27 +0400";
layers = (
{
anchors = (
{
name = center;
position = "{312, 258}";
},
{
name = topright;
position = "{660, 515}";
}
);
layerId = "6A4EEAE7-E2C6-4FA4-83F5-ABDB5FD8E17B";
name = Light;
paths = (
{
closed = 1;
nodes = (
"645 720 LINE SMOOTH",
"647 731 OFFCURVE",
"642 740 OFFCURVE",
"630 740 CURVE SMOOTH",
"618 740 OFFCURVE",
"608 731 OFFCURVE",
"605 720 CURVE",
"534 385 LINE SMOOTH",
"533 381 OFFCURVE",
"530 380 OFFCURVE",
"528 385 CURVE SMOOTH",
"494 468 OFFCURVE",
"417 525 OFFCURVE",
"322 525 CURVE SMOOTH",
"183 525 OFFCURVE",
"57 405 OFFCURVE",
"42 257 CURVE SMOOTH",
"26 110 OFFCURVE",
"126 -10 OFFCURVE",
"265 -10 CURVE SMOOTH",
"342 -10 OFFCURVE",
"415 27 OFFCURVE",
"467 85 CURVE SMOOTH",
"470 88 OFFCURVE",
"473 87 OFFCURVE",
"473 83 CURVE SMOOTH",
"470 29 OFFCURVE",
"488 -10 OFFCURVE",
"539 -10 CURVE SMOOTH",
"561 -10 OFFCURVE",
"581 -1 OFFCURVE",
"594 10 CURVE SMOOTH",
"603 18 OFFCURVE",
"610 30 OFFCURVE",
"602 42 CURVE SMOOTH",
"596 51 OFFCURVE",
"583 51 OFFCURVE",
"574 46 CURVE",
"566 41 OFFCURVE",
"555 30 OFFCURVE",
"539 30 CURVE SMOOTH",
"507 30 OFFCURVE",
"511 86 OFFCURVE",
"527 162 CURVE SMOOTH"
);
},
{
closed = 1;
nodes = (
"154 30 OFFCURVE",
"68 132 OFFCURVE",
"82 257 CURVE SMOOTH",
"95 383 OFFCURVE",
"201 485 OFFCURVE",
"317 485 CURVE SMOOTH",
"433 485 OFFCURVE",
"518 383 OFFCURVE",
"505 257 CURVE SMOOTH",
"491 132 OFFCURVE",
"386 30 OFFCURVE",
"270 30 CURVE SMOOTH"
);
}
);
width = 665.429;
}
);
leftKerningGroup = c;
rightKerningGroup = d;
unicode = 0064;
},
{
glyphname = eth;
lastChange = "2013-12-18 08:31:27 +0400";
layers = (
{
layerId = "6A4EEAE7-E2C6-4FA4-83F5-ABDB5FD8E17B";
name = Light;
paths = (
{
closed = 1;
nodes = (
"488 613 LINE SMOOTH",
"500 617 OFFCURVE",
"506 628 OFFCURVE",
"504 639 CURVE SMOOTH",
"501 650 OFFCURVE",
"491 655 OFFCURVE",
"479 650 CURVE",
"377 612 LINE SMOOTH",
"374 611 OFFCURVE",
"372 612 OFFCURVE",
"370 613 CURVE SMOOTH",
"331 652 OFFCURVE",
"278 682 OFFCURVE",
"207 699 CURVE SMOOTH",
"195 702 OFFCURVE",
"184 696 OFFCURVE",
"180 683 CURVE SMOOTH",
"177 672 OFFCURVE",
"182 663 OFFCURVE",
"193 660 CURVE SMOOTH",
"248 647 OFFCURVE",
"290 626 OFFCURVE",
"323 598 CURVE SMOOTH",
"325 596 OFFCURVE",
"325 593 OFFCURVE",
"321 591 CURVE SMOOTH",
"174 537 LINE SMOOTH",
"163 533 OFFCURVE",
"156 522 OFFCURVE",
"159 511 CURVE SMOOTH",
"161 500 OFFCURVE",
"172 495 OFFCURVE",
"183 500 CURVE",
"353 563 LINE SMOOTH",
"355 564 OFFCURVE",
"357 563 OFFCURVE",
"359 561 CURVE SMOOTH",
"404 506 OFFCURVE",
"424 439 OFFCURVE",
"432 379 CURVE",
"432 374 OFFCURVE",
"428 372 OFFCURVE",
"425 376 CURVE",
"389 417 OFFCURVE",
"336 443 OFFCURVE",
"273 443 CURVE SMOOTH",
"150 443 OFFCURVE",
"39 344 OFFCURVE",
"24 221 CURVE SMOOTH",
"9 99 OFFCURVE",
"96 -1 OFFCURVE",
"219 -1 CURVE SMOOTH",
"342 -1 OFFCURVE",
"454 99 OFFCURVE",
"469 221 CURVE SMOOTH",
"470 230 OFFCURVE",
"507 433 OFFCURVE",
"404 575 CURVE SMOOTH",
"401 578 OFFCURVE",
"402 581 OFFCURVE",
"406 582 CURVE SMOOTH"
);
},
{
closed = 1;
nodes = (
"124 39 OFFCURVE",
"52 121 OFFCURVE",
"64 221 CURVE SMOOTH",
"77 322 OFFCURVE",
"168 403 OFFCURVE",
"269 403 CURVE SMOOTH",
"370 403 OFFCURVE",
"442 321 OFFCURVE",
"429 221 CURVE SMOOTH",
"417 121 OFFCURVE",
"325 39 OFFCURVE",
"224 39 CURVE SMOOTH"
);
}
);
width = 536;
}
);
unicode = 00F0;
},
{
glyphname = dcroat;
lastChange = "2013-12-18 08:31:27 +0400";
layers = (
{
components = (
{
name = d;
transform = "{1, 0, 0, 1, 0, 0}";
}
);
layerId = "6A4EEAE7-E2C6-4FA4-83F5-ABDB5FD8E17B";
name = Light;
paths = (
{
closed = 1;
nodes = (
"690 606 LINE SMOOTH",
"703 606 OFFCURVE",
"710 613 OFFCURVE",
"710 626 CURVE SMOOTH",
"710 627 LINE SMOOTH",
"710 640 OFFCURVE",
"703 647 OFFCURVE",
"690 647 CURVE SMOOTH",
"430 647 LINE SMOOTH",
"417 647 OFFCURVE",
"410 640 OFFCURVE",
"410 627 CURVE SMOOTH",
"410 626 LINE SMOOTH",
"410 613 OFFCURVE",
"417 606 OFFCURVE",
"430 606 CURVE SMOOTH"
);
}
);
width = 686;
}
);
unicode = 0111;
},
{
glyphname = e;
lastChange = "2013-12-18 08:31:27 +0400";
layers = (
{
anchors = (
{
name = bottom;
position = "{218, 0}";
},
{
name = ogonek;
position = "{446, 10}";
},
{
name = top;
position = "{364, 515}";
}
);
layerId = "6A4EEAE7-E2C6-4FA4-83F5-ABDB5FD8E17B";
name = Light;
paths = (
{
closed = 1;
nodes = (
"531 421 OFFCURVE",
"492 525 OFFCURVE",
"331 525 CURVE SMOOTH",
"145 525 OFFCURVE",
"43 372 OFFCURVE",
"40 230 CURVE SMOOTH",
"36 49 OFFCURVE",
"167 -10 OFFCURVE",
"269 -10 CURVE SMOOTH",
"348 -10 OFFCURVE",
"410 18 OFFCURVE",
"454 58 CURVE",
"464 66 OFFCURVE",
"463 79 OFFCURVE",
"454 88 CURVE",
"446 95 OFFCURVE",
"435 95 OFFCURVE",
"426 87 CURVE SMOOTH",
"388 51 OFFCURVE",
"339 30 OFFCURVE",
"269 30 CURVE SMOOTH",
"197 30 OFFCURVE",
"90 81 OFFCURVE",
"86 207 CURVE SMOOTH",
"86 210 OFFCURVE",
"88 212 OFFCURVE",
"91 211 CURVE SMOOTH",
"421 153 OFFCURVE",
"531 277 OFFCURVE",
"531 372 CURVE SMOOTH"
);
},
{
closed = 1;
nodes = (
"460 485 OFFCURVE",
"491 413 OFFCURVE",
"491 372 CURVE SMOOTH",
"491 300 OFFCURVE",
"396 196 OFFCURVE",
"93 252 CURVE SMOOTH",
"90 252 OFFCURVE",
"88 255 OFFCURVE",
"89 258 CURVE SMOOTH",
"108 381 OFFCURVE",
"205 485 OFFCURVE",
"331 485 CURVE SMOOTH"
);
}
);
width = 570;
}
);
leftKerningGroup = c;
rightKerningGroup = e;
unicode = 0065;
},
{
glyphname = f;
lastChange = "2013-12-18 08:31:27 +0400";
layers = (
{
layerId = "6A4EEAE7-E2C6-4FA4-83F5-ABDB5FD8E17B";
name = Light;
paths = (
{
closed = 1;
nodes = (
"311 755 OFFCURVE",
"197 717 OFFCURVE",
"176 615 CURVE SMOOTH",
"155 520 LINE",
"155 517 OFFCURVE",
"152 515 OFFCURVE",
"149 515 CURVE SMOOTH",
"75 515 LINE SMOOTH",
"64 515 OFFCURVE",
"54 507 OFFCURVE",
"51 495 CURVE",
"49 484 OFFCURVE",
"56 475 OFFCURVE",
"67 475 CURVE SMOOTH",
"141 475 LINE SMOOTH",
"144 475 OFFCURVE",
"145 473 OFFCURVE",
"145 470 CURVE",
"51 29 LINE SMOOTH",
"33 -57 OFFCURVE",
"6 -145 OFFCURVE",
"-70 -145 CURVE SMOOTH",
"-83 -145 OFFCURVE",
"-96 -149 OFFCURVE",
"-96 -166 CURVE SMOOTH",
"-96 -181 OFFCURVE",
"-81 -185 OFFCURVE",
"-70 -185 CURVE SMOOTH",
"33 -185 OFFCURVE",
"65 -86 OFFCURVE",
"86 6 CURVE SMOOTH",
"96 50 OFFCURVE",
"142 266 OFFCURVE",
"185 470 CURVE",
"185 473 OFFCURVE",
"188 475 OFFCURVE",
"191 475 CURVE SMOOTH",
"303 475 LINE SMOOTH",
"314 475 OFFCURVE",
"325 483 OFFCURVE",
"327 495 CURVE SMOOTH",
"329 506 OFFCURVE",
"322 515 OFFCURVE",
"311 515 CURVE SMOOTH",
"199 515 LINE SMOOTH",
"196 515 OFFCURVE",
"195 517 OFFCURVE",
"195 520 CURVE",
"216 615 LINE SMOOTH",
"233 695 OFFCURVE",
"308 696 OFFCURVE",
"364 668 CURVE SMOOTH",
"376 662 OFFCURVE",
"390 667 OFFCURVE",
"395 677 CURVE",
"400 688 OFFCURVE",
"396 700 OFFCURVE",
"384 707 CURVE"
);
}
);
width = 317.105;
}
);
leftKerningGroup = f;
rightKerningGroup = f;
unicode = 0066;
},
{
glyphname = g;
lastChange = "2013-12-18 08:31:27 +0400";
layers = (
{
anchors = (
{
name = top;
position = "{366, 515}";
}
);
layerId = "6A4EEAE7-E2C6-4FA4-83F5-ABDB5FD8E17B";
name = Light;
paths = (
{
closed = 1;
nodes = (
"574 515 OFFCURVE",
"564 506 OFFCURVE",
"562 495 CURVE SMOOTH",
"538 384 LINE SMOOTH",
"537 380 OFFCURVE",
"534 379 OFFCURVE",
"532 384 CURVE SMOOTH",
"498 468 OFFCURVE",
"422 525 OFFCURVE",
"326 525 CURVE SMOOTH",
"187 525 OFFCURVE",
"61 405 OFFCURVE",
"46 257 CURVE SMOOTH",
"30 110 OFFCURVE",
"130 -10 OFFCURVE",
"269 -10 CURVE SMOOTH",
"344 -10 OFFCURVE",
"415 25 OFFCURVE",
"468 81 CURVE SMOOTH",
"471 85 OFFCURVE",
"474 83 OFFCURVE",
"473 78 CURVE SMOOTH",
"467 49 LINE SMOOTH",
"440 -77 OFFCURVE",
"344 -162 OFFCURVE",
"218 -162 CURVE SMOOTH",
"151 -162 OFFCURVE",
"96 -137 OFFCURVE",
"77 -126 CURVE SMOOTH",
"66 -120 OFFCURVE",
"53 -123 OFFCURVE",
"47 -132 CURVE SMOOTH",
"39 -144 OFFCURVE",
"45 -156 OFFCURVE",
"54 -162 CURVE SMOOTH",
"81 -180 OFFCURVE",
"136 -200 OFFCURVE",
"208 -200 CURVE SMOOTH",
"353 -200 OFFCURVE",
"474 -105 OFFCURVE",
"507 49 CURVE SMOOTH",
"602 495 LINE SMOOTH",
"604 506 OFFCURVE",
"598 515 OFFCURVE",
"586 515 CURVE SMOOTH"
);
},
{
closed = 1;
nodes = (
"158 30 OFFCURVE",
"72 132 OFFCURVE",
"86 257 CURVE SMOOTH",
"99 383 OFFCURVE",
"205 485 OFFCURVE",
"321 485 CURVE SMOOTH",
"437 485 OFFCURVE",
"522 383 OFFCURVE",
"509 257 CURVE SMOOTH",
"495 132 OFFCURVE",
"390 30 OFFCURVE",
"274 30 CURVE SMOOTH"
);
}
);
width = 631.249;
}
);
leftKerningGroup = g;
rightKerningGroup = g;
unicode = 0067;
},
{
glyphname = gcommaaccent;
lastChange = "2013-12-18 08:31:27 +0400";
layers = (
{
components = (
{
name = g;
transform = "{1, 0, 0, 1, 0, 0}";
}
);
layerId = "6A4EEAE7-E2C6-4FA4-83F5-ABDB5FD8E17B";
name = Light;
paths = (
{
closed = 1;
nodes = (
"459 787 OFFCURVE",
"445 788 OFFCURVE",
"429 780 CURVE SMOOTH",
"384 757 OFFCURVE",
"361 726 OFFCURVE",
"350 674 CURVE SMOOTH",
"341 631 LINE SMOOTH",
"337 613 OFFCURVE",
"347 600 OFFCURVE",
"365 600 CURVE SMOOTH",
"369 600 LINE SMOOTH",
"387 600 OFFCURVE",
"403 613 OFFCURVE",
"407 631 CURVE SMOOTH",
"412 654 LINE SMOOTH",
"416 672 OFFCURVE",
"407 685 OFFCURVE",
"391 685 CURVE",
"396 715 OFFCURVE",
"409 735 OFFCURVE",
"438 753 CURVE SMOOTH",
"454 762 OFFCURVE",
"464 772 OFFCURVE",
"462 780 CURVE SMOOTH"
);
}
);
width = 570;
}
);
unicode = 0123;
},
{
glyphname = h;
lastChange = "2013-12-18 08:31:27 +0400";
layers = (
{
anchors = (
{
name = center;
position = "{260, 258}";
},
{
name = top;
position = "{315, 515}";
}
);
layerId = "6A4EEAE7-E2C6-4FA4-83F5-ABDB5FD8E17B";
name = Light;
paths = (
{
closed = 1;
nodes = (
"501 51 OFFCURVE",
"488 51 OFFCURVE",
"479 46 CURVE",
"471 41 OFFCURVE",
"460 30 OFFCURVE",
"444 30 CURVE SMOOTH",
"397 30 OFFCURVE",
"415 88 OFFCURVE",
"433 165 CURVE SMOOTH",
"473 332 LINE SMOOTH",
"499 438 OFFCURVE",
"458 525 OFFCURVE",
"341 525 CURVE SMOOTH",
"262 525 OFFCURVE",
"182 478 OFFCURVE",
"156 442 CURVE",
"153 437 OFFCURVE",
"150 440 OFFCURVE",
"151 444 CURVE",
"208 720 LINE",
"211 731 OFFCURVE",
"202 740 OFFCURVE",
"190 740 CURVE SMOOTH",
"179 740 OFFCURVE",
"171 734 OFFCURVE",
"168 720 CURVE",
"21 24 LINE SMOOTH",
"19 13 OFFCURVE",
"23 0 OFFCURVE",
"39 0 CURVE SMOOTH",
"51 0 OFFCURVE",
"57 7 OFFCURVE",
"60 20 CURVE SMOOTH",
"127 332 LINE SMOOTH",
"145 416 OFFCURVE",
"240 485 OFFCURVE",
"324 485 CURVE SMOOTH",
"419 485 OFFCURVE",
"454 418 OFFCURVE",
"433 332 CURVE SMOOTH",
"395 177 LINE SMOOTH",
"372 83 OFFCURVE",
"353 -10 OFFCURVE",
"444 -10 CURVE SMOOTH",
"466 -10 OFFCURVE",
"486 -1 OFFCURVE",
"499 10 CURVE SMOOTH",
"508 18 OFFCURVE",
"515 30 OFFCURVE",
"507 42 CURVE SMOOTH"
);
}
);
width = 550.317;
}
);
leftKerningGroup = b;
rightKerningGroup = h;
unicode = 0068;
},
{
glyphname = hbar;
lastChange = "2013-12-18 08:31:27 +0400";
layers = (
{
anchors = (
{
name = center;
position = "{260, 258}";
},
{
name = top;
position = "{315, 515}";
}
);
layerId = "6A4EEAE7-E2C6-4FA4-83F5-ABDB5FD8E17B";
name = Light;
paths = (
{
closed = 1;
nodes = (
"501 51 OFFCURVE",
"488 51 OFFCURVE",
"479 46 CURVE",
"471 41 OFFCURVE",
"460 30 OFFCURVE",
"444 30 CURVE SMOOTH",
"397 30 OFFCURVE",
"415 88 OFFCURVE",
"433 165 CURVE SMOOTH",
"473 332 LINE SMOOTH",
"499 438 OFFCURVE",
"458 525 OFFCURVE",
"341 525 CURVE SMOOTH",
"262 525 OFFCURVE",
"182 478 OFFCURVE",
"156 442 CURVE",
"153 437 OFFCURVE",
"150 440 OFFCURVE",
"151 444 CURVE",
"183 601 LINE SMOOTH",
"184 604 OFFCURVE",
"186 605 OFFCURVE",
"189 605 CURVE SMOOTH",
"353 605 LINE SMOOTH",
"364 605 OFFCURVE",
"373 613 OFFCURVE",
"373 625 CURVE SMOOTH",
"373 636 OFFCURVE",
"364 645 OFFCURVE",
"353 645 CURVE SMOOTH",
"198 645 LINE SMOOTH",
"195 645 OFFCURVE",
"193 647 OFFCURVE",
"194 650 CURVE SMOOTH",
"208 720 LINE",
"211 731 OFFCURVE",
"202 740 OFFCURVE",
"190 740 CURVE SMOOTH",
"179 740 OFFCURVE",
"171 734 OFFCURVE",
"168 720 CURVE SMOOTH",
"153 649 LINE SMOOTH",
"152 646 OFFCURVE",
"151 645 OFFCURVE",
"148 645 CURVE SMOOTH",
"70 645 LINE SMOOTH",
"59 645 OFFCURVE",
"50 637 OFFCURVE",
"50 625 CURVE SMOOTH",
"50 614 OFFCURVE",
"59 605 OFFCURVE",
"70 605 CURVE SMOOTH",
"138 605 LINE SMOOTH",
"142 605 OFFCURVE",
"143 603 OFFCURVE",
"143 600 CURVE SMOOTH",
"21 24 LINE SMOOTH",
"19 13 OFFCURVE",
"23 0 OFFCURVE",
"39 0 CURVE SMOOTH",
"51 0 OFFCURVE",
"57 7 OFFCURVE",
"60 20 CURVE SMOOTH",
"127 332 LINE SMOOTH",
"145 416 OFFCURVE",
"240 485 OFFCURVE",
"324 485 CURVE SMOOTH",
"419 485 OFFCURVE",
"454 418 OFFCURVE",
"433 332 CURVE SMOOTH",
"395 177 LINE SMOOTH",
"372 83 OFFCURVE",
"353 -10 OFFCURVE",
"444 -10 CURVE SMOOTH",
"466 -10 OFFCURVE",
"486 -1 OFFCURVE",
"499 10 CURVE SMOOTH",
"508 18 OFFCURVE",
"515 30 OFFCURVE",
"507 42 CURVE SMOOTH"
);
}
);
width = 588;
}
);
unicode = 0127;
},
{
glyphname = i;
lastChange = "2013-12-18 08:31:27 +0400";
layers = (
{
components = (
{
name = dotlessi;
transform = "{1, 0, 0, 1, 0, 0}";
}
);
layerId = "6A4EEAE7-E2C6-4FA4-83F5-ABDB5FD8E17B";
name = Light;
paths = (
{
closed = 1;
nodes = (
"175 720 OFFCURVE",
"164 711 OFFCURVE",
"161 700 CURVE",
"147 631 LINE",
"144 620 OFFCURVE",
"150 611 OFFCURVE",
"162 611 CURVE SMOOTH",
"173 611 OFFCURVE",
"184 620 OFFCURVE",
"187 631 CURVE",
"201 700 LINE",
"204 711 OFFCURVE",
"198 720 OFFCURVE",
"186 720 CURVE SMOOTH"
);
}
);
width = 221.765;
}
);
leftKerningGroup = i;
rightKerningGroup = i;
unicode = 0069;
},
{
glyphname = dotlessi;
lastChange = "2013-12-18 08:31:27 +0400";
layers = (
{
layerId = "6A4EEAE7-E2C6-4FA4-83F5-ABDB5FD8E17B";
name = Light;
paths = (
{
closed = 1;
nodes = (
"131 41 OFFCURVE",
"120 30 OFFCURVE",
"104 30 CURVE SMOOTH",
"72 30 OFFCURVE",
"76 86 OFFCURVE",
"92 162 CURVE SMOOTH",
"163 495 LINE SMOOTH",
"165 506 OFFCURVE",
"159 515 OFFCURVE",
"147 515 CURVE SMOOTH",
"136 515 OFFCURVE",
"125 506 OFFCURVE",
"123 495 CURVE SMOOTH",
"54 173 LINE SMOOTH",
"33 74 OFFCURVE",
"28 -10 OFFCURVE",
"104 -10 CURVE SMOOTH",
"126 -10 OFFCURVE",
"146 -1 OFFCURVE",
"159 10 CURVE SMOOTH",
"168 18 OFFCURVE",
"175 30 OFFCURVE",
"167 42 CURVE SMOOTH",
"161 51 OFFCURVE",
"148 51 OFFCURVE",
"139 46 CURVE"
);
}
);
width = 221.765;
}
);
unicode = 0131;
},
{
glyphname = j;
lastChange = "2013-12-18 08:31:27 +0400";
layers = (
{
components = (
{
name = dotlessj;
transform = "{1, 0, 0, 1, 0, 0}";
}
);
layerId = "6A4EEAE7-E2C6-4FA4-83F5-ABDB5FD8E17B";
name = Light;
paths = (
{
closed = 1;
nodes = (
"234 700 LINE SMOOTH",
"237 711 OFFCURVE",
"231 720 OFFCURVE",
"219 720 CURVE SMOOTH",
"208 720 OFFCURVE",
"197 711 OFFCURVE",
"194 700 CURVE SMOOTH",
"180 631 LINE SMOOTH",
"177 620 OFFCURVE",
"183 611 OFFCURVE",
"195 611 CURVE SMOOTH",
"206 611 OFFCURVE",
"217 620 OFFCURVE",
"220 631 CURVE SMOOTH"
);
}
);
width = 224.37;
}
);
leftKerningGroup = j;
rightKerningGroup = j;
unicode = 006A;
},
{
glyphname = dotlessj;
lastChange = "2013-12-18 08:31:27 +0400";
layers = (
{
layerId = "6A4EEAE7-E2C6-4FA4-83F5-ABDB5FD8E17B";
name = Light;
paths = (
{
closed = 1;
nodes = (
"-26 -190 OFFCURVE",
"55 -145 OFFCURVE",
"73 -58 CURVE SMOOTH",
"191 495 LINE SMOOTH",
"193 506 OFFCURVE",
"187 515 OFFCURVE",
"175 515 CURVE SMOOTH",
"163 515 OFFCURVE",
"153 506 OFFCURVE",
"151 495 CURVE SMOOTH",
"33 -58 LINE SMOOTH",
"19 -124 OFFCURVE",
"-41 -152 OFFCURVE",
"-86 -159 CURVE SMOOTH",
"-96 -160 OFFCURVE",
"-106 -168 OFFCURVE",
"-108 -178 CURVE SMOOTH",
"-109 -180 LINE SMOOTH",
"-111 -191 OFFCURVE",
"-104 -200 OFFCURVE",
"-91 -198 CURVE SMOOTH"
);
}
);
width = 224.37;
}
);
unicode = 0237;
},
{
glyphname = k;
lastChange = "2013-12-18 08:31:27 +0400";
layers = (
{
anchors = (
{
name = bottom;
position = "{176, 0}";
}
);
layerId = "6A4EEAE7-E2C6-4FA4-83F5-ABDB5FD8E17B";
name = Light;
paths = (
{
closed = 1;
nodes = (
"233 278 LINE SMOOTH",
"232 280 OFFCURVE",
"233 283 OFFCURVE",
"235 285 CURVE SMOOTH",
"498 485 LINE SMOOTH",
"509 493 OFFCURVE",
"513 505 OFFCURVE",
"507 514 CURVE",
"500 522 OFFCURVE",
"489 523 OFFCURVE",
"479 515 CURVE",
"112 239 LINE SMOOTH",
"109 236 OFFCURVE",
"106 237 OFFCURVE",
"107 241 CURVE SMOOTH",
"208 720 LINE SMOOTH",
"211 731 OFFCURVE",
"205 740 OFFCURVE",
"193 740 CURVE SMOOTH",
"181 740 OFFCURVE",
"171 731 OFFCURVE",
"168 720 CURVE SMOOTH",
"20 20 LINE SMOOTH",
"17 9 OFFCURVE",
"23 0 OFFCURVE",
"35 0 CURVE SMOOTH",
"47 0 OFFCURVE",
"57 9 OFFCURVE",
"60 20 CURVE SMOOTH",
"93 177 LINE SMOOTH",
"93 179 OFFCURVE",
"95 181 OFFCURVE",
"97 183 CURVE SMOOTH",
"191 252 LINE SMOOTH",
"193 254 OFFCURVE",
"196 254 OFFCURVE",
"198 251 CURVE SMOOTH",
"375 7 LINE SMOOTH",
"381 -1 OFFCURVE",
"392 -2 OFFCURVE",
"401 5 CURVE",
"404 6 LINE",
"413 13 OFFCURVE",
"416 27 OFFCURVE",
"410 35 CURVE SMOOTH"
);
}
);
width = 486.787;
}
);
leftKerningGroup = b;
rightKerningGroup = k;
unicode = 006B;
},
{
glyphname = l;
lastChange = "2013-12-18 08:31:27 +0400";
layers = (
{
anchors = (
{
name = top;
position = "{146, 515}";
},
{
name = topright;
position = "{227, 515}";
}
);
layerId = "6A4EEAE7-E2C6-4FA4-83F5-ABDB5FD8E17B";
name = Light;
paths = (
{
closed = 1;
nodes = (
"209 720 LINE SMOOTH",
"211 731 OFFCURVE",
"206 740 OFFCURVE",
"194 740 CURVE SMOOTH",
"183 740 OFFCURVE",
"171 731 OFFCURVE",
"169 720 CURVE SMOOTH",
"55 183 LINE",
"32 77 OFFCURVE",
"29 0 OFFCURVE",
"105 0 CURVE SMOOTH",
"127 0 OFFCURVE",
"147 9 OFFCURVE",
"160 20 CURVE SMOOTH",
"169 28 OFFCURVE",
"176 40 OFFCURVE",
"168 52 CURVE SMOOTH",
"162 61 OFFCURVE",
"149 61 OFFCURVE",
"140 56 CURVE",
"132 51 OFFCURVE",
"121 40 OFFCURVE",
"105 40 CURVE SMOOTH",
"75 40 OFFCURVE",
"77 96 OFFCURVE",
"93 172 CURVE SMOOTH"
);
}
);
width = 229.428;
}
);
leftKerningGroup = b;
rightKerningGroup = l;
unicode = 006C;
},
{
glyphname = lslash;
lastChange = "2013-12-18 08:31:27 +0400";
layers = (
{
components = (
{
name = l;
transform = "{1, 0, 0, 1, 128, 0}";
}
);
layerId = "6A4EEAE7-E2C6-4FA4-83F5-ABDB5FD8E17B";
name = Light;
paths = (
{
closed = 1;
nodes = (
"103 354 LINE SMOOTH",
"91 349 OFFCURVE",
"88 340 OFFCURVE",
"93 328 CURVE SMOOTH",
"98 316 OFFCURVE",
"107 313 OFFCURVE",
"119 318 CURVE SMOOTH",
"452 464 LINE SMOOTH",
"464 469 OFFCURVE",
"467 478 OFFCURVE",
"462 490 CURVE SMOOTH",
"457 502 OFFCURVE",
"448 505 OFFCURVE",
"436 500 CURVE SMOOTH"
);
}
);
width = 393;
}
);
unicode = 0142;
},
{
glyphname = m;
lastChange = "2013-12-18 08:31:27 +0400";
layers = (
{
layerId = "6A4EEAE7-E2C6-4FA4-83F5-ABDB5FD8E17B";
name = Light;
paths = (
{
closed = 1;
nodes = (
"874 51 OFFCURVE",
"861 51 OFFCURVE",
"852 46 CURVE",
"844 41 OFFCURVE",
"833 30 OFFCURVE",
"817 30 CURVE SMOOTH",
"770 30 OFFCURVE",
"788 88 OFFCURVE",
"806 165 CURVE SMOOTH",
"846 332 LINE SMOOTH",
"872 438 OFFCURVE",
"831 525 OFFCURVE",
"714 525 CURVE SMOOTH",
"636 525 OFFCURVE",
"538 466 OFFCURVE",
"508 420 CURVE",
"497 482 OFFCURVE",
"450 525 OFFCURVE",
"368 525 CURVE SMOOTH",
"289 525 OFFCURVE",
"209 478 OFFCURVE",
"183 442 CURVE",
"180 437 OFFCURVE",
"177 440 OFFCURVE",
"178 444 CURVE",
"178 490 OFFCURVE",
"160 525 OFFCURVE",
"106 525 CURVE SMOOTH",
"84 525 OFFCURVE",
"64 516 OFFCURVE",
"51 505 CURVE SMOOTH",
"42 497 OFFCURVE",
"35 485 OFFCURVE",
"43 473 CURVE SMOOTH",
"49 464 OFFCURVE",
"62 464 OFFCURVE",
"71 469 CURVE",
"79 474 OFFCURVE",
"90 485 OFFCURVE",
"106 485 CURVE SMOOTH",
"149 485 OFFCURVE",
"133 428 OFFCURVE",
"117 350 CURVE SMOOTH",
"48 24 LINE SMOOTH",
"46 13 OFFCURVE",
"50 0 OFFCURVE",
"66 0 CURVE SMOOTH",
"78 0 OFFCURVE",
"84 7 OFFCURVE",
"87 20 CURVE SMOOTH",
"155 337 LINE SMOOTH",
"171 412 OFFCURVE",
"274 485 OFFCURVE",
"351 485 CURVE SMOOTH",
"445 485 OFFCURVE",
"480 420 OFFCURVE",
"461 334 CURVE",
"394 24 LINE SMOOTH",
"392 13 OFFCURVE",
"396 0 OFFCURVE",
"412 0 CURVE SMOOTH",
"424 0 OFFCURVE",
"430 7 OFFCURVE",
"433 20 CURVE SMOOTH",
"500 331 LINE SMOOTH",
"517 409 OFFCURVE",
"620 485 OFFCURVE",
"697 485 CURVE SMOOTH",
"792 485 OFFCURVE",
"827 418 OFFCURVE",
"806 332 CURVE SMOOTH",
"768 177 LINE SMOOTH",
"745 83 OFFCURVE",
"726 -10 OFFCURVE",
"817 -10 CURVE SMOOTH",
"839 -10 OFFCURVE",
"859 -1 OFFCURVE",
"872 10 CURVE SMOOTH",
"881 18 OFFCURVE",
"888 30 OFFCURVE",
"880 42 CURVE SMOOTH"
);
}
);
width = 923.503;
}
);
leftKerningGroup = m;
rightKerningGroup = h;
unicode = 006D;
},
{
glyphname = n;
lastChange = "2013-12-18 08:31:27 +0400";
layers = (
{
anchors = (
{
name = bottom;
position = "{234, 0}";
},
{
name = top;
position = "{344, 515}";
}
);
layerId = "6A4EEAE7-E2C6-4FA4-83F5-ABDB5FD8E17B";
name = Light;
paths = (
{
closed = 1;
nodes = (
"529 51 OFFCURVE",
"516 51 OFFCURVE",
"507 46 CURVE",
"499 41 OFFCURVE",
"488 30 OFFCURVE",
"472 30 CURVE SMOOTH",
"425 30 OFFCURVE",
"443 88 OFFCURVE",
"461 165 CURVE SMOOTH",
"501 332 LINE SMOOTH",
"527 438 OFFCURVE",
"486 525 OFFCURVE",
"369 525 CURVE SMOOTH",
"290 525 OFFCURVE",
"210 478 OFFCURVE",
"184 442 CURVE",
"181 437 OFFCURVE",
"178 440 OFFCURVE",
"179 444 CURVE",
"180 490 OFFCURVE",
"161 525 OFFCURVE",
"107 525 CURVE SMOOTH",
"85 525 OFFCURVE",
"65 516 OFFCURVE",
"52 505 CURVE SMOOTH",
"43 497 OFFCURVE",
"36 485 OFFCURVE",
"44 473 CURVE SMOOTH",
"50 464 OFFCURVE",
"63 464 OFFCURVE",
"72 469 CURVE",
"80 474 OFFCURVE",
"91 485 OFFCURVE",
"107 485 CURVE SMOOTH",
"150 485 OFFCURVE",
"134 428 OFFCURVE",
"118 350 CURVE SMOOTH",
"49 24 LINE SMOOTH",
"47 13 OFFCURVE",
"51 0 OFFCURVE",
"67 0 CURVE SMOOTH",
"79 0 OFFCURVE",
"85 7 OFFCURVE",
"88 20 CURVE SMOOTH",
"154 326 LINE SMOOTH",
"172 411 OFFCURVE",
"263 485 OFFCURVE",
"352 485 CURVE SMOOTH",
"447 485 OFFCURVE",
"482 418 OFFCURVE",
"461 332 CURVE SMOOTH",
"423 177 LINE SMOOTH",
"400 83 OFFCURVE",
"381 -10 OFFCURVE",
"472 -10 CURVE SMOOTH",
"494 -10 OFFCURVE",
"514 -1 OFFCURVE",
"527 10 CURVE SMOOTH",
"536 18 OFFCURVE",
"543 30 OFFCURVE",
"535 42 CURVE SMOOTH"
);
}
);
width = 588.503;
}
);
leftKerningGroup = m;
rightKerningGroup = h;
unicode = 006E;
},
{
glyphname = eng;
lastChange = "2013-12-18 08:31:27 +0400";
layers = (
{
components = (
{
name = n;
transform = "{1, 0, 0, 1, 0, 0}";
}
);
layerId = "6A4EEAE7-E2C6-4FA4-83F5-ABDB5FD8E17B";
name = Light;
paths = (
{
closed = 1;
nodes = (
"346 -200 OFFCURVE",
"397 -123 OFFCURVE",
"413 -44 CURVE SMOOTH",
"420 -13 OFFCURVE",
"449 112 OFFCURVE",
"455 141 CURVE",
"415 141 LINE",
"409 112 OFFCURVE",
"380 -13 OFFCURVE",
"373 -44 CURVE SMOOTH",
"359 -111 OFFCURVE",
"328 -160 OFFCURVE",
"213 -160 CURVE SMOOTH",
"201 -160 OFFCURVE",
"190 -168 OFFCURVE",
"188 -180 CURVE SMOOTH",
"185 -192 OFFCURVE",
"192 -200 OFFCURVE",
"205 -200 CURVE SMOOTH"
);
}
);
width = 494;
}
);
unicode = 014B;
},
{
glyphname = o;
lastChange = "2013-12-18 08:31:27 +0400";
layers = (
{
anchors = (
{
name = top;
position = "{348, 515}";
}
);
layerId = "6A4EEAE7-E2C6-4FA4-83F5-ABDB5FD8E17B";
name = Light;
paths = (
{
closed = 1;
nodes = (
"491 132 OFFCURVE",
"386 30 OFFCURVE",
"270 30 CURVE",
"154 30 OFFCURVE",
"68 132 OFFCURVE",
"82 257 CURVE",
"95 383 OFFCURVE",
"201 485 OFFCURVE",
"317 485 CURVE",
"433 485 OFFCURVE",
"518 383 OFFCURVE",
"505 257 CURVE"
);
},
{
closed = 1;
nodes = (
"560 405 OFFCURVE",
"461 525 OFFCURVE",
"322 525 CURVE",
"183 525 OFFCURVE",
"57 405 OFFCURVE",
"42 257 CURVE",
"26 110 OFFCURVE",
"126 -10 OFFCURVE",
"265 -10 CURVE",
"404 -10 OFFCURVE",
"529 110 OFFCURVE",
"545 257 CURVE"
);
}
);
width = 586.502;
}
);
leftKerningGroup = c;
rightKerningGroup = b;
unicode = 006F;
},
{
glyphname = oslash;
lastChange = "2013-12-18 08:31:27 +0400";
layers = (
{
anchors = (
{
name = top;
position = "{269, 515}";
}
);
layerId = "6A4EEAE7-E2C6-4FA4-83F5-ABDB5FD8E17B";
name = Light;
paths = (
{
closed = 1;
nodes = (
"507 505 LINE SMOOTH",
"515 514 OFFCURVE",
"514 526 OFFCURVE",
"505 534 CURVE",
"496 541 OFFCURVE",
"484 540 OFFCURVE",
"477 531 CURVE",
"427 472 LINE SMOOTH",
"425 470 OFFCURVE",
"422 470 OFFCURVE",
"420 472 CURVE SMOOTH",
"378 505 OFFCURVE",
"326 525 OFFCURVE",
"269 525 CURVE SMOOTH",
"130 525 OFFCURVE",
"17 405 OFFCURVE",
"17 257 CURVE SMOOTH",
"17 188 OFFCURVE",
"42 125 OFFCURVE",
"82 77 CURVE SMOOTH",
"84 75 OFFCURVE",
"84 73 OFFCURVE",
"82 70 CURVE SMOOTH",
"30 9 LINE SMOOTH",
"22 0 OFFCURVE",
"23 -12 OFFCURVE",
"32 -20 CURVE",
"41 -27 OFFCURVE",
"53 -26 OFFCURVE",
"60 -17 CURVE",
"111 42 LINE SMOOTH",
"113 45 OFFCURVE",
"115 45 OFFCURVE",
"118 43 CURVE SMOOTH",
"160 9 OFFCURVE",
"212 -11 OFFCURVE",
"269 -11 CURVE SMOOTH",
"408 -11 OFFCURVE",
"520 110 OFFCURVE",
"520 257 CURVE SMOOTH",
"520 326 OFFCURVE",
"495 390 OFFCURVE",
"455 437 CURVE SMOOTH",
"453 440 OFFCURVE",
"453 442 OFFCURVE",
"455 444 CURVE SMOOTH"
);
},
{
closed = 1;
nodes = (
"57 383 OFFCURVE",
"153 485 OFFCURVE",
"269 485 CURVE SMOOTH",
"315 485 OFFCURVE",
"358 469 OFFCURVE",
"393 441 CURVE SMOOTH",
"396 439 OFFCURVE",
"396 437 OFFCURVE",
"394 434 CURVE SMOOTH",
"116 109 LINE SMOOTH",
"113 106 OFFCURVE",
"111 106 OFFCURVE",
"109 109 CURVE SMOOTH",
"77 149 OFFCURVE",
"57 201 OFFCURVE",
"57 257 CURVE SMOOTH"
);
},
{
closed = 1;
nodes = (
"223 30 OFFCURVE",
"179 46 OFFCURVE",
"144 74 CURVE SMOOTH",
"142 76 OFFCURVE",
"142 78 OFFCURVE",
"144 81 CURVE SMOOTH",
"422 406 LINE SMOOTH",
"424 408 OFFCURVE",
"427 408 OFFCURVE",
"429 406 CURVE SMOOTH",
"461 366 OFFCURVE",
"480 314 OFFCURVE",
"480 257 CURVE SMOOTH",
"480 132 OFFCURVE",
"385 29.9999 OFFCURVE",
"269 29.9999 CURVE SMOOTH"
);
}
);
width = 591;
}
);
unicode = 00F8;
},
{
glyphname = p;
lastChange = "2013-12-18 08:31:27 +0400";
layers = (
{
layerId = "6A4EEAE7-E2C6-4FA4-83F5-ABDB5FD8E17B";
name = Light;
paths = (
{
closed = 1;
nodes = (
"21 -180 LINE SMOOTH",
"19 -191 OFFCURVE",
"24 -200 OFFCURVE",
"36 -200 CURVE SMOOTH",
"48 -200 OFFCURVE",
"58 -191 OFFCURVE",
"61 -180 CURVE",
"127 130 LINE SMOOTH",
"128 134 OFFCURVE",
"131 135 OFFCURVE",
"133 130 CURVE SMOOTH",
"167 47 OFFCURVE",
"244 -10 OFFCURVE",
"339 -10 CURVE SMOOTH",
"478 -10 OFFCURVE",
"604 110 OFFCURVE",
"619 258 CURVE SMOOTH",
"635 405 OFFCURVE",
"535 525 OFFCURVE",
"396 525 CURVE SMOOTH",
"319 525 OFFCURVE",
"246 488 OFFCURVE",
"194 430 CURVE SMOOTH",
"191 427 OFFCURVE",
"188 428 OFFCURVE",
"188 432 CURVE SMOOTH",
"191 486 OFFCURVE",
"173 525 OFFCURVE",
"122 525 CURVE SMOOTH",
"100 525 OFFCURVE",
"80 516 OFFCURVE",
"67 505 CURVE SMOOTH",
"58 497 OFFCURVE",
"51 485 OFFCURVE",
"59 473 CURVE SMOOTH",
"65 464 OFFCURVE",
"78 464 OFFCURVE",
"87 469 CURVE",
"95 474 OFFCURVE",
"106 485 OFFCURVE",
"122 485 CURVE SMOOTH",
"154 485 OFFCURVE",
"150 429 OFFCURVE",
"134 353 CURVE SMOOTH"
);
},
{
closed = 1;
nodes = (
"507 485 OFFCURVE",
"593 383 OFFCURVE",
"579 258 CURVE SMOOTH",
"566 132 OFFCURVE",
"460 30 OFFCURVE",
"344 30 CURVE SMOOTH",
"228 30 OFFCURVE",
"143 132 OFFCURVE",
"156 258 CURVE SMOOTH",
"170 383 OFFCURVE",
"275 485 OFFCURVE",
"391 485 CURVE SMOOTH"
);
}
);
width = 663.253;
}
);
leftKerningGroup = p;
rightKerningGroup = b;
unicode = 0070;
},
{
glyphname = thorn;
lastChange = "2013-12-18 08:31:27 +0400";
layers = (
{
layerId = "6A4EEAE7-E2C6-4FA4-83F5-ABDB5FD8E17B";
name = Light;
paths = (
{
closed = 1;
nodes = (
"152 720 LINE SMOOTH",
"155 731 OFFCURVE",
"149 740 OFFCURVE",
"137 740 CURVE SMOOTH",
"126 740 OFFCURVE",
"115 731 OFFCURVE",
"112 720 CURVE SMOOTH",
"-36 20 LINE SMOOTH",
"-39 9 OFFCURVE",
"-33 0 OFFCURVE",
"-21 0 CURVE SMOOTH",
"-10 0 OFFCURVE",
"1 9 OFFCURVE",
"4 20 CURVE SMOOTH",
"46 220 LINE SMOOTH",
"47 224 OFFCURVE",
"50 225 OFFCURVE",
"52 221 CURVE SMOOTH",
"82 160 OFFCURVE",
"142 120 OFFCURVE",
"220 120 CURVE SMOOTH",
"350 120 OFFCURVE",
"479 232 OFFCURVE",
"508 370 CURVE SMOOTH",
"537 508 OFFCURVE",
"456 620 OFFCURVE",
"326 620 CURVE SMOOTH",
"248 620 OFFCURVE",
"172 580 OFFCURVE",
"116 519 CURVE SMOOTH",
"112 515 OFFCURVE",
"109 516 OFFCURVE",
"110 520 CURVE SMOOTH"
);
},
{
closed = 1;
nodes = (
"121 160 OFFCURVE",
"53 254 OFFCURVE",
"78 370 CURVE SMOOTH",
"103 486 OFFCURVE",
"211 580 OFFCURVE",
"318 580 CURVE SMOOTH",
"425 580 OFFCURVE",
"493 486 OFFCURVE",
"468 370 CURVE SMOOTH",
"443 254 OFFCURVE",
"335 160 OFFCURVE",
"228 160 CURVE SMOOTH"
);
}
);
width = 558;
}
);
unicode = 00FE;
},
{
glyphname = q;
lastChange = "2013-12-18 08:31:27 +0400";
layers = (
{
layerId = "6A4EEAE7-E2C6-4FA4-83F5-ABDB5FD8E17B";
name = Light;
paths = (
{
closed = 1;
nodes = (
"342 -10 OFFCURVE",
"414 25 OFFCURVE",
"466 82 CURVE SMOOTH",
"469 86 OFFCURVE",
"473 84 OFFCURVE",
"472 79 CURVE SMOOTH",
"417 -180 LINE",
"414 -191 OFFCURVE",
"420 -200 OFFCURVE",
"432 -200 CURVE SMOOTH",
"444 -200 OFFCURVE",
"454 -191 OFFCURVE",
"457 -180 CURVE",
"599 495 LINE",
"602 506 OFFCURVE",
"595 515 OFFCURVE",
"584 515 CURVE SMOOTH",
"572 515 OFFCURVE",
"562 506 OFFCURVE",
"559 495 CURVE",
"536 385 LINE SMOOTH",
"534 380 OFFCURVE",
"531 380 OFFCURVE",
"529 384 CURVE SMOOTH",
"496 468 OFFCURVE",
"419 525 OFFCURVE",
"323 525 CURVE SMOOTH",
"184 525 OFFCURVE",
"59 405 OFFCURVE",
"43 258 CURVE SMOOTH",
"28 110 OFFCURVE",
"127 -10 OFFCURVE",
"266 -10 CURVE SMOOTH"
);
},
{
closed = 1;
nodes = (
"97 383 OFFCURVE",
"202 485 OFFCURVE",
"318 485 CURVE SMOOTH",
"434 485 OFFCURVE",
"520 383 OFFCURVE",
"506 258 CURVE SMOOTH",
"493 132 OFFCURVE",
"387 30 OFFCURVE",
"271 30 CURVE SMOOTH",
"155 30 OFFCURVE",
"70 132 OFFCURVE",
"83 258 CURVE SMOOTH"
);
}
);
width = 630.697;
}
);
leftKerningGroup = c;
rightKerningGroup = q;
unicode = 0071;
},
{
glyphname = r;
lastChange = "2013-12-18 08:31:27 +0400";
layers = (
{
anchors = (
{
name = bottom;
position = "{124, 0}";
},
{
name = top;
position = "{234, 515}";
}
);
layerId = "6A4EEAE7-E2C6-4FA4-83F5-ABDB5FD8E17B";
name = Light;
paths = (
{
closed = 1;
nodes = (
"290 519 OFFCURVE",
"208 444 OFFCURVE",
"149 375 CURVE",
"145 371 OFFCURVE",
"142 372 OFFCURVE",
"143 377 CURVE",
"158 462 OFFCURVE",
"161 524 OFFCURVE",
"86 524 CURVE SMOOTH",
"64 524 OFFCURVE",
"44 515 OFFCURVE",
"31 504 CURVE SMOOTH",
"22 496 OFFCURVE",
"15 484 OFFCURVE",
"23 472 CURVE SMOOTH",
"29 463 OFFCURVE",
"42 463 OFFCURVE",
"51 468 CURVE",
"59 473 OFFCURVE",
"70 484 OFFCURVE",
"86 484 CURVE SMOOTH",
"128 484 OFFCURVE",
"108 415 OFFCURVE",
"97 349 CURVE",
"28 24 LINE",
"26 10 OFFCURVE",
"33 0 OFFCURVE",
"45 0 CURVE SMOOTH",
"57 0 OFFCURVE",
"64 7 OFFCURVE",
"67 20 CURVE SMOOTH",
"116 249 LINE SMOOTH",
"136 344 OFFCURVE",
"265 466 OFFCURVE",
"381 481 CURVE SMOOTH",
"396 483 OFFCURVE",
"405 491 OFFCURVE",
"405 504 CURVE SMOOTH",
"405 517 OFFCURVE",
"394 526 OFFCURVE",
"379 525 CURVE SMOOTH"
);
}
);
width = 415.232;
}
);
leftKerningGroup = m;
rightKerningGroup = r;
unicode = 0072;
},
{
glyphname = s;
lastChange = "2013-12-18 08:31:27 +0400";
layers = (
{
anchors = (
{
name = bottom;
position = "{164, 0}";
}
);
layerId = "6A4EEAE7-E2C6-4FA4-83F5-ABDB5FD8E17B";
name = Light;
paths = (
{
closed = 1;
nodes = (
"14 47 OFFCURVE",
"76 -10 OFFCURVE",
"175 -10 CURVE SMOOTH",
"288 -10 OFFCURVE",
"362 45 OFFCURVE",
"378 121 CURVE SMOOTH",
"398 215 OFFCURVE",
"317 244 OFFCURVE",
"239 273 CURVE SMOOTH",
"157 303 OFFCURVE",
"87 329 OFFCURVE",
"102 398 CURVE SMOOTH",
"112 443 OFFCURVE",
"163 485 OFFCURVE",
"242 485 CURVE SMOOTH",
"315 485 OFFCURVE",
"353 460 OFFCURVE",
"370 445 CURVE SMOOTH",
"379 437 OFFCURVE",
"392 435 OFFCURVE",
"401 444 CURVE SMOOTH",
"409 452 OFFCURVE",
"407 465 OFFCURVE",
"398 474 CURVE SMOOTH",
"378 493 OFFCURVE",
"331 525 OFFCURVE",
"251 525 CURVE SMOOTH",
"148 525 OFFCURVE",
"78 469 OFFCURVE",
"62 398 CURVE SMOOTH",
"40 299 OFFCURVE",
"140 266 OFFCURVE",
"220 237 CURVE SMOOTH",
"296 209 OFFCURVE",
"352 185 OFFCURVE",
"338 121 CURVE SMOOTH",
"327 69 OFFCURVE",
"262 27 OFFCURVE",
"173 27 CURVE SMOOTH",
"88 27 OFFCURVE",
"47 79 OFFCURVE",
"35 93 CURVE SMOOTH",
"29 100 OFFCURVE",
"17 103 OFFCURVE",
"8 97 CURVE SMOOTH",
"-3 90 OFFCURVE",
"-3 78 OFFCURVE",
"2 69 CURVE SMOOTH"
);
}
);
width = 435.012;
}
);
leftKerningGroup = s;
rightKerningGroup = s;
unicode = 0073;
},
{
glyphname = germandbls;
lastChange = "2013-12-18 08:31:27 +0400";
layers = (
{
layerId = "6A4EEAE7-E2C6-4FA4-83F5-ABDB5FD8E17B";
name = Light;
paths = (
{
closed = 1;
nodes = (
"290 0 OFFCURVE",
"432 56 OFFCURVE",
"461 192 CURVE SMOOTH",
"485 306 OFFCURVE",
"421 355 OFFCURVE",
"352 372 CURVE SMOOTH",
"348 373 OFFCURVE",
"348 376 OFFCURVE",
"352 379 CURVE SMOOTH",
"449 433 OFFCURVE",
"483 507 OFFCURVE",
"493 558 CURVE SMOOTH",
"507 620 OFFCURVE",
"480 726 OFFCURVE",
"350 726 CURVE SMOOTH",
"186 726 OFFCURVE",
"109 599 OFFCURVE",
"91 513 CURVE SMOOTH",
"74 434 OFFCURVE",
"22 194 OFFCURVE",
"-15 24 CURVE SMOOTH",
"-18 11 OFFCURVE",
"-12 4 OFFCURVE",
"1 4 CURVE SMOOTH",
"14 4 OFFCURVE",
"22 11 OFFCURVE",
"25 24 CURVE SMOOTH",
"62 193 OFFCURVE",
"114 434 OFFCURVE",
"131 513 CURVE SMOOTH",
"147 589 OFFCURVE",
"208 686 OFFCURVE",
"342 686 CURVE SMOOTH",
"444 686 OFFCURVE",
"464 609 OFFCURVE",
"453 558 CURVE SMOOTH",
"441 498 OFFCURVE",
"387 420 OFFCURVE",
"284 391 CURVE SMOOTH",
"258 384 OFFCURVE",
"253 351 OFFCURVE",
"279 347 CURVE SMOOTH",
"338 338 OFFCURVE",
"446 310 OFFCURVE",
"421 192 CURVE SMOOTH",
"398 86 OFFCURVE",
"286 40 OFFCURVE",
"206 40 CURVE SMOOTH",
"193 40 OFFCURVE",
"185 32 OFFCURVE",
"182 19 CURVE SMOOTH",
"179 6 OFFCURVE",
"185 0 OFFCURVE",
"198 0 CURVE SMOOTH"
);
}
);
width = 525;
}
);
unicode = 00DF;
},
{
glyphname = t;
lastChange = "2013-12-18 08:31:27 +0400";
layers = (
{
anchors = (
{
name = bottom;
position = "{85, 0}";
},
{
name = center;
position = "{140, 258}";
}
);
layerId = "6A4EEAE7-E2C6-4FA4-83F5-ABDB5FD8E17B";
name = Light;
paths = (
{
closed = 1;
nodes = (
"212 515 LINE SMOOTH",
"209 515 OFFCURVE",
"208 517 OFFCURVE",
"208 520 CURVE",
"232 630 LINE",
"234 641 OFFCURVE",
"228 650 OFFCURVE",
"216 650 CURVE SMOOTH",
"205 650 OFFCURVE",
"194 641 OFFCURVE",
"192 630 CURVE",
"168 520 LINE",
"168 517 OFFCURVE",
"165 515 OFFCURVE",
"162 515 CURVE SMOOTH",
"76 515 LINE SMOOTH",
"65 515 OFFCURVE",
"55 507 OFFCURVE",
"52 495 CURVE",
"50 484 OFFCURVE",
"57 475 OFFCURVE",
"68 475 CURVE SMOOTH",
"154 475 LINE SMOOTH",
"157 475 OFFCURVE",
"158 473 OFFCURVE",
"158 470 CURVE",
"102 207 OFFCURVE",
"93 165 OFFCURVE",
"87 130 CURVE SMOOTH",
"81 94 OFFCURVE",
"62 -10 OFFCURVE",
"144 -10 CURVE SMOOTH",
"166 -10 OFFCURVE",
"186 -1 OFFCURVE",
"199 10 CURVE SMOOTH",
"208 18 OFFCURVE",
"215 30 OFFCURVE",
"207 42 CURVE SMOOTH",
"201 51 OFFCURVE",
"188 51 OFFCURVE",
"179 46 CURVE",
"171 41 OFFCURVE",
"160 30 OFFCURVE",
"144 30 CURVE SMOOTH",
"115 30 OFFCURVE",
"115 75 OFFCURVE",
"127 140 CURVE SMOOTH",
"198 470 LINE",
"198 473 OFFCURVE",
"201 475 OFFCURVE",
"204 475 CURVE SMOOTH",
"298 475 LINE SMOOTH",
"309 475 OFFCURVE",
"320 483 OFFCURVE",
"322 495 CURVE",
"325 506 OFFCURVE",
"317 515 OFFCURVE",
"306 515 CURVE SMOOTH"
);
}
);
width = 310.635;
}
);
leftKerningGroup = t;
rightKerningGroup = t;
unicode = 0074;
},
{
glyphname = tbar;
lastChange = "2013-12-18 08:31:27 +0400";
layers = (
{
anchors = (
{
name = _top;
position = "{145, 200}";
}
);
components = (
{
name = t;
transform = "{1, 0, 0, 1, 0, 0}";
}
);
layerId = "6A4EEAE7-E2C6-4FA4-83F5-ABDB5FD8E17B";
name = Light;
paths = (
{
closed = 1;
nodes = (
"231 286 LINE SMOOTH",
"244 286 OFFCURVE",
"251 293 OFFCURVE",
"251 306 CURVE SMOOTH",
"251 307 LINE SMOOTH",
"251 320 OFFCURVE",
"244 327 OFFCURVE",
"231 327 CURVE SMOOTH",
"51 327 LINE SMOOTH",
"38 327 OFFCURVE",
"31 320 OFFCURVE",
"31 307 CURVE SMOOTH",
"31 306 LINE SMOOTH",
"31 293 OFFCURVE",
"38 286 OFFCURVE",
"51 286 CURVE SMOOTH"
);
}
);
width = 427;
}
);
unicode = 0167;
},
{
glyphname = u;
lastChange = "2013-12-18 08:31:27 +0400";
layers = (
{
anchors = (
{
name = ogonek;
position = "{467, 10}";
},
{
name = top;
position = "{357, 515}";
}
);
layerId = "6A4EEAE7-E2C6-4FA4-83F5-ABDB5FD8E17B";
name = Light;
paths = (
{
closed = 1;
nodes = (
"49 464 OFFCURVE",
"62 464 OFFCURVE",
"71 469 CURVE",
"79 474 OFFCURVE",
"90 485 OFFCURVE",
"106 485 CURVE SMOOTH",
"153 485 OFFCURVE",
"135 427 OFFCURVE",
"117 350 CURVE SMOOTH",
"77 183 LINE SMOOTH",
"51 77 OFFCURVE",
"92 -10 OFFCURVE",
"209 -10 CURVE SMOOTH",
"288 -10 OFFCURVE",
"368 37 OFFCURVE",
"394 73 CURVE",
"397 78 OFFCURVE",
"400 75 OFFCURVE",
"399 71 CURVE",
"399 25 OFFCURVE",
"417 -10 OFFCURVE",
"471 -10 CURVE SMOOTH",
"493 -10 OFFCURVE",
"513 -1 OFFCURVE",
"526 10 CURVE SMOOTH",
"535 18 OFFCURVE",
"542 30 OFFCURVE",
"534 42 CURVE SMOOTH",
"528 51 OFFCURVE",
"515 51 OFFCURVE",
"506 46 CURVE",
"498 41 OFFCURVE",
"487 30 OFFCURVE",
"471 30 CURVE SMOOTH",
"428 30 OFFCURVE",
"444 87 OFFCURVE",
"460 165 CURVE SMOOTH",
"529 491 LINE SMOOTH",
"531 502 OFFCURVE",
"527 515 OFFCURVE",
"511 515 CURVE SMOOTH",
"499 515 OFFCURVE",
"493 508 OFFCURVE",
"490 495 CURVE SMOOTH",
"424 189 LINE SMOOTH",
"406 104 OFFCURVE",
"315 30 OFFCURVE",
"226 30 CURVE SMOOTH",
"131 30 OFFCURVE",
"96 97 OFFCURVE",
"117 183 CURVE SMOOTH",
"155 338 LINE SMOOTH",
"178 432 OFFCURVE",
"197 525 OFFCURVE",
"106 525 CURVE SMOOTH",
"84 525 OFFCURVE",
"64 516 OFFCURVE",
"51 505 CURVE SMOOTH",
"42 497 OFFCURVE",
"35 485 OFFCURVE",
"43 473 CURVE SMOOTH"
);
}
);
width = 587.968;
}
);
leftKerningGroup = u;
rightKerningGroup = u;
unicode = 0075;
},
{
glyphname = v;
lastChange = "2013-12-18 08:31:27 +0400";
layers = (
{
layerId = "6A4EEAE7-E2C6-4FA4-83F5-ABDB5FD8E17B";
name = Light;
paths = (
{
closed = 1;
nodes = (
"64 464 OFFCURVE",
"77 464 OFFCURVE",
"86 469 CURVE",
"94 474 OFFCURVE",
"105 485 OFFCURVE",
"121 485 CURVE SMOOTH",
"168 485 OFFCURVE",
"149 428 OFFCURVE",
"132 350 CURVE SMOOTH",
"94 173 LINE SMOOTH",
"70 59 OFFCURVE",
"111 0 OFFCURVE",
"218 0 CURVE SMOOTH",
"300 0 OFFCURVE",
"408 48 OFFCURVE",
"460 205 CURVE SMOOTH",
"495 311 OFFCURVE",
"504 384 OFFCURVE",
"495 491 CURVE SMOOTH",
"494 502 OFFCURVE",
"493 515 OFFCURVE",
"477 515 CURVE SMOOTH",
"465 515 OFFCURVE",
"455 508 OFFCURVE",
"456 495 CURVE SMOOTH",
"464 400 OFFCURVE",
"452 306 OFFCURVE",
"425 227 CURVE SMOOTH",
"386 114 OFFCURVE",
"308 40 OFFCURVE",
"235 40 CURVE SMOOTH",
"150 40 OFFCURVE",
"114 79 OFFCURVE",
"134 173 CURVE SMOOTH",
"170 338 LINE SMOOTH",
"191 433 OFFCURVE",
"212 525 OFFCURVE",
"121 525 CURVE SMOOTH",
"99 525 OFFCURVE",
"79 516 OFFCURVE",
"66 505 CURVE SMOOTH",
"57 497 OFFCURVE",
"50 485 OFFCURVE",
"58 473 CURVE SMOOTH"
);
}
);
width = 538.259;
}
);
leftKerningGroup = v;
rightKerningGroup = v;
unicode = 0076;
},
{
glyphname = w;
lastChange = "2013-12-18 08:31:27 +0400";
layers = (
{
anchors = (
{
name = top;
position = "{422, 515}";
}
);
layerId = "6A4EEAE7-E2C6-4FA4-83F5-ABDB5FD8E17B";
name = Light;
paths = (
{
closed = 1;
nodes = (
"818 502 OFFCURVE",
"817 515 OFFCURVE",
"801 515 CURVE SMOOTH",
"789 515 OFFCURVE",
"779 508 OFFCURVE",
"780 495 CURVE SMOOTH",
"788 400 OFFCURVE",
"776 306 OFFCURVE",
"749 227 CURVE SMOOTH",
"710 114 OFFCURVE",
"632 40 OFFCURVE",
"559 40 CURVE SMOOTH",
"474 40 OFFCURVE",
"431 82 OFFCURVE",
"454 173 CURVE SMOOTH",
"480 274 LINE SMOOTH",
"499 347 OFFCURVE",
"502 409 OFFCURVE",
"495 491 CURVE SMOOTH",
"494 502 OFFCURVE",
"493 515 OFFCURVE",
"477 515 CURVE SMOOTH",
"465 515 OFFCURVE",
"455 508 OFFCURVE",
"456 495 CURVE SMOOTH",
"464 400 OFFCURVE",
"452 306 OFFCURVE",
"425 227 CURVE SMOOTH",
"386 114 OFFCURVE",
"308 40 OFFCURVE",
"235 40 CURVE SMOOTH",
"150 40 OFFCURVE",
"114 79 OFFCURVE",
"134 173 CURVE SMOOTH",
"170 338 LINE SMOOTH",
"191 433 OFFCURVE",
"212 525 OFFCURVE",
"121 525 CURVE SMOOTH",
"99 525 OFFCURVE",
"79 516 OFFCURVE",
"66 505 CURVE SMOOTH",
"57 497 OFFCURVE",
"50 485 OFFCURVE",
"58 473 CURVE SMOOTH",
"64 464 OFFCURVE",
"77 464 OFFCURVE",
"86 469 CURVE",
"94 474 OFFCURVE",
"105 485 OFFCURVE",
"121 485 CURVE SMOOTH",
"168 485 OFFCURVE",
"149 428 OFFCURVE",
"132 350 CURVE SMOOTH",
"94 173 LINE SMOOTH",
"70 59 OFFCURVE",
"111 0 OFFCURVE",
"218 0 CURVE SMOOTH",
"280 0 OFFCURVE",
"356 27 OFFCURVE",
"412 106 CURVE",
"415 36 OFFCURVE",
"459 0 OFFCURVE",
"542 0 CURVE SMOOTH",
"624 0 OFFCURVE",
"732 48 OFFCURVE",
"784 205 CURVE SMOOTH",
"819 311 OFFCURVE",
"828 384 OFFCURVE",
"819 491 CURVE SMOOTH"
);
}
);
width = 862.259;
}
);
leftKerningGroup = w;
rightKerningGroup = w;
unicode = 0077;
},
{
glyphname = x;
lastChange = "2013-12-18 08:31:27 +0400";
layers = (
{
layerId = "6A4EEAE7-E2C6-4FA4-83F5-ABDB5FD8E17B";
name = Light;
paths = (
{
closed = 1;
nodes = (
"534 504 OFFCURVE",
"538 492 OFFCURVE",
"526 481 CURVE",
"306 264 LINE",
"333 189 OFFCURVE",
"363 101 OFFCURVE",
"374 80 CURVE",
"391 42 OFFCURVE",
"411 20 OFFCURVE",
"460 33 CURVE",
"475 38 OFFCURVE",
"487 40 OFFCURVE",
"493 26 CURVE",
"497 15 OFFCURVE",
"492 3 OFFCURVE",
"471 -3 CURVE",
"460 -8 OFFCURVE",
"444 -11 OFFCURVE",
"433 -10 CURVE",
"395 -10 OFFCURVE",
"361 7 OFFCURVE",
"339 59 CURVE",
"329 76 OFFCURVE",
"302 159 OFFCURVE",
"274 233 CURVE",
"47 4 LINE",
"38 -4 OFFCURVE",
"25 -4 OFFCURVE",
"16 5 CURVE",
"8 13 OFFCURVE",
"9 26 OFFCURVE",
"18 35 CURVE",
"258 275 LINE",
"231 344 OFFCURVE",
"205 411 OFFCURVE",
"191 435 CURVE",
"178 461 OFFCURVE",
"156 504 OFFCURVE",
"107 483 CURVE",
"92 476 OFFCURVE",
"82 475 OFFCURVE",
"77 490 CURVE",
"72 501 OFFCURVE",
"80 514 OFFCURVE",
"102 520 CURVE",
"113 524 OFFCURVE",
"125 525 OFFCURVE",
"137 525 CURVE",
"191 525 OFFCURVE",
"207 497 OFFCURVE",
"228 456 CURVE",
"239 434 OFFCURVE",
"264 374 OFFCURVE",
"289 307 CURVE",
"497 512 LINE",
"506 520 OFFCURVE",
"519 520 OFFCURVE",
"527 511 CURVE"
);
}
);
width = 543.74;
}
);
leftKerningGroup = x;
rightKerningGroup = x;
unicode = 0078;
},
{
glyphname = y;
lastChange = "2013-12-18 08:31:27 +0400";
layers = (
{
anchors = (
{
name = top;
position = "{360, 515}";
}
);
layerId = "6A4EEAE7-E2C6-4FA4-83F5-ABDB5FD8E17B";
name = Light;
paths = (
{
closed = 1;
nodes = (
"535 515 OFFCURVE",
"529 508 OFFCURVE",
"526 495 CURVE SMOOTH",
"460 189 LINE SMOOTH",
"442 104 OFFCURVE",
"351 30 OFFCURVE",
"262 30 CURVE SMOOTH",
"167 30 OFFCURVE",
"127 98 OFFCURVE",
"153 183 CURVE SMOOTH",
"201 338 LINE SMOOTH",
"230 430 OFFCURVE",
"243 525 OFFCURVE",
"152 525 CURVE SMOOTH",
"130 525 OFFCURVE",
"110 516 OFFCURVE",
"97 505 CURVE SMOOTH",
"88 497 OFFCURVE",
"81 485 OFFCURVE",
"89 473 CURVE SMOOTH",
"95 464 OFFCURVE",
"108 464 OFFCURVE",
"117 469 CURVE",
"125 474 OFFCURVE",
"136 485 OFFCURVE",
"152 485 CURVE SMOOTH",
"199 485 OFFCURVE",
"186 426 OFFCURVE",
"163 350 CURVE SMOOTH",
"113 183 LINE SMOOTH",
"82 78 OFFCURVE",
"128 -10 OFFCURVE",
"245 -10 CURVE SMOOTH",
"324 -10 OFFCURVE",
"404 37 OFFCURVE",
"430 73 CURVE",
"433 78 OFFCURVE",
"436 75 OFFCURVE",
"435 71 CURVE SMOOTH",
"417 5 OFFCURVE",
"361 -164 OFFCURVE",
"183 -164 CURVE SMOOTH",
"130 -164 OFFCURVE",
"93 -145 OFFCURVE",
"72 -131 CURVE SMOOTH",
"63 -125 OFFCURVE",
"52 -125 OFFCURVE",
"45 -132 CURVE",
"36 -142 OFFCURVE",
"39 -155 OFFCURVE",
"48 -162 CURVE SMOOTH",
"73 -181 OFFCURVE",
"122 -201 OFFCURVE",
"183 -201 CURVE SMOOTH",
"402 -201 OFFCURVE",
"461 -2 OFFCURVE",
"496 165 CURVE SMOOTH",
"565 491 LINE SMOOTH",
"567 502 OFFCURVE",
"563 515 OFFCURVE",
"547 515 CURVE SMOOTH"
);
}
);
width = 595.615;
}
);
leftKerningGroup = y;
rightKerningGroup = y;
unicode = 0079;
},
{
glyphname = z;
lastChange = "2013-12-18 08:31:27 +0400";
layers = (
{
anchors = (
{
name = top;
position = "{312, 515}";
}
);
layerId = "6A4EEAE7-E2C6-4FA4-83F5-ABDB5FD8E17B";
name = Light;
paths = (
{
closed = 1;
nodes = (
"496 510 LINE",
"488 517 OFFCURVE",
"476 518 OFFCURVE",
"469 510 CURVE",
"418 456 OFFCURVE",
"321 515 OFFCURVE",
"199 515 CURVE SMOOTH",
"137 515 OFFCURVE",
"105 488 OFFCURVE",
"81 468 CURVE",
"71 460 OFFCURVE",
"70 447 OFFCURVE",
"79 438 CURVE SMOOTH",
"87 430 OFFCURVE",
"98 429 OFFCURVE",
"106 437 CURVE SMOOTH",
"124 453 OFFCURVE",
"146 475 OFFCURVE",
"199 475 CURVE SMOOTH",
"256 475 OFFCURVE",
"347 454 OFFCURVE",
"402 448 CURVE SMOOTH",
"406 448 OFFCURVE",
"408 445 OFFCURVE",
"405 442 CURVE SMOOTH",
"16 35 LINE SMOOTH",
"7 26 OFFCURVE",
"8 14 OFFCURVE",
"16 6 CURVE SMOOTH",
"21 1 OFFCURVE",
"28 -1 OFFCURVE",
"34 1 CURVE",
"38 1 OFFCURVE",
"41 3 OFFCURVE",
"44 6 CURVE SMOOTH",
"48 10 LINE SMOOTH",
"131 93 OFFCURVE",
"234 0 OFFCURVE",
"354 0 CURVE SMOOTH",
"406 0 OFFCURVE",
"438 11 OFFCURVE",
"465 38 CURVE SMOOTH",
"475 48 OFFCURVE",
"476 59 OFFCURVE",
"467 68 CURVE SMOOTH",
"459 76 OFFCURVE",
"449 76 OFFCURVE",
"440 69 CURVE",
"419 46 OFFCURVE",
"397 40 OFFCURVE",
"354 40 CURVE SMOOTH",
"294 40 OFFCURVE",
"197 83 OFFCURVE",
"128 85 CURVE SMOOTH",
"123 85 OFFCURVE",
"122 88 OFFCURVE",
"125 91 CURVE SMOOTH",
"497 480 LINE SMOOTH",
"505 488 OFFCURVE",
"505 499 OFFCURVE",
"499 507 CURVE"
);
}
);
width = 513.277;
}
);
leftKerningGroup = z;
rightKerningGroup = z;
unicode = 007A;
},
{
glyphname = fi;
lastChange = "2013-12-18 08:31:27 +0400";
layers = (
{
layerId = "6A4EEAE7-E2C6-4FA4-83F5-ABDB5FD8E17B";
name = Light;
paths = (
{
closed = 1;
nodes = (
"331 790 OFFCURVE",
"197 717 OFFCURVE",
"176 615 CURVE SMOOTH",
"155 520 LINE",
"155 517 OFFCURVE",
"152 515 OFFCURVE",
"149 515 CURVE SMOOTH",
"75 515 LINE SMOOTH",
"64 515 OFFCURVE",
"54 507 OFFCURVE",
"51 495 CURVE",
"49 484 OFFCURVE",
"56 475 OFFCURVE",
"67 475 CURVE SMOOTH",
"141 475 LINE SMOOTH",
"144 475 OFFCURVE",
"145 473 OFFCURVE",
"145 470 CURVE",
"51 29 LINE SMOOTH",
"33 -57 OFFCURVE",
"6 -145 OFFCURVE",
"-70 -145 CURVE SMOOTH",
"-83 -145 OFFCURVE",
"-96 -149 OFFCURVE",
"-96 -166 CURVE SMOOTH",
"-96 -181 OFFCURVE",
"-81 -185 OFFCURVE",
"-70 -185 CURVE SMOOTH",
"33 -185 OFFCURVE",
"65 -86 OFFCURVE",
"86 6 CURVE SMOOTH",
"96 50 OFFCURVE",
"142 266 OFFCURVE",
"185 470 CURVE",
"185 473 OFFCURVE",
"188 475 OFFCURVE",
"191 475 CURVE SMOOTH",
"430 475 LINE SMOOTH",
"434 475 OFFCURVE",
"435 473 OFFCURVE",
"435 470 CURVE",
"371 173 LINE SMOOTH",
"350 74 OFFCURVE",
"345 -10 OFFCURVE",
"421 -10 CURVE SMOOTH",
"443 -10 OFFCURVE",
"463 -1 OFFCURVE",
"476 10 CURVE SMOOTH",
"485 18 OFFCURVE",
"492 30 OFFCURVE",
"484 42 CURVE SMOOTH",
"478 51 OFFCURVE",
"465 51 OFFCURVE",
"456 46 CURVE",
"448 41 OFFCURVE",
"437 30 OFFCURVE",
"421 30 CURVE SMOOTH",
"389 30 OFFCURVE",
"393 86 OFFCURVE",
"409 162 CURVE SMOOTH",
"480 495 LINE",
"482 507 OFFCURVE",
"472 515 OFFCURVE",
"463 515 CURVE SMOOTH",
"199 515 LINE SMOOTH",
"196 515 OFFCURVE",
"195 517 OFFCURVE",
"195 520 CURVE",
"216 615 LINE SMOOTH",
"233 695 OFFCURVE",
"328 731 OFFCURVE",
"470 616 CURVE SMOOTH",
"480 608 OFFCURVE",
"496 615 OFFCURVE",
"501 625 CURVE",
"506 636 OFFCURVE",
"502 648 OFFCURVE",
"490 655 CURVE"
);
}
);
width = 539;
}
);
leftMetricsKey = f;
rightMetricsKey = i;
unicode = FB01;
},
{
glyphname = fl;
lastChange = "2013-12-18 08:31:27 +0400";
layers = (
{
anchors = (
{
name = top;
position = "{463, 515}";
},
{
name = topright;
position = "{544, 515}";
}
);
layerId = "6A4EEAE7-E2C6-4FA4-83F5-ABDB5FD8E17B";
name = Light;
paths = (
{
closed = 1;
nodes = (
"526 720 LINE SMOOTH",
"528 731 OFFCURVE",
"523 740 OFFCURVE",
"511 740 CURVE SMOOTH",
"500 740 OFFCURVE",
"488 731 OFFCURVE",
"486 720 CURVE SMOOTH",
"477 677 LINE",
"476 673 OFFCURVE",
"473 672 OFFCURVE",
"470 675 CURVE",
"315 780 OFFCURVE",
"196 712 OFFCURVE",
"176 615 CURVE SMOOTH",
"155 520 LINE",
"155 517 OFFCURVE",
"152 515 OFFCURVE",
"149 515 CURVE SMOOTH",
"75 515 LINE SMOOTH",
"64 515 OFFCURVE",
"54 507 OFFCURVE",
"51 495 CURVE",
"49 484 OFFCURVE",
"56 475 OFFCURVE",
"67 475 CURVE SMOOTH",
"141 475 LINE SMOOTH",
"144 475 OFFCURVE",
"145 473 OFFCURVE",
"145 470 CURVE",
"51 29 LINE SMOOTH",
"33 -57 OFFCURVE",
"6 -145 OFFCURVE",
"-70 -145 CURVE SMOOTH",
"-83 -145 OFFCURVE",
"-96 -149 OFFCURVE",
"-96 -166 CURVE SMOOTH",
"-96 -181 OFFCURVE",
"-81 -185 OFFCURVE",
"-70 -185 CURVE SMOOTH",
"33 -185 OFFCURVE",
"65 -86 OFFCURVE",
"86 6 CURVE SMOOTH",
"96 50 OFFCURVE",
"142 266 OFFCURVE",
"185 470 CURVE",
"185 473 OFFCURVE",
"188 475 OFFCURVE",
"191 475 CURVE SMOOTH",
"303 475 LINE SMOOTH",
"314 475 OFFCURVE",
"325 483 OFFCURVE",
"327 495 CURVE SMOOTH",
"329 506 OFFCURVE",
"322 515 OFFCURVE",
"311 515 CURVE SMOOTH",
"199 515 LINE SMOOTH",
"196 515 OFFCURVE",
"195 517 OFFCURVE",
"195 520 CURVE",
"216 615 LINE SMOOTH",
"233 693 OFFCURVE",
"320 725 OFFCURVE",
"462 627 CURVE SMOOTH",
"465 625 OFFCURVE",
"465 623 OFFCURVE",
"465 620 CURVE",
"372 183 LINE SMOOTH",
"349 77 OFFCURVE",
"346 0 OFFCURVE",
"422 0 CURVE SMOOTH",
"444 0 OFFCURVE",
"464 9 OFFCURVE",
"477 20 CURVE SMOOTH",
"486 28 OFFCURVE",
"493 40 OFFCURVE",
"485 52 CURVE SMOOTH",
"479 61 OFFCURVE",
"466 61 OFFCURVE",
"457 56 CURVE",
"449 51 OFFCURVE",
"438 40 OFFCURVE",
"422 40 CURVE SMOOTH",
"392 40 OFFCURVE",
"394 96 OFFCURVE",
"410 172 CURVE SMOOTH"
);
}
);
width = 547;
}
);
leftMetricsKey = f;
rightMetricsKey = l;
unicode = FB02;
},
{
glyphname = ordfeminine;
lastChange = "2013-12-18 08:31:27 +0400";
layers = (
{
layerId = "6A4EEAE7-E2C6-4FA4-83F5-ABDB5FD8E17B";
name = Light;
paths = (
{
closed = 1;
nodes = (
"355 700 LINE",
"349 649 LINE SMOOTH",
"349 645 OFFCURVE",
"345 643 OFFCURVE",
"343 647 CURVE SMOOTH",
"317 680 OFFCURVE",
"277 700 OFFCURVE",
"231 700 CURVE SMOOTH",
"140 700 OFFCURVE",
"57 622 OFFCURVE",
"45 525 CURVE SMOOTH",
"33 428 OFFCURVE",
"98 350 OFFCURVE",
"189 350 CURVE SMOOTH",
"235 350 OFFCURVE",
"279 370 OFFCURVE",
"313 403 CURVE SMOOTH",
"317 407 OFFCURVE",
"319 405 OFFCURVE",
"319 401 CURVE SMOOTH",
"313 350 LINE",
"353 350 LINE",
"395 700 LINE"
);
},
{
closed = 1;
nodes = (
"125 390 OFFCURVE",
"76 450 OFFCURVE",
"85 525 CURVE SMOOTH",
"94 600 OFFCURVE",
"159 660 OFFCURVE",
"227 660 CURVE SMOOTH",
"295 660 OFFCURVE",
"343 600 OFFCURVE",
"334 525 CURVE SMOOTH",
"325 450 OFFCURVE",
"261 390 OFFCURVE",
"193 390 CURVE SMOOTH"
);
}
);
width = 454;
}
);
unicode = 00AA;
},
{
glyphname = ordmasculine;
lastChange = "2013-12-18 08:31:27 +0400";
layers = (
{
layerId = "6A4EEAE7-E2C6-4FA4-83F5-ABDB5FD8E17B";
name = Light;
paths = (
{
closed = 1;
nodes = (
"325 450 OFFCURVE",
"260 390 OFFCURVE",
"192 390 CURVE",
"124 390 OFFCURVE",
"76 450 OFFCURVE",
"85 525 CURVE",
"94 600 OFFCURVE",
"158 660 OFFCURVE",
"226 660 CURVE",
"294 660 OFFCURVE",
"343 600 OFFCURVE",
"334 525 CURVE"
);
},
{
closed = 1;
nodes = (
"386 622 OFFCURVE",
"321 700 OFFCURVE",
"230 700 CURVE",
"139 700 OFFCURVE",
"57 622 OFFCURVE",
"45 525 CURVE",
"33 428 OFFCURVE",
"97 350 OFFCURVE",
"188 350 CURVE",
"279 350 OFFCURVE",
"362 428 OFFCURVE",
"374 525 CURVE"
);
}
);
width = 419;
}
);
unicode = 00BA;
},
{
glyphname = pi;
lastChange = "2013-12-18 08:31:27 +0400";
layers = (
{
layerId = "6A4EEAE7-E2C6-4FA4-83F5-ABDB5FD8E17B";
name = Light;
paths = (
{
closed = 1;
nodes = (
"614 507 OFFCURVE",
"607 515 OFFCURVE",
"596 515 CURVE SMOOTH",
"107 515 LINE SMOOTH",
"96 515 OFFCURVE",
"85 507 OFFCURVE",
"82 495 CURVE SMOOTH",
"80 483 OFFCURVE",
"87 475 OFFCURVE",
"98 475 CURVE SMOOTH",
"157 475 LINE SMOOTH",
"160 475 OFFCURVE",
"162 473 OFFCURVE",
"161 470 CURVE SMOOTH",
"66 20 LINE SMOOTH",
"63 9 OFFCURVE",
"69 0 OFFCURVE",
"81 0 CURVE SMOOTH",
"93 0 OFFCURVE",
"103 9 OFFCURVE",
"106 20 CURVE SMOOTH",
"201 470 LINE SMOOTH",
"202 473 OFFCURVE",
"204 475 OFFCURVE",
"207 475 CURVE SMOOTH",
"477 475 LINE SMOOTH",
"480 475 OFFCURVE",
"482 473 OFFCURVE",
"481 470 CURVE SMOOTH",
"386 20 LINE SMOOTH",
"383 9 OFFCURVE",
"389 0 OFFCURVE",
"401 0 CURVE SMOOTH",
"413 0 OFFCURVE",
"423 9 OFFCURVE",
"426 20 CURVE SMOOTH",
"521 470 LINE SMOOTH",
"522 473 OFFCURVE",
"524 475 OFFCURVE",
"527 475 CURVE SMOOTH",
"587 475 LINE SMOOTH",
"598 475 OFFCURVE",
"609 483 OFFCURVE",
"611 495 CURVE SMOOTH"
);
}
);
width = 600;
}
);
unicode = 03C0;
},
{
glyphname = zero;
lastChange = "2013-12-18 08:31:27 +0400";
layers = (
{
layerId = "6A4EEAE7-E2C6-4FA4-83F5-ABDB5FD8E17B";
name = Light;
paths = (
{
closed = 1;
nodes = (
"437 172 OFFCURVE",
"343 40 OFFCURVE",
"215 40 CURVE",
"87 40 OFFCURVE",
"49 172 OFFCURVE",
"87 350 CURVE",
"125 528 OFFCURVE",
"219 660 OFFCURVE",
"347 660 CURVE",
"475 660 OFFCURVE",
"513 528 OFFCURVE",
"475 350 CURVE"
);
},
{
closed = 1;
nodes = (
"556 543 OFFCURVE",
"514 700 OFFCURVE",
"355 700 CURVE",
"196 700 OFFCURVE",
"88 543 OFFCURVE",
"47 350 CURVE",
"6 157 OFFCURVE",
"48 0 OFFCURVE",
"207 0 CURVE",
"366 0 OFFCURVE",
"474 157 OFFCURVE",
"515 350 CURVE"
);
}
);
width = 562;
}
);
unicode = 0030;
},
{
glyphname = one;
lastChange = "2013-12-18 08:31:27 +0400";
layers = (
{
layerId = "6A4EEAE7-E2C6-4FA4-83F5-ABDB5FD8E17B";
name = Light;
paths = (
{
closed = 1;
nodes = (
"99 583 LINE SMOOTH",
"87 576 OFFCURVE",
"82 565 OFFCURVE",
"86 555 CURVE SMOOTH",
"89 545 OFFCURVE",
"100 542 OFFCURVE",
"111 548 CURVE SMOOTH",
"288 642 LINE SMOOTH",
"291 644 OFFCURVE",
"294 642 OFFCURVE",
"293 638 CURVE SMOOTH",
"162 20 LINE SMOOTH",
"159 9 OFFCURVE",
"166 0 OFFCURVE",
"178 0 CURVE SMOOTH",
"189 0 OFFCURVE",
"199 9 OFFCURVE",
"202 20 CURVE SMOOTH",
"342 680 LINE SMOOTH",
"344 690 OFFCURVE",
"340 698 OFFCURVE",
"331 700 CURVE",
"327 701 OFFCURVE",
"321 701 OFFCURVE",
"314 697 CURVE SMOOTH"
);
}
);
width = 362;
}
);
unicode = 0031;
},
{
glyphname = two;
lastChange = "2013-12-18 08:31:27 +0400";
layers = (
{
layerId = "6A4EEAE7-E2C6-4FA4-83F5-ABDB5FD8E17B";
name = Light;
paths = (
{
closed = 1;
nodes = (
"49 40 LINE",
"306 253 LINE SMOOTH",
"414 343 OFFCURVE",
"571 460 OFFCURVE",
"490 615 CURVE SMOOTH",
"432 726 OFFCURVE",
"272 727 OFFCURVE",
"157 640 CURVE SMOOTH",
"131 620 LINE SMOOTH",
"121 612 OFFCURVE",
"117 600 OFFCURVE",
"123 592 CURVE",
"128 583 OFFCURVE",
"140 582 OFFCURVE",
"151 590 CURVE SMOOTH",
"178 610 LINE SMOOTH",
"276 685 OFFCURVE",
"404 679 OFFCURVE",
"453 586 CURVE SMOOTH",
"521 457 OFFCURVE",
"363 352 OFFCURVE",
"286 283 CURVE",
"-12 37 LINE",
"-15 34 LINE SMOOTH",
"-19 30 OFFCURVE",
"-22 26 OFFCURVE",
"-23 21 CURVE SMOOTH",
"-24 18 OFFCURVE",
"-24 15 OFFCURVE",
"-24 12 CURVE SMOOTH",
"-22 7 OFFCURVE",
"-19 3 OFFCURVE",
"-13 1 CURVE",
"-10 -1 OFFCURVE",
"-7 -1 OFFCURVE",
"-3 0 CURVE",
"409 0 LINE SMOOTH",
"420 0 OFFCURVE",
"431 8 OFFCURVE",
"434 20 CURVE SMOOTH",
"436 31 OFFCURVE",
"429 40 OFFCURVE",
"418 40 CURVE SMOOTH"
);
}
);
width = 557;
}
);
unicode = 0032;
},
{
glyphname = three;
lastChange = "2013-12-18 08:31:27 +0400";
layers = (
{
layerId = "6A4EEAE7-E2C6-4FA4-83F5-ABDB5FD8E17B";
name = Light;
paths = (
{
closed = 1;
nodes = (
"486 665 LINE SMOOTH",
"492 671 OFFCURVE",
"496 678 OFFCURVE",
"495 684 CURVE",
"495 693 OFFCURVE",
"488 700 OFFCURVE",
"478 700 CURVE SMOOTH",
"132 700 LINE SMOOTH",
"121 700 OFFCURVE",
"111 692 OFFCURVE",
"108 680 CURVE SMOOTH",
"106 669 OFFCURVE",
"113 660 OFFCURVE",
"124 660 CURVE SMOOTH",
"418 660 LINE SMOOTH",
"423 660 OFFCURVE",
"423 657 OFFCURVE",
"420 654 CURVE SMOOTH",
"177 434 LINE SMOOTH",
"167 425 OFFCURVE",
"165 413 OFFCURVE",
"173 405 CURVE SMOOTH",
"177 400 OFFCURVE",
"182 399 OFFCURVE",
"188 400 CURVE SMOOTH",
"287 416 OFFCURVE",
"403 376 OFFCURVE",
"371 228 CURVE SMOOTH",
"349 123 OFFCURVE",
"248 40 OFFCURVE",
"144 40 CURVE SMOOTH",
"92 40 OFFCURVE",
"52 52 OFFCURVE",
"25 83 CURVE",
"19 90 OFFCURVE",
"8 91 OFFCURVE",
"-2 84 CURVE SMOOTH",
"-12 76 OFFCURVE",
"-16 63 OFFCURVE",
"-9 54 CURVE",
"24 17 OFFCURVE",
"79 0 OFFCURVE",
"136 0 CURVE SMOOTH",
"258 0 OFFCURVE",
"385 105 OFFCURVE",
"411 228 CURVE SMOOTH",
"441 368 OFFCURVE",
"348 434 OFFCURVE",
"250 444 CURVE SMOOTH",
"246 444 OFFCURVE",
"245 447 OFFCURVE",
"248 450 CURVE SMOOTH"
);
}
);
width = 493;
}
);
unicode = 0033;
},
{
glyphname = four;
lastChange = "2013-12-18 08:31:27 +0400";
layers = (
{
layerId = "6A4EEAE7-E2C6-4FA4-83F5-ABDB5FD8E17B";
name = Light;
paths = (
{
closed = 1;
nodes = (
"423 215 LINE SMOOTH",
"420 215 OFFCURVE",
"419 217 OFFCURVE",
"419 220 CURVE SMOOTH",
"517 680 LINE SMOOTH",
"519 691 OFFCURVE",
"513 700 OFFCURVE",
"501 700 CURVE SMOOTH",
"499 700 OFFCURVE",
"497 700 OFFCURVE",
"495 699 CURVE",
"491 698 OFFCURVE",
"487 696 OFFCURVE",
"483 692 CURVE SMOOTH",
"8 209 LINE SMOOTH",
"1 202 OFFCURVE",
"-2 194 OFFCURVE",
"0 187 CURVE",
"2 180 OFFCURVE",
"8 175 OFFCURVE",
"16 175 CURVE SMOOTH",
"365 175 LINE SMOOTH",
"368 175 OFFCURVE",
"369 173 OFFCURVE",
"369 170 CURVE SMOOTH",
"337 20 LINE SMOOTH",
"335 9 OFFCURVE",
"341 0 OFFCURVE",
"353 0 CURVE SMOOTH",
"364 0 OFFCURVE",
"375 9 OFFCURVE",
"377 20 CURVE SMOOTH",
"409 170 LINE SMOOTH",
"409 173 OFFCURVE",
"412 175 OFFCURVE",
"415 175 CURVE SMOOTH",
"486 175 LINE SMOOTH",
"497 175 OFFCURVE",
"508 183 OFFCURVE",
"510 195 CURVE SMOOTH",
"512 206 OFFCURVE",
"505 215 OFFCURVE",
"494 215 CURVE SMOOTH"
);
},
{
closed = 1;
nodes = (
"72 215 LINE SMOOTH",
"67 215 OFFCURVE",
"67 218 OFFCURVE",
"71 221 CURVE SMOOTH",
"457 614 LINE SMOOTH",
"461 617 OFFCURVE",
"464 616 OFFCURVE",
"463 612 CURVE SMOOTH",
"379 220 LINE SMOOTH",
"379 217 OFFCURVE",
"376 215 OFFCURVE",
"373 215 CURVE SMOOTH"
);
}
);
width = 576;
}
);
unicode = 0034;
},
{
glyphname = five;
lastChange = "2013-12-18 08:31:27 +0400";
layers = (
{
layerId = "6A4EEAE7-E2C6-4FA4-83F5-ABDB5FD8E17B";
name = Light;
paths = (
{
closed = 1;
nodes = (
"187 655 LINE SMOOTH",
"187 658 OFFCURVE",
"190 660 OFFCURVE",
"193 660 CURVE SMOOTH",
"468 660 LINE SMOOTH",
"479 660 OFFCURVE",
"490 668 OFFCURVE",
"492 680 CURVE SMOOTH",
"494 691 OFFCURVE",
"487 700 OFFCURVE",
"476 700 CURVE SMOOTH",
"181 700 LINE",
"176 701 OFFCURVE",
"170 699 OFFCURVE",
"165 696 CURVE SMOOTH",
"163 694 OFFCURVE",
"160 691 OFFCURVE",
"158 688 CURVE",
"156 683 LINE",
"62 427 LINE SMOOTH",
"59 419 OFFCURVE",
"60 412 OFFCURVE",
"65 408 CURVE",
"72 401 OFFCURVE",
"83 401 OFFCURVE",
"92 408 CURVE SMOOTH",
"190 477 OFFCURVE",
"310 473 OFFCURVE",
"371 396 CURVE SMOOTH",
"435 314 OFFCURVE",
"407 183 OFFCURVE",
"307 101 CURVE SMOOTH",
"213 23 OFFCURVE",
"91 18 OFFCURVE",
"23 87 CURVE SMOOTH",
"17 94 OFFCURVE",
"6 95 OFFCURVE",
"-4 87 CURVE SMOOTH",
"-15 78 OFFCURVE",
"-18 65 OFFCURVE",
"-9 57 CURVE SMOOTH",
"70 -23 OFFCURVE",
"220 -18 OFFCURVE",
"330 72 CURVE SMOOTH",
"445 168 OFFCURVE",
"479 329 OFFCURVE",
"405 424 CURVE SMOOTH",
"344 501 OFFCURVE",
"228 516 OFFCURVE",
"124 469 CURVE SMOOTH",
"121 467 OFFCURVE",
"118 469 OFFCURVE",
"120 473 CURVE SMOOTH"
);
}
);
width = 512;
}
);
unicode = 0035;
},
{
glyphname = six;
lastChange = "2013-12-18 08:31:27 +0400";
layers = (
{
layerId = "6A4EEAE7-E2C6-4FA4-83F5-ABDB5FD8E17B";
name = Light;
paths = (
{
closed = 1;
nodes = (
"469 697 OFFCURVE",
"459 703 OFFCURVE",
"446 700 CURVE SMOOTH",
"86 622 OFFCURVE",
"24 225 OFFCURVE",
"22 212 CURVE SMOOTH",
"-4 90 OFFCURVE",
"74 -10 OFFCURVE",
"197 -10 CURVE SMOOTH",
"320 -10 OFFCURVE",
"441 90 OFFCURVE",
"467 212 CURVE SMOOTH",
"493 335 OFFCURVE",
"415 434 OFFCURVE",
"292 434 CURVE SMOOTH",
"229 434 OFFCURVE",
"167 408 OFFCURVE",
"118 367 CURVE SMOOTH",
"114 363 OFFCURVE",
"110 365 OFFCURVE",
"112 370 CURVE SMOOTH",
"162 479 OFFCURVE",
"263 621 OFFCURVE",
"447 661 CURVE SMOOTH",
"460 664 OFFCURVE",
"468 673 OFFCURVE",
"468 684 CURVE SMOOTH"
);
},
{
closed = 1;
nodes = (
"384 394 OFFCURVE",
"448 313 OFFCURVE",
"427 212 CURVE SMOOTH",
"405 112 OFFCURVE",
"306 30 OFFCURVE",
"206 30 CURVE SMOOTH",
"105 30 OFFCURVE",
"40 112 OFFCURVE",
"62 212 CURVE SMOOTH",
"83 312 OFFCURVE",
"182 394 OFFCURVE",
"283 394 CURVE SMOOTH"
);
}
);
width = 535.32;
}
);
unicode = 0036;
},
{
glyphname = seven;
lastChange = "2013-12-18 08:31:27 +0400";
layers = (
{
layerId = "6A4EEAE7-E2C6-4FA4-83F5-ABDB5FD8E17B";
name = Light;
paths = (
{
closed = 1;
nodes = (
"145 700 LINE SMOOTH",
"134 700 OFFCURVE",
"123 692 OFFCURVE",
"120 680 CURVE SMOOTH",
"118 669 OFFCURVE",
"125 660 OFFCURVE",
"136 660 CURVE SMOOTH",
"470 660 LINE SMOOTH",
"474 660 OFFCURVE",
"476 658 OFFCURVE",
"473 654 CURVE SMOOTH",
"74 26 LINE SMOOTH",
"68 16 OFFCURVE",
"70 5 OFFCURVE",
"79 0 CURVE",
"89 -5 OFFCURVE",
"101 0 OFFCURVE",
"108 11 CURVE SMOOTH",
"528 672 LINE SMOOTH",
"534 682 OFFCURVE",
"532 693 OFFCURVE",
"523 698 CURVE",
"519 700 LINE",
"515 700 LINE"
);
}
);
width = 506;
}
);
unicode = 0037;
},
{
glyphname = eight;
lastChange = "2013-12-18 08:31:27 +0400";
layers = (
{
layerId = "6A4EEAE7-E2C6-4FA4-83F5-ABDB5FD8E17B";
name = Light;
paths = (
{
closed = 1;
nodes = (
"400 433 OFFCURVE",
"442 482 OFFCURVE",
"454 539 CURVE SMOOTH",
"473 629 OFFCURVE",
"407 700 OFFCURVE",
"327 700 CURVE SMOOTH",
"246 700 OFFCURVE",
"150 629 OFFCURVE",
"131 539 CURVE SMOOTH",
"119 482 OFFCURVE",
"140 432 OFFCURVE",
"178 404 CURVE SMOOTH",
"182 401 OFFCURVE",
"180 399 OFFCURVE",
"177 397 CURVE SMOOTH",
"100 364 OFFCURVE",
"33 293 OFFCURVE",
"15 209 CURVE SMOOTH",
"-10 92 OFFCURVE",
"72 0 OFFCURVE",
"179 0 CURVE SMOOTH",
"286 0 OFFCURVE",
"407 92 OFFCURVE",
"432 209 CURVE SMOOTH",
"450 293 OFFCURVE",
"412 364 OFFCURVE",
"349 397 CURVE SMOOTH",
"345 399 OFFCURVE",
"346 402 OFFCURVE",
"349 404 CURVE SMOOTH"
);
},
{
closed = 1;
nodes = (
"186 611 OFFCURVE",
"256 660 OFFCURVE",
"319 660 CURVE SMOOTH",
"381 660 OFFCURVE",
"429 611 OFFCURVE",
"414 539 CURVE SMOOTH",
"399 466 OFFCURVE",
"329 417 OFFCURVE",
"267 417 CURVE SMOOTH",
"204 417 OFFCURVE",
"156 466 OFFCURVE",
"171 539 CURVE"
);
},
{
closed = 1;
nodes = (
"98 40 OFFCURVE",
"34 110 OFFCURVE",
"55 209 CURVE SMOOTH",
"76 307 OFFCURVE",
"170 377 OFFCURVE",
"259 377 CURVE SMOOTH",
"348 377 OFFCURVE",
"413 307 OFFCURVE",
"392 209 CURVE SMOOTH",
"371 110 OFFCURVE",
"276 40 OFFCURVE",
"187 40 CURVE SMOOTH"
);
}
);
width = 508;
}
);
unicode = 0038;
},
{
glyphname = nine;
lastChange = "2013-12-18 08:31:27 +0400";
layers = (
{
layerId = "6A4EEAE7-E2C6-4FA4-83F5-ABDB5FD8E17B";
name = Light;
paths = (
{
closed = 1;
nodes = (
"76 3 OFFCURVE",
"86 -3 OFFCURVE",
"99 0 CURVE SMOOTH",
"459 78 OFFCURVE",
"521 475 OFFCURVE",
"523 488 CURVE SMOOTH",
"549 610 OFFCURVE",
"471 710 OFFCURVE",
"348 710 CURVE SMOOTH",
"225 710 OFFCURVE",
"104 610 OFFCURVE",
"78 488 CURVE SMOOTH",
"52 365 OFFCURVE",
"130 266 OFFCURVE",
"253 266 CURVE SMOOTH",
"316 266 OFFCURVE",
"378 292 OFFCURVE",
"427 333 CURVE SMOOTH",
"431 337 OFFCURVE",
"435 335 OFFCURVE",
"433 330 CURVE SMOOTH",
"383 221 OFFCURVE",
"282 79 OFFCURVE",
"98 39 CURVE SMOOTH",
"85 36 OFFCURVE",
"77 27 OFFCURVE",
"77 16 CURVE SMOOTH"
);
},
{
closed = 1;
nodes = (
"161 306 OFFCURVE",
"97 387 OFFCURVE",
"118 488 CURVE SMOOTH",
"140 588 OFFCURVE",
"239 670 OFFCURVE",
"339 670 CURVE SMOOTH",
"440 670 OFFCURVE",
"505 588 OFFCURVE",
"483 488 CURVE SMOOTH",
"462 388 OFFCURVE",
"363 306 OFFCURVE",
"262 306 CURVE SMOOTH"
);
}
);
width = 535.32;
}
);
unicode = 0039;
},
{
glyphname = fraction;
lastChange = "2013-12-18 08:31:27 +0400";
layers = (
{
layerId = "6A4EEAE7-E2C6-4FA4-83F5-ABDB5FD8E17B";
name = Light;
paths = (
{
closed = 1;
nodes = (
"560 706 OFFCURVE",
"547 704 OFFCURVE",
"539 694 CURVE SMOOTH",
"-40 28 LINE SMOOTH",
"-49 18 OFFCURVE",
"-49 6 OFFCURVE",
"-41 0 CURVE SMOOTH",
"-33 -6 OFFCURVE",
"-20 -4 OFFCURVE",
"-12 6 CURVE SMOOTH",
"567 672 LINE SMOOTH",
"576 682 OFFCURVE",
"576 694 OFFCURVE",
"568 700 CURVE SMOOTH"
);
}
);
width = 527.43;
}
);
unicode = 2044;
},
{
glyphname = onehalf;
lastChange = "2013-12-18 08:31:27 +0400";
layers = (
{
layerId = "6A4EEAE7-E2C6-4FA4-83F5-ABDB5FD8E17B";
leftMetricsKey = one;
rightMetricsKey = two;
name = Light;
paths = (
{
closed = 1;
nodes = (
"691 706 OFFCURVE",
"679 704 OFFCURVE",
"671 694 CURVE SMOOTH",
"91 28 LINE SMOOTH",
"83 18 OFFCURVE",
"83 6 OFFCURVE",
"90 0 CURVE SMOOTH",
"99 -6 OFFCURVE",
"111 -4 OFFCURVE",
"120 6 CURVE SMOOTH",
"699 672 LINE SMOOTH",
"707 682 OFFCURVE",
"708 694 OFFCURVE",
"700 700 CURVE SMOOTH"
);
},
{
closed = 1;
nodes = (
"139 626 LINE SMOOTH",
"127 619 OFFCURVE",
"122 608 OFFCURVE",
"125 598 CURVE SMOOTH",
"129 588 OFFCURVE",
"140 585 OFFCURVE",
"151 591 CURVE SMOOTH",
"245 641 LINE SMOOTH",
"248 643 OFFCURVE",
"251 641 OFFCURVE",
"250 637 CURVE SMOOTH",
"183 321 LINE SMOOTH",
"180 310 OFFCURVE",
"186 301 OFFCURVE",
"198 301 CURVE SMOOTH",
"209 301 OFFCURVE",
"220 310 OFFCURVE",
"223 321 CURVE SMOOTH",
"299 679 LINE SMOOTH",
"301 689 OFFCURVE",
"296 697 OFFCURVE",
"288 699 CURVE",
"283 700 OFFCURVE",
"277 700 OFFCURVE",
"270 696 CURVE SMOOTH"
);
},
{
closed = 1;
nodes = (
"557 40 LINE SMOOTH",
"552 40 OFFCURVE",
"551 43 OFFCURVE",
"555 46 CURVE SMOOTH",
"586 71 OFFCURVE",
"619 97 OFFCURVE",
"636 112 CURVE SMOOTH",
"696 163 OFFCURVE",
"765 204 OFFCURVE",
"780 278 CURVE SMOOTH",
"792 333 OFFCURVE",
"760 400 OFFCURVE",
"672 400 CURVE SMOOTH",
"617 400 OFFCURVE",
"568 375 OFFCURVE",
"536 345 CURVE SMOOTH",
"525 335 OFFCURVE",
"524 323 OFFCURVE",
"531 315 CURVE",
"539 308 OFFCURVE",
"549 309 OFFCURVE",
"559 317 CURVE SMOOTH",
"586 339 OFFCURVE",
"619 360 OFFCURVE",
"664 360 CURVE SMOOTH",
"728 360 OFFCURVE",
"747 311 OFFCURVE",
"740 278 CURVE SMOOTH",
"728 220 OFFCURVE",
"673 189 OFFCURVE",
"614 140 CURVE SMOOTH",
"587 118 OFFCURVE",
"525 68 OFFCURVE",
"487 37 CURVE",
"484 34 LINE",
"480 31 OFFCURVE",
"477 26 OFFCURVE",
"476 20 CURVE SMOOTH",
"473 9 OFFCURVE",
"480 0 OFFCURVE",
"491 0 CURVE SMOOTH",
"719 0 LINE SMOOTH",
"730 0 OFFCURVE",
"741 8 OFFCURVE",
"744 20 CURVE SMOOTH",
"746 31 OFFCURVE",
"739 40 OFFCURVE",
"728 40 CURVE SMOOTH"
);
}
);
width = 827.226;
}
);
leftMetricsKey = one.numr;
rightMetricsKey = two;
unicode = 00BD;
},
{
glyphname = onequarter;
lastChange = "2013-12-18 08:31:27 +0400";
layers = (
{
layerId = "6A4EEAE7-E2C6-4FA4-83F5-ABDB5FD8E17B";
leftMetricsKey = one;
rightMetricsKey = four;
name = Light;
paths = (
{
closed = 1;
nodes = (
"691 706 OFFCURVE",
"679 704 OFFCURVE",
"671 694 CURVE SMOOTH",
"91 28 LINE SMOOTH",
"83 18 OFFCURVE",
"82 6 OFFCURVE",
"90 0 CURVE SMOOTH",
"99 -6 OFFCURVE",
"111 -4 OFFCURVE",
"119 6 CURVE SMOOTH",
"699 672 LINE SMOOTH",
"707 682 OFFCURVE",
"708 694 OFFCURVE",
"700 700 CURVE SMOOTH"
);
},
{
closed = 1;
nodes = (
"139 626 LINE SMOOTH",
"127 619 OFFCURVE",
"121 608 OFFCURVE",
"125 598 CURVE SMOOTH",
"129 588 OFFCURVE",
"139 585 OFFCURVE",
"151 591 CURVE SMOOTH",
"244 641 LINE SMOOTH",
"248 643 OFFCURVE",
"250 641 OFFCURVE",
"250 637 CURVE SMOOTH",
"182 321 LINE SMOOTH",
"180 310 OFFCURVE",
"186 301 OFFCURVE",
"198 301 CURVE SMOOTH",
"209 301 OFFCURVE",
"220 310 OFFCURVE",
"222 321 CURVE SMOOTH",
"298 679 LINE SMOOTH",
"301 689 OFFCURVE",
"296 697 OFFCURVE",
"288 699 CURVE SMOOTH",
"283 700 OFFCURVE",
"277 700 OFFCURVE",
"270 696 CURVE SMOOTH"
);
},
{
closed = 1;
nodes = (
"615 135 LINE SMOOTH",
"612 135 OFFCURVE",
"610 137 OFFCURVE",
"611 140 CURVE SMOOTH",
"662 382 LINE SMOOTH",
"664 392 OFFCURVE",
"659 401 OFFCURVE",
"649 402 CURVE",
"642 403 OFFCURVE",
"634 400 OFFCURVE",
"628 394 CURVE SMOOTH",
"363 127 LINE SMOOTH",
"353 117 OFFCURVE",
"353 106 OFFCURVE",
"360 99 CURVE SMOOTH",
"364 96 OFFCURVE",
"369 94 OFFCURVE",
"374 95 CURVE",
"556 95 LINE SMOOTH",
"559 95 OFFCURVE",
"561 93 OFFCURVE",
"560 90 CURVE SMOOTH",
"545 20 LINE SMOOTH",
"543 9 OFFCURVE",
"549 0 OFFCURVE",
"561 0 CURVE SMOOTH",
"573 0 OFFCURVE",
"583 9 OFFCURVE",
"585 20 CURVE SMOOTH",
"600 90 LINE SMOOTH",
"601 93 OFFCURVE",
"603 95 OFFCURVE",
"606 95 CURVE SMOOTH",
"623 95 LINE SMOOTH",
"634 95 OFFCURVE",
"645 103 OFFCURVE",
"648 115 CURVE SMOOTH",
"650 127 OFFCURVE",
"643 135 OFFCURVE",
"632 135 CURVE SMOOTH"
);
},
{
closed = 1;
nodes = (
"429 135 LINE SMOOTH",
"424 135 OFFCURVE",
"423 138 OFFCURVE",
"427 141 CURVE SMOOTH",
"603 318 LINE SMOOTH",
"607 322 OFFCURVE",
"609 321 OFFCURVE",
"608 316 CURVE SMOOTH",
"571 140 LINE SMOOTH",
"570 137 OFFCURVE",
"568 135 OFFCURVE",
"565 135 CURVE SMOOTH"
);
}
);
width = 764.144;
}
);
leftMetricsKey = one.numr;
rightMetricsKey = one.numr;
unicode = 00BC;
},
{
glyphname = threequarters;
lastChange = "2013-12-18 08:31:27 +0400";
layers = (
{
layerId = "6A4EEAE7-E2C6-4FA4-83F5-ABDB5FD8E17B";
leftMetricsKey = three;
rightMetricsKey = four;
name = Light;
paths = (
{
closed = 1;
nodes = (
"566 135 LINE SMOOTH",
"563 135 OFFCURVE",
"561 137 OFFCURVE",
"562 140 CURVE SMOOTH",
"613 382 LINE SMOOTH",
"615 392 OFFCURVE",
"610 401 OFFCURVE",
"600 402 CURVE",
"594 403 OFFCURVE",
"585 400 OFFCURVE",
"579 394 CURVE SMOOTH",
"314 127 LINE SMOOTH",
"304 117 OFFCURVE",
"304 106 OFFCURVE",
"311 99 CURVE SMOOTH",
"315 96 OFFCURVE",
"320 94 OFFCURVE",
"325 95 CURVE",
"507 95 LINE SMOOTH",
"510 95 OFFCURVE",
"512 93 OFFCURVE",
"511 90 CURVE SMOOTH",
"496 20 LINE SMOOTH",
"494 9 OFFCURVE",
"500 0 OFFCURVE",
"512 0 CURVE SMOOTH",
"524 0 OFFCURVE",
"534 9 OFFCURVE",
"536 20 CURVE SMOOTH",
"551 90 LINE SMOOTH",
"552 93 OFFCURVE",
"554 95 OFFCURVE",
"557 95 CURVE SMOOTH",
"574 95 LINE SMOOTH",
"585 95 OFFCURVE",
"596 103 OFFCURVE",
"598 115 CURVE SMOOTH",
"601 127 OFFCURVE",
"594 135 OFFCURVE",
"583 135 CURVE SMOOTH"
);
},
{
closed = 1;
nodes = (
"380 135 LINE SMOOTH",
"375 135 OFFCURVE",
"374 138 OFFCURVE",
"378 141 CURVE SMOOTH",
"554 318 LINE SMOOTH",
"557 322 OFFCURVE",
"560 321 OFFCURVE",
"559 316 CURVE SMOOTH",
"522 140 LINE SMOOTH",
"521 137 OFFCURVE",
"519 135 OFFCURVE",
"516 135 CURVE SMOOTH"
);
},
{
closed = 1;
nodes = (
"642 706 OFFCURVE",
"630 704 OFFCURVE",
"622 694 CURVE SMOOTH",
"42 28 LINE SMOOTH",
"34 18 OFFCURVE",
"33 6 OFFCURVE",
"41 0 CURVE SMOOTH",
"50 -6 OFFCURVE",
"62 -4 OFFCURVE",
"70 6 CURVE SMOOTH",
"650 672 LINE SMOOTH",
"658 682 OFFCURVE",
"659 694 OFFCURVE",
"651 700 CURVE SMOOTH"
);
},
{
closed = 1;
nodes = (
"277 666 LINE SMOOTH",
"285 674 OFFCURVE",
"288 684 OFFCURVE",
"283 692 CURVE",
"281 697 OFFCURVE",
"276 700 OFFCURVE",
"269 700 CURVE SMOOTH",
"82 700 LINE SMOOTH",
"71 700 OFFCURVE",
"60 692 OFFCURVE",
"58 680 CURVE SMOOTH",
"55 669 OFFCURVE",
"62 660 OFFCURVE",
"73 660 CURVE SMOOTH",
"206 660 LINE SMOOTH",
"211 660 OFFCURVE",
"212 657 OFFCURVE",
"208 654 CURVE SMOOTH",
"100 558 LINE SMOOTH",
"92 551 OFFCURVE",
"88 543 OFFCURVE",
"91 536 CURVE",
"92 529 OFFCURVE",
"99 525 OFFCURVE",
"105 524 CURVE SMOOTH",
"109 524 LINE",
"110 524 LINE SMOOTH",
"189 531 OFFCURVE",
"220 492 OFFCURVE",
"208 437 CURVE SMOOTH",
"195 374 OFFCURVE",
"131 340 OFFCURVE",
"89 340 CURVE SMOOTH",
"55 340 OFFCURVE",
"38 349 OFFCURVE",
"26 362 CURVE",
"19 368 OFFCURVE",
"9 369 OFFCURVE",
"0 363 CURVE",
"-1 362 LINE",
"-12 354 OFFCURVE",
"-17 341 OFFCURVE",
"-8 332 CURVE SMOOTH",
"8 314 OFFCURVE",
"30 300 OFFCURVE",
"81 300 CURVE SMOOTH",
"139 300 OFFCURVE",
"229 350 OFFCURVE",
"248 437 CURVE SMOOTH",
"261 500 OFFCURVE",
"236 552 OFFCURVE",
"169 563 CURVE SMOOTH",
"165 564 OFFCURVE",
"163 566 OFFCURVE",
"167 569 CURVE SMOOTH"
);
}
);
width = 715.144;
}
);
leftMetricsKey = three.numr;
rightMetricsKey = three.numr;
unicode = 00BE;
},
{
glyphname = onesuperior;
lastChange = "2013-12-18 08:31:27 +0400";
layers = (
{
layerId = "6A4EEAE7-E2C6-4FA4-83F5-ABDB5FD8E17B";
rightMetricsKey = one;
name = Light;
paths = (
{
closed = 1;
nodes = (
"55 627 LINE SMOOTH",
"43 620 OFFCURVE",
"37 609 OFFCURVE",
"41 599 CURVE SMOOTH",
"45 589 OFFCURVE",
"55 586 OFFCURVE",
"67 592 CURVE SMOOTH",
"160 642 LINE SMOOTH",
"164 644 OFFCURVE",
"166 642 OFFCURVE",
"165 638 CURVE SMOOTH",
"98 322 LINE SMOOTH",
"96 311 OFFCURVE",
"102 302 OFFCURVE",
"114 302 CURVE SMOOTH",
"125 302 OFFCURVE",
"136 311 OFFCURVE",
"138 322 CURVE SMOOTH",
"214 680 LINE SMOOTH",
"216 690 OFFCURVE",
"212 698 OFFCURVE",
"204 700 CURVE",
"199 701 OFFCURVE",
"193 701 OFFCURVE",
"186 697 CURVE SMOOTH"
);
}
);
width = 234.005;
}
);
rightMetricsKey = one;
unicode = 00B9;
},
{
glyphname = twosuperior;
lastChange = "2013-12-18 08:31:27 +0400";
layers = (
{
layerId = "6A4EEAE7-E2C6-4FA4-83F5-ABDB5FD8E17B";
rightMetricsKey = two;
name = Light;
paths = (
{
closed = 1;
nodes = (
"108 340 LINE SMOOTH",
"103 340 OFFCURVE",
"103 343 OFFCURVE",
"106 346 CURVE SMOOTH",
"138 371 OFFCURVE",
"170 397 OFFCURVE",
"187 412 CURVE SMOOTH",
"247 463 OFFCURVE",
"316 504 OFFCURVE",
"332 578 CURVE SMOOTH",
"343 633 OFFCURVE",
"312 700 OFFCURVE",
"224 700 CURVE SMOOTH",
"169 700 OFFCURVE",
"119 675 OFFCURVE",
"87 645 CURVE SMOOTH",
"76 635 OFFCURVE",
"75 623 OFFCURVE",
"82 615 CURVE",
"90 608 OFFCURVE",
"100 609 OFFCURVE",
"110 617 CURVE SMOOTH",
"138 639 OFFCURVE",
"170 660 OFFCURVE",
"215 660 CURVE SMOOTH",
"279 660 OFFCURVE",
"299 611 OFFCURVE",
"292 578 CURVE SMOOTH",
"279 520 OFFCURVE",
"225 489 OFFCURVE",
"165 440 CURVE SMOOTH",
"139 418 OFFCURVE",
"76 368 OFFCURVE",
"38 337 CURVE",
"35 334 LINE",
"31 331 OFFCURVE",
"28 326 OFFCURVE",
"27 320 CURVE SMOOTH",
"24 309 OFFCURVE",
"31 300 OFFCURVE",
"42 300 CURVE SMOOTH",
"270 300 LINE SMOOTH",
"281 300 OFFCURVE",
"292 308 OFFCURVE",
"295 320 CURVE SMOOTH",
"297 331 OFFCURVE",
"290 340 OFFCURVE",
"279 340 CURVE SMOOTH"
);
}
);
width = 378.762;
}
);
leftMetricsKey = two;
rightMetricsKey = two;
unicode = 00B2;
},
{
glyphname = threesuperior;
lastChange = "2013-12-18 08:31:27 +0400";
layers = (
{
layerId = "6A4EEAE7-E2C6-4FA4-83F5-ABDB5FD8E17B";
rightMetricsKey = three;
name = Light;
paths = (
{
closed = 1;
nodes = (
"307 666 LINE SMOOTH",
"316 674 OFFCURVE",
"319 684 OFFCURVE",
"314 692 CURVE",
"312 697 OFFCURVE",
"307 700 OFFCURVE",
"300 700 CURVE SMOOTH",
"113 700 LINE SMOOTH",
"102 700 OFFCURVE",
"91 692 OFFCURVE",
"88 680 CURVE SMOOTH",
"86 669 OFFCURVE",
"93 660 OFFCURVE",
"104 660 CURVE SMOOTH",
"237 660 LINE SMOOTH",
"242 660 OFFCURVE",
"242 657 OFFCURVE",
"239 654 CURVE SMOOTH",
"130 558 LINE SMOOTH",
"123 551 OFFCURVE",
"119 543 OFFCURVE",
"122 536 CURVE",
"123 529 OFFCURVE",
"129 525 OFFCURVE",
"136 524 CURVE SMOOTH",
"140 524 LINE",
"141 524 LINE SMOOTH",
"220 531 OFFCURVE",
"250 492 OFFCURVE",
"239 437 CURVE SMOOTH",
"225 374 OFFCURVE",
"162 340 OFFCURVE",
"120 340 CURVE SMOOTH",
"86 340 OFFCURVE",
"69 349 OFFCURVE",
"57 362 CURVE",
"50 368 OFFCURVE",
"40 369 OFFCURVE",
"31 363 CURVE",
"30 362 LINE",
"19 354 OFFCURVE",
"14 341 OFFCURVE",
"22 332 CURVE SMOOTH",
"38 314 OFFCURVE",
"60 300 OFFCURVE",
"111 300 CURVE SMOOTH",
"169 300 OFFCURVE",
"260 350 OFFCURVE",
"279 437 CURVE SMOOTH",
"292 500 OFFCURVE",
"267 552 OFFCURVE",
"199 563 CURVE SMOOTH",
"196 564 OFFCURVE",
"194 566 OFFCURVE",
"198 569 CURVE SMOOTH"
);
}
);
width = 314.256;
}
);
leftMetricsKey = three;
rightMetricsKey = three;
unicode = 00B3;
},
{
glyphname = asterisk;
lastChange = "2013-12-18 08:31:27 +0400";
layers = (
{
layerId = "6A4EEAE7-E2C6-4FA4-83F5-ABDB5FD8E17B";
name = Light;
paths = (
{
closed = 1;
nodes = (
"368 490 OFFCURVE",
"367 502 OFFCURVE",
"356 508 CURVE SMOOTH",
"275 551 LINE SMOOTH",
"272 552 OFFCURVE",
"272 556 OFFCURVE",
"277 557 CURVE SMOOTH",
"376 600 LINE SMOOTH",
"389 606 OFFCURVE",
"396 618 OFFCURVE",
"392 628 CURVE SMOOTH",
"388 639 OFFCURVE",
"376 642 OFFCURVE",
"364 635 CURVE SMOOTH",
"270 579 LINE SMOOTH",
"267 577 OFFCURVE",
"264 579 OFFCURVE",
"266 583 CURVE SMOOTH",
"293 680 LINE SMOOTH",
"296 692 OFFCURVE",
"290 702 OFFCURVE",
"279 702 CURVE SMOOTH",
"267 702 OFFCURVE",
"256 692 OFFCURVE",
"255 680 CURVE SMOOTH",
"240 583 LINE SMOOTH",
"240 579 OFFCURVE",
"237 577 OFFCURVE",
"234 579 CURVE SMOOTH",
"164 635 LINE SMOOTH",
"156 642 OFFCURVE",
"143 640 OFFCURVE",
"135 630 CURVE SMOOTH",
"126 619 OFFCURVE",
"127 606 OFFCURVE",
"138 600 CURVE SMOOTH",
"219 557 LINE SMOOTH",
"222 556 OFFCURVE",
"222 552 OFFCURVE",
"217 551 CURVE SMOOTH",
"118 508 LINE SMOOTH",
"105 502 OFFCURVE",
"98 490 OFFCURVE",
"102 480 CURVE SMOOTH",
"106 469 OFFCURVE",
"118 466 OFFCURVE",
"130 473 CURVE SMOOTH",
"224 529 LINE SMOOTH",
"227 531 OFFCURVE",
"230 529 OFFCURVE",
"228 525 CURVE SMOOTH",
"201 428 LINE SMOOTH",
"198 416 OFFCURVE",
"204 406 OFFCURVE",
"215 406 CURVE SMOOTH",
"227 406 OFFCURVE",
"238 416 OFFCURVE",
"239 428 CURVE SMOOTH",
"254 525 LINE SMOOTH",
"254 529 OFFCURVE",
"257 531 OFFCURVE",
"260 529 CURVE SMOOTH",
"330 473 LINE SMOOTH",
"338 466 OFFCURVE",
"352 469 OFFCURVE",
"360 480 CURVE SMOOTH"
);
}
);
width = 410.123;
}
);
unicode = 002A;
},
{
glyphname = backslash;
lastChange = "2013-12-18 08:31:27 +0400";
layers = (
{
layerId = "6A4EEAE7-E2C6-4FA4-83F5-ABDB5FD8E17B";
name = Light;
paths = (
{
closed = 1;
nodes = (
"138 798 OFFCURVE",
"131 788 OFFCURVE",
"135 774 CURVE SMOOTH",
"400 -114 LINE SMOOTH",
"402 -124 OFFCURVE",
"409 -128 OFFCURVE",
"420 -128 CURVE SMOOTH",
"426 -128 LINE SMOOTH",
"442 -128 OFFCURVE",
"450 -118 OFFCURVE",
"446 -104 CURVE SMOOTH",
"181 784 LINE SMOOTH",
"179 794 OFFCURVE",
"172 798 OFFCURVE",
"161 798 CURVE SMOOTH",
"152 798 LINE SMOOTH"
);
}
);
width = 579.019;
}
);
unicode = 005C;
},
{
glyphname = bullet;
lastChange = "2013-12-18 08:31:27 +0400";
layers = (
{
layerId = "6A4EEAE7-E2C6-4FA4-83F5-ABDB5FD8E17B";
name = Light;
paths = (
{
closed = 1;
nodes = (
"309 420 OFFCURVE",
"253 476 OFFCURVE",
"185 476 CURVE SMOOTH",
"117 476 OFFCURVE",
"61 420 OFFCURVE",
"61 352 CURVE SMOOTH",
"61 284 OFFCURVE",
"117 228 OFFCURVE",
"185 228 CURVE SMOOTH",
"253 228 OFFCURVE",
"309 284 OFFCURVE",
"309 352 CURVE SMOOTH"
);
}
);
width = 354;
}
);
unicode = 2022;
},
{
glyphname = colon;
lastChange = "2013-12-18 08:31:27 +0400";
layers = (
{
layerId = "6A4EEAE7-E2C6-4FA4-83F5-ABDB5FD8E17B";
name = Light;
paths = (
{
closed = 1;
nodes = (
"155 425 LINE SMOOTH",
"173 425 OFFCURVE",
"189 438 OFFCURVE",
"193 456 CURVE SMOOTH",
"198 479 LINE SMOOTH",
"201 497 OFFCURVE",
"191 510 OFFCURVE",
"173 510 CURVE SMOOTH",
"169 510 LINE SMOOTH",
"151 510 OFFCURVE",
"135 497 OFFCURVE",
"132 479 CURVE SMOOTH",
"127 456 LINE SMOOTH",
"123 438 OFFCURVE",
"133 425 OFFCURVE",
"151 425 CURVE SMOOTH"
);
},
{
closed = 1;
nodes = (
"65 0 LINE SMOOTH",
"83 0 OFFCURVE",
"99 13 OFFCURVE",
"102 31 CURVE SMOOTH",
"107 54 LINE SMOOTH",
"111 72 OFFCURVE",
"101 85 OFFCURVE",
"83 85 CURVE SMOOTH",
"79 85 LINE SMOOTH",
"61 85 OFFCURVE",
"45 72 OFFCURVE",
"41 54 CURVE SMOOTH",
"36 31 LINE SMOOTH",
"33 13 OFFCURVE",
"43 0 OFFCURVE",
"61 0 CURVE SMOOTH"
);
}
);
width = 244.527;
}
);
unicode = 003A;
},
{
glyphname = comma;
lastChange = "2013-12-18 08:31:27 +0400";
layers = (
{
layerId = "6A4EEAE7-E2C6-4FA4-83F5-ABDB5FD8E17B";
name = Light;
paths = (
{
closed = 1;
nodes = (
"-13 -101 OFFCURVE",
"-4 -104 OFFCURVE",
"8 -98 CURVE SMOOTH",
"60 -75 OFFCURVE",
"84 -43 OFFCURVE",
"96 12 CURVE SMOOTH",
"106 56 LINE SMOOTH",
"110 76 OFFCURVE",
"102 86 OFFCURVE",
"82 86 CURVE SMOOTH",
"76 86 LINE SMOOTH",
"57 86 OFFCURVE",
"44 75 OFFCURVE",
"40 56 CURVE SMOOTH",
"34 31 LINE SMOOTH",
"31 14 OFFCURVE",
"35 3 OFFCURVE",
"50 1 CURVE SMOOTH",
"53 1 OFFCURVE",
"54 -1 OFFCURVE",
"54 -4 CURVE SMOOTH",
"50 -33 OFFCURVE",
"33 -53 OFFCURVE",
"1 -71 CURVE SMOOTH",
"-12 -78 OFFCURVE",
"-17 -85 OFFCURVE",
"-15 -93 CURVE SMOOTH"
);
}
);
width = 207;
}
);
unicode = 002C;
},
{
glyphname = ellipsis;
lastChange = "2013-12-18 08:31:27 +0400";
layers = (
{
layerId = "6A4EEAE7-E2C6-4FA4-83F5-ABDB5FD8E17B";
name = Light;
paths = (
{
closed = 1;
nodes = (
"494 0 LINE SMOOTH",
"512 0 OFFCURVE",
"528 13 OFFCURVE",
"532 31 CURVE SMOOTH",
"536 52 LINE SMOOTH",
"540 70 OFFCURVE",
"530 83 OFFCURVE",
"512 83 CURVE SMOOTH",
"510 83 LINE SMOOTH",
"492 83 OFFCURVE",
"476 70 OFFCURVE",
"472 52 CURVE SMOOTH",
"468 31 LINE SMOOTH",
"464 13 OFFCURVE",
"474 0 OFFCURVE",
"492 0 CURVE SMOOTH"
);
},
{
closed = 1;
nodes = (
"268 0 LINE SMOOTH",
"286 0 OFFCURVE",
"302 13 OFFCURVE",
"306 31 CURVE SMOOTH",
"310 52 LINE SMOOTH",
"314 70 OFFCURVE",
"304 83 OFFCURVE",
"286 83 CURVE SMOOTH",
"284 83 LINE SMOOTH",
"266 83 OFFCURVE",
"250 70 OFFCURVE",
"246 52 CURVE SMOOTH",
"242 31 LINE SMOOTH",
"238 13 OFFCURVE",
"248 0 OFFCURVE",
"266 0 CURVE SMOOTH"
);
},
{
closed = 1;
nodes = (
"42 0 LINE SMOOTH",
"60 0 OFFCURVE",
"76 13 OFFCURVE",
"80 31 CURVE SMOOTH",
"84 52 LINE SMOOTH",
"88 70 OFFCURVE",
"78 83 OFFCURVE",
"60 83 CURVE SMOOTH",
"58 83 LINE SMOOTH",
"40 83 OFFCURVE",
"24 70 OFFCURVE",
"20 52 CURVE SMOOTH",
"16 31 LINE SMOOTH",
"12 13 OFFCURVE",
"22 0 OFFCURVE",
"40 0 CURVE SMOOTH"
);
}
);
width = 636.875;
}
);
unicode = 2026;
},
{
glyphname = exclam;
lastChange = "2013-12-18 08:31:27 +0400";
layers = (
{
layerId = "6A4EEAE7-E2C6-4FA4-83F5-ABDB5FD8E17B";
name = Light;
paths = (
{
closed = 1;
nodes = (
"189 700 OFFCURVE",
"175 687 OFFCURVE",
"171 669 CURVE SMOOTH",
"163 630 LINE",
"86 203 LINE SMOOTH",
"84 191 OFFCURVE",
"89 183 OFFCURVE",
"97 183 CURVE SMOOTH",
"105 183 OFFCURVE",
"112 191 OFFCURVE",
"116 203 CURVE SMOOTH",
"221 630 LINE",
"229 669 LINE SMOOTH",
"233 687 OFFCURVE",
"223 700 OFFCURVE",
"206 700 CURVE SMOOTH"
);
},
{
closed = 1;
nodes = (
"60 0 LINE SMOOTH",
"78 0 OFFCURVE",
"93 13 OFFCURVE",
"97 31 CURVE SMOOTH",
"102 54 LINE SMOOTH",
"106 72 OFFCURVE",
"96 85 OFFCURVE",
"78 85 CURVE SMOOTH",
"74 85 LINE SMOOTH",
"56 85 OFFCURVE",
"40 72 OFFCURVE",
"36 54 CURVE SMOOTH",
"31 31 LINE SMOOTH",
"27 13 OFFCURVE",
"38 0 OFFCURVE",
"56 0 CURVE SMOOTH"
);
}
);
width = 239.699;
}
);
unicode = 0021;
},
{
glyphname = exclamdown;
lastChange = "2013-12-18 08:31:27 +0400";
layers = (
{
layerId = "6A4EEAE7-E2C6-4FA4-83F5-ABDB5FD8E17B";
name = Light;
paths = (
{
closed = 1;
nodes = (
"51 -200 OFFCURVE",
"65 -187 OFFCURVE",
"69 -169 CURVE SMOOTH",
"77 -130 LINE",
"154 297 LINE SMOOTH",
"156 309 OFFCURVE",
"151 317 OFFCURVE",
"143 317 CURVE SMOOTH",
"135 317 OFFCURVE",
"128 309 OFFCURVE",
"124 297 CURVE SMOOTH",
"19 -130 LINE",
"11 -169 LINE SMOOTH",
"7 -187 OFFCURVE",
"17 -200 OFFCURVE",
"34 -200 CURVE SMOOTH"
);
},
{
closed = 1;
nodes = (
"162 500 OFFCURVE",
"147 487 OFFCURVE",
"143 469 CURVE SMOOTH",
"138 446 LINE SMOOTH",
"134 428 OFFCURVE",
"144 415 OFFCURVE",
"162 415 CURVE SMOOTH",
"166 415 LINE SMOOTH",
"184 415 OFFCURVE",
"200 428 OFFCURVE",
"204 446 CURVE SMOOTH",
"209 469 LINE SMOOTH",
"213 487 OFFCURVE",
"202 500 OFFCURVE",
"184 500 CURVE SMOOTH",
"180 500 LINE SMOOTH"
);
}
);
width = 239.64;
}
);
unicode = 00A1;
},
{
glyphname = numbersign;
lastChange = "2013-12-18 08:31:27 +0400";
layers = (
{
layerId = "6A4EEAE7-E2C6-4FA4-83F5-ABDB5FD8E17B";
name = Light;
paths = (
{
closed = 1;
nodes = (
"663 470 LINE SMOOTH",
"677 470 OFFCURVE",
"689 479 OFFCURVE",
"692 492 CURVE SMOOTH",
"695 506 OFFCURVE",
"686 517 OFFCURVE",
"672 517 CURVE SMOOTH",
"582 517 LINE SMOOTH",
"579 517 OFFCURVE",
"578 519 OFFCURVE",
"580 522 CURVE SMOOTH",
"636 669 LINE SMOOTH",
"642 686 OFFCURVE",
"635 700 OFFCURVE",
"619 700 CURVE SMOOTH",
"607 700 OFFCURVE",
"597 692 OFFCURVE",
"592 680 CURVE SMOOTH",
"532 522 LINE SMOOTH",
"530 519 OFFCURVE",
"527 517 OFFCURVE",
"524 517 CURVE SMOOTH",
"327 517 LINE SMOOTH",
"324 517 OFFCURVE",
"323 519 OFFCURVE",
"325 522 CURVE SMOOTH",
"381 669 LINE SMOOTH",
"387 686 OFFCURVE",
"380 700 OFFCURVE",
"364 700 CURVE SMOOTH",
"352 700 OFFCURVE",
"342 692 OFFCURVE",
"337 680 CURVE SMOOTH",
"277 522 LINE SMOOTH",
"275 519 OFFCURVE",
"272 517 OFFCURVE",
"269 517 CURVE SMOOTH",
"161 517 LINE SMOOTH",
"147 517 OFFCURVE",
"135 508 OFFCURVE",
"132 495 CURVE SMOOTH",
"129 481 OFFCURVE",
"138 470 OFFCURVE",
"153 470 CURVE SMOOTH",
"252 470 LINE SMOOTH",
"255 470 OFFCURVE",
"256 468 OFFCURVE",
"254 465 CURVE SMOOTH",
"167 239 LINE SMOOTH",
"166 236 OFFCURVE",
"163 234 OFFCURVE",
"160 234 CURVE SMOOTH",
"61 234 LINE SMOOTH",
"47 234 OFFCURVE",
"34 225 OFFCURVE",
"32 212 CURVE SMOOTH",
"29 198 OFFCURVE",
"37 187 OFFCURVE",
"51 187 CURVE SMOOTH",
"142 187 LINE SMOOTH",
"145 187 OFFCURVE",
"147 185 OFFCURVE",
"145 182 CURVE SMOOTH",
"87 32 LINE SMOOTH",
"81 14 OFFCURVE",
"88 0 OFFCURVE",
"104 0 CURVE SMOOTH",
"116 0 OFFCURVE",
"126 8 OFFCURVE",
"131 20 CURVE SMOOTH",
"193 182 LINE SMOOTH",
"195 185 OFFCURVE",
"197 187 OFFCURVE",
"200 187 CURVE SMOOTH",
"397 187 LINE SMOOTH",
"400 187 OFFCURVE",
"402 185 OFFCURVE",
"400 182 CURVE SMOOTH",
"342 32 LINE SMOOTH",
"336 14 OFFCURVE",
"343 0 OFFCURVE",
"359 0 CURVE SMOOTH",
"371 0 OFFCURVE",
"381 8 OFFCURVE",
"386 20 CURVE SMOOTH",
"448 182 LINE SMOOTH",
"450 185 OFFCURVE",
"452 187 OFFCURVE",
"455 187 CURVE SMOOTH",
"562 187 LINE SMOOTH",
"576 187 OFFCURVE",
"589 196 OFFCURVE",
"592 209 CURVE SMOOTH",
"595 223 OFFCURVE",
"586 234 OFFCURVE",
"572 234 CURVE SMOOTH",
"473 234 LINE SMOOTH",
"470 234 OFFCURVE",
"469 236 OFFCURVE",
"470 239 CURVE SMOOTH",
"557 465 LINE SMOOTH",
"559 468 OFFCURVE",
"562 470 OFFCURVE",
"565 470 CURVE SMOOTH"
);
},
{
closed = 1;
nodes = (
"507 470 LINE SMOOTH",
"510 470 OFFCURVE",
"511 468 OFFCURVE",
"509 465 CURVE SMOOTH",
"422 239 LINE SMOOTH",
"421 236 OFFCURVE",
"418 234 OFFCURVE",
"415 234 CURVE SMOOTH",
"218 234 LINE SMOOTH",
"215 234 OFFCURVE",
"214 236 OFFCURVE",
"215 239 CURVE SMOOTH",
"302 465 LINE SMOOTH",
"304 468 OFFCURVE",
"307 470 OFFCURVE",
"310 470 CURVE SMOOTH"
);
}
);
width = 704.576;
}
);
unicode = 0023;
},
{
glyphname = period;
lastChange = "2013-12-18 08:31:27 +0400";
layers = (
{
layerId = "6A4EEAE7-E2C6-4FA4-83F5-ABDB5FD8E17B";
name = Light;
paths = (
{
closed = 1;
nodes = (
"44 0 LINE SMOOTH",
"62 0 OFFCURVE",
"78 13 OFFCURVE",
"82 31 CURVE SMOOTH",
"86 54 LINE SMOOTH",
"90 72 OFFCURVE",
"80 85 OFFCURVE",
"62 85 CURVE SMOOTH",
"58 85 LINE SMOOTH",
"40 85 OFFCURVE",
"24 72 OFFCURVE",
"20 54 CURVE SMOOTH",
"16 31 LINE SMOOTH",
"12 13 OFFCURVE",
"22 0 OFFCURVE",
"40 0 CURVE SMOOTH"
);
}
);
width = 186.875;
}
);
unicode = 002E;
},
{
glyphname = periodcentered;
lastChange = "2013-12-18 08:31:27 +0400";
layers = (
{
layerId = "6A4EEAE7-E2C6-4FA4-83F5-ABDB5FD8E17B";
name = Light;
paths = (
{
closed = 1;
nodes = (
"99 255 LINE SMOOTH",
"117 255 OFFCURVE",
"133 268 OFFCURVE",
"137 286 CURVE SMOOTH",
"141 309 LINE SMOOTH",
"145 327 OFFCURVE",
"135 340 OFFCURVE",
"117 340 CURVE SMOOTH",
"113 340 LINE SMOOTH",
"95 340 OFFCURVE",
"79 327 OFFCURVE",
"75 309 CURVE SMOOTH",
"71 286 LINE SMOOTH",
"67 268 OFFCURVE",
"77 255 OFFCURVE",
"95 255 CURVE SMOOTH"
);
}
);
width = 206.875;
}
);
unicode = 00B7;
},
{
glyphname = question;
lastChange = "2013-12-18 08:31:27 +0400";
layers = (
{
layerId = "6A4EEAE7-E2C6-4FA4-83F5-ABDB5FD8E17B";
name = Light;
paths = (
{
closed = 1;
nodes = (
"178 209 LINE SMOOTH",
"176 198 OFFCURVE",
"182 189 OFFCURVE",
"194 189 CURVE SMOOTH",
"205 189 OFFCURVE",
"216 198 OFFCURVE",
"218 209 CURVE SMOOTH",
"234 281 LINE SMOOTH",
"234 284 OFFCURVE",
"236 286 OFFCURVE",
"239 286 CURVE SMOOTH",
"346 308 OFFCURVE",
"446 401 OFFCURVE",
"469 509 CURVE SMOOTH",
"495 631 OFFCURVE",
"413 735 OFFCURVE",
"291 735 CURVE SMOOTH",
"217 735 OFFCURVE",
"139 696 OFFCURVE",
"87 640 CURVE",
"77 630 OFFCURVE",
"78 617 OFFCURVE",
"88 611 CURVE SMOOTH",
"96 606 OFFCURVE",
"107 609 OFFCURVE",
"115 618 CURVE",
"159 665 OFFCURVE",
"221 695 OFFCURVE",
"283 695 CURVE SMOOTH",
"386 695 OFFCURVE",
"451 612 OFFCURVE",
"429 509 CURVE SMOOTH",
"408 411 OFFCURVE",
"318 332 OFFCURVE",
"223 323 CURVE",
"212 323 OFFCURVE",
"201 314 OFFCURVE",
"198 303 CURVE SMOOTH"
);
},
{
closed = 1;
nodes = (
"138 20 LINE SMOOTH",
"136 9 OFFCURVE",
"142 0 OFFCURVE",
"154 0 CURVE SMOOTH",
"165 0 OFFCURVE",
"176 9 OFFCURVE",
"178 20 CURVE SMOOTH",
"187 61 LINE SMOOTH",
"189 72 OFFCURVE",
"183 81 OFFCURVE",
"171 81 CURVE SMOOTH",
"160 81 OFFCURVE",
"149 72 OFFCURVE",
"147 61 CURVE SMOOTH"
);
}
);
width = 493.82;
}
);
unicode = 003F;
},
{
glyphname = questiondown;
lastChange = "2013-12-18 08:31:27 +0400";
layers = (
{
layerId = "6A4EEAE7-E2C6-4FA4-83F5-ABDB5FD8E17B";
name = Light;
paths = (
{
closed = 1;
nodes = (
"316 346 LINE SMOOTH",
"318 357 OFFCURVE",
"312 366 OFFCURVE",
"300 366 CURVE SMOOTH",
"289 366 OFFCURVE",
"278 357 OFFCURVE",
"276 346 CURVE SMOOTH",
"260 274 LINE SMOOTH",
"260 271 OFFCURVE",
"258 269 OFFCURVE",
"255 269 CURVE SMOOTH",
"148 247 OFFCURVE",
"48 154 OFFCURVE",
"25 46 CURVE SMOOTH",
"-1 -76 OFFCURVE",
"81 -180 OFFCURVE",
"203 -180 CURVE SMOOTH",
"277 -180 OFFCURVE",
"355 -141 OFFCURVE",
"407 -85 CURVE",
"417 -75 OFFCURVE",
"416 -62 OFFCURVE",
"406 -56 CURVE SMOOTH",
"398 -51 OFFCURVE",
"387 -54 OFFCURVE",
"379 -63 CURVE",
"335 -110 OFFCURVE",
"273 -140 OFFCURVE",
"211 -140 CURVE SMOOTH",
"108 -140 OFFCURVE",
"43 -57 OFFCURVE",
"65 46 CURVE SMOOTH",
"86 144 OFFCURVE",
"176 223 OFFCURVE",
"271 232 CURVE",
"282 232 OFFCURVE",
"293 241 OFFCURVE",
"296 252 CURVE SMOOTH"
);
},
{
closed = 1;
nodes = (
"356 535 LINE SMOOTH",
"358 546 OFFCURVE",
"352 555 OFFCURVE",
"340 555 CURVE SMOOTH",
"329 555 OFFCURVE",
"318 546 OFFCURVE",
"316 535 CURVE SMOOTH",
"307 494 LINE SMOOTH",
"305 483 OFFCURVE",
"311 474 OFFCURVE",
"323 474 CURVE SMOOTH",
"334 474 OFFCURVE",
"345 483 OFFCURVE",
"347 494 CURVE SMOOTH"
);
}
);
width = 494.216;
}
);
unicode = 00BF;
},
{
glyphname = quotedbl;
lastChange = "2013-12-18 08:31:27 +0400";
layers = (
{
layerId = "6A4EEAE7-E2C6-4FA4-83F5-ABDB5FD8E17B";
name = Light;
paths = (
{
closed = 1;
nodes = (
"262 467 LINE SMOOTH",
"258 454 OFFCURVE",
"259 446 OFFCURVE",
"266 446 CURVE SMOOTH",
"278 446 OFFCURVE",
"287 451 OFFCURVE",
"293 463 CURVE SMOOTH",
"401 681 LINE SMOOTH",
"406 691 OFFCURVE",
"406 699 OFFCURVE",
"396 700 CURVE SMOOTH",
"394 700 OFFCURVE",
"391 700 OFFCURVE",
"389 700 CURVE SMOOTH",
"363 700 LINE SMOOTH",
"350 700 OFFCURVE",
"342 694 OFFCURVE",
"337 681 CURVE SMOOTH"
);
},
{
closed = 1;
nodes = (
"82 467 LINE SMOOTH",
"78 454 OFFCURVE",
"79 446 OFFCURVE",
"86 446 CURVE SMOOTH",
"98 446 OFFCURVE",
"107 451 OFFCURVE",
"113 463 CURVE SMOOTH",
"221 681 LINE SMOOTH",
"226 691 OFFCURVE",
"226 699 OFFCURVE",
"216 700 CURVE SMOOTH",
"214 700 OFFCURVE",
"211 700 OFFCURVE",
"209 700 CURVE SMOOTH",
"183 700 LINE SMOOTH",
"170 700 OFFCURVE",
"162 694 OFFCURVE",
"157 681 CURVE SMOOTH"
);
}
);
width = 424.801;
}
);
unicode = 0022;
},
{
glyphname = quotesingle;
lastChange = "2013-12-18 08:31:27 +0400";
layers = (
{
layerId = "6A4EEAE7-E2C6-4FA4-83F5-ABDB5FD8E17B";
name = Light;
paths = (
{
closed = 1;
nodes = (
"82 467 LINE SMOOTH",
"78 454 OFFCURVE",
"79 446 OFFCURVE",
"86 446 CURVE SMOOTH",
"98 446 OFFCURVE",
"107 451 OFFCURVE",
"113 463 CURVE SMOOTH",
"221 681 LINE SMOOTH",
"226 691 OFFCURVE",
"226 699 OFFCURVE",
"216 700 CURVE SMOOTH",
"214 700 OFFCURVE",
"211 700 OFFCURVE",
"209 700 CURVE SMOOTH",
"183 700 LINE SMOOTH",
"170 700 OFFCURVE",
"162 694 OFFCURVE",
"157 681 CURVE SMOOTH"
);
}
);
width = 244.285;
}
);
unicode = 0027;
},
{
glyphname = semicolon;
lastChange = "2013-12-18 08:31:27 +0400";
layers = (
{
layerId = "6A4EEAE7-E2C6-4FA4-83F5-ABDB5FD8E17B";
name = Light;
paths = (
{
closed = 1;
nodes = (
"174 425 LINE SMOOTH",
"192 425 OFFCURVE",
"208 438 OFFCURVE",
"212 456 CURVE SMOOTH",
"216 479 LINE SMOOTH",
"220 497 OFFCURVE",
"210 510 OFFCURVE",
"192 510 CURVE SMOOTH",
"188 510 LINE SMOOTH",
"170 510 OFFCURVE",
"154 497 OFFCURVE",
"150 479 CURVE SMOOTH",
"146 456 LINE SMOOTH",
"142 438 OFFCURVE",
"152 425 OFFCURVE",
"170 425 CURVE SMOOTH"
);
},
{
closed = 1;
nodes = (
"8 -102 OFFCURVE",
"16 -105 OFFCURVE",
"29 -99 CURVE SMOOTH",
"81 -76 OFFCURVE",
"105 -44 OFFCURVE",
"117 11 CURVE SMOOTH",
"126 55 LINE SMOOTH",
"131 75 OFFCURVE",
"123 85 OFFCURVE",
"103 85 CURVE SMOOTH",
"97 85 LINE SMOOTH",
"78 85 OFFCURVE",
"64 74 OFFCURVE",
"60 55 CURVE SMOOTH",
"55 30 LINE SMOOTH",
"51 13 OFFCURVE",
"56 2 OFFCURVE",
"71 0 CURVE SMOOTH",
"74 0 OFFCURVE",
"75 -2 OFFCURVE",
"75 -5 CURVE SMOOTH",
"70 -34 OFFCURVE",
"54 -54 OFFCURVE",
"21 -72 CURVE SMOOTH",
"9 -79 OFFCURVE",
"3 -86 OFFCURVE",
"6 -94 CURVE SMOOTH"
);
}
);
width = 262.876;
}
);
unicode = 003B;
},
{
glyphname = slash;
lastChange = "2013-12-22 08:07:04 +0400";
layers = (
{
layerId = "6A4EEAE7-E2C6-4FA4-83F5-ABDB5FD8E17B";
name = Light;
paths = (
{
closed = 1;
nodes = (
"578 798 LINE SMOOTH",
"567 798 OFFCURVE",
"561 794 OFFCURVE",
"554 784 CURVE SMOOTH",
"22 -104 LINE SMOOTH",
"14 -118 OFFCURVE",
"19 -128 OFFCURVE",
"35 -128 CURVE SMOOTH",
"41 -128 LINE SMOOTH",
"52 -128 OFFCURVE",
"58 -124 OFFCURVE",
"65 -114 CURVE SMOOTH",
"597 774 LINE SMOOTH",
"605 788 OFFCURVE",
"601 798 OFFCURVE",
"587 798 CURVE SMOOTH"
);
}
);
width = 610.888;
}
);
unicode = 002F;
},
{
glyphname = underscore;
lastChange = "2013-12-18 08:31:27 +0400";
layers = (
{
layerId = "6A4EEAE7-E2C6-4FA4-83F5-ABDB5FD8E17B";
name = Light;
paths = (
{
closed = 1;
nodes = (
"-55 -116 LINE SMOOTH",
"-68 -116 OFFCURVE",
"-79 -125 OFFCURVE",
"-82 -138 CURVE SMOOTH",
"-85 -151 OFFCURVE",
"-78 -160 OFFCURVE",
"-65 -160 CURVE SMOOTH",
"495 -160 LINE SMOOTH",
"508 -160 OFFCURVE",
"519 -151 OFFCURVE",
"522 -138 CURVE SMOOTH",
"525 -125 OFFCURVE",
"518 -116 OFFCURVE",
"505 -116 CURVE SMOOTH"
);
}
);
width = 604.689;
}
);
unicode = 005F;
},
{
glyphname = braceleft;
lastChange = "2013-12-18 08:31:27 +0400";
layers = (
{
layerId = "6A4EEAE7-E2C6-4FA4-83F5-ABDB5FD8E17B";
name = Light;
paths = (
{
closed = 1;
nodes = (
"470 768 OFFCURVE",
"461 774 OFFCURVE",
"448 771 CURVE SMOOTH",
"280 736 OFFCURVE",
"236 672 OFFCURVE",
"215 572 CURVE SMOOTH",
"198 493 LINE SMOOTH",
"182 415 OFFCURVE",
"139 336 OFFCURVE",
"45 336 CURVE SMOOTH",
"39 336 LINE SMOOTH",
"28 336 OFFCURVE",
"17 328 OFFCURVE",
"15 318 CURVE SMOOTH",
"13 307 OFFCURVE",
"20 298 OFFCURVE",
"31 298 CURVE SMOOTH",
"37 298 LINE SMOOTH",
"131 298 OFFCURVE",
"140 219 OFFCURVE",
"124 141 CURVE SMOOTH",
"107 62 LINE SMOOTH",
"86 -38 OFFCURVE",
"102 -102 OFFCURVE",
"255 -137 CURVE SMOOTH",
"267 -139 OFFCURVE",
"277 -136 OFFCURVE",
"280 -128 CURVE SMOOTH",
"285 -117 OFFCURVE",
"281 -107 OFFCURVE",
"270 -104 CURVE SMOOTH",
"143 -67 OFFCURVE",
"136 -29 OFFCURVE",
"157 68 CURVE SMOOTH",
"173 143 LINE SMOOTH",
"191 229 OFFCURVE",
"170 290 OFFCURVE",
"113 314 CURVE SMOOTH",
"110 316 OFFCURVE",
"110 318 OFFCURVE",
"115 320 CURVE SMOOTH",
"177 341 OFFCURVE",
"229 406 OFFCURVE",
"247 491 CURVE SMOOTH",
"263 566 LINE SMOOTH",
"284 663 OFFCURVE",
"307 701 OFFCURVE",
"449 738 CURVE SMOOTH",
"461 741 OFFCURVE",
"470 750 OFFCURVE",
"470 759 CURVE SMOOTH"
);
}
);
width = 393;
}
);
unicode = 007B;
},
{
glyphname = braceright;
lastChange = "2013-12-18 08:31:27 +0400";
layers = (
{
layerId = "6A4EEAE7-E2C6-4FA4-83F5-ABDB5FD8E17B";
name = Light;
paths = (
{
closed = 1;
nodes = (
"113 750 OFFCURVE",
"118 741 OFFCURVE",
"128 738 CURVE SMOOTH",
"256 701 OFFCURVE",
"263 663 OFFCURVE",
"242 566 CURVE SMOOTH",
"226 491 LINE SMOOTH",
"208 406 OFFCURVE",
"232 341 OFFCURVE",
"286 320 CURVE SMOOTH",
"289 318 OFFCURVE",
"289 316 OFFCURVE",
"284 314 CURVE SMOOTH",
"217 290 OFFCURVE",
"170 229 OFFCURVE",
"152 143 CURVE SMOOTH",
"136 68 LINE SMOOTH",
"115 -29 OFFCURVE",
"92 -67 OFFCURVE",
"-51 -104 CURVE SMOOTH",
"-62 -107 OFFCURVE",
"-70 -117 OFFCURVE",
"-71 -128 CURVE SMOOTH",
"-70 -136 OFFCURVE",
"-62 -139 OFFCURVE",
"-50 -137 CURVE SMOOTH",
"119 -102 OFFCURVE",
"163 -38 OFFCURVE",
"184 62 CURVE SMOOTH",
"201 141 LINE SMOOTH",
"217 219 OFFCURVE",
"260 298 OFFCURVE",
"354 298 CURVE SMOOTH",
"360 298 LINE SMOOTH",
"371 298 OFFCURVE",
"382 307 OFFCURVE",
"384 318 CURVE SMOOTH",
"386 328 OFFCURVE",
"379 336 OFFCURVE",
"368 336 CURVE SMOOTH",
"362 336 LINE SMOOTH",
"268 336 OFFCURVE",
"259 415 OFFCURVE",
"275 493 CURVE SMOOTH",
"292 572 LINE SMOOTH",
"313 672 OFFCURVE",
"297 736 OFFCURVE",
"143 771 CURVE SMOOTH",
"132 774 OFFCURVE",
"121 768 OFFCURVE",
"117 759 CURVE SMOOTH"
);
}
);
width = 391.34;
}
);
unicode = 007D;
},
{
glyphname = bracketleft;
lastChange = "2013-12-18 08:31:27 +0400";
layers = (
{
layerId = "6A4EEAE7-E2C6-4FA4-83F5-ABDB5FD8E17B";
name = Light;
paths = (
{
closed = 1;
nodes = (
"455 752 OFFCURVE",
"448 760 OFFCURVE",
"437 760 CURVE SMOOTH",
"204 760 LINE SMOOTH",
"193 760 OFFCURVE",
"182 751 OFFCURVE",
"179 740 CURVE SMOOTH",
"-1 -110 LINE SMOOTH",
"-4 -121 OFFCURVE",
"3 -130 OFFCURVE",
"14 -130 CURVE SMOOTH",
"247 -130 LINE SMOOTH",
"258 -130 OFFCURVE",
"269 -122 OFFCURVE",
"271 -112 CURVE SMOOTH",
"274 -101 OFFCURVE",
"266 -92 OFFCURVE",
"255 -92 CURVE SMOOTH",
"53 -92 LINE SMOOTH",
"50 -92 OFFCURVE",
"49 -90 OFFCURVE",
"50 -87 CURVE SMOOTH",
"220 717 LINE SMOOTH",
"221 720 OFFCURVE",
"224 722 OFFCURVE",
"227 722 CURVE SMOOTH",
"429 722 LINE SMOOTH",
"440 722 OFFCURVE",
"450 730 OFFCURVE",
"453 741 CURVE SMOOTH"
);
}
);
width = 379.34;
}
);
unicode = 005B;
},
{
glyphname = bracketright;
lastChange = "2013-12-18 08:31:27 +0400";
layers = (
{
layerId = "6A4EEAE7-E2C6-4FA4-83F5-ABDB5FD8E17B";
name = Light;
paths = (
{
closed = 1;
nodes = (
"112 730 OFFCURVE",
"120 722 OFFCURVE",
"131 722 CURVE SMOOTH",
"333 722 LINE SMOOTH",
"336 722 OFFCURVE",
"337 720 OFFCURVE",
"336 717 CURVE SMOOTH",
"166 -87 LINE SMOOTH",
"165 -90 OFFCURVE",
"162 -92 OFFCURVE",
"159 -92 CURVE SMOOTH",
"-43 -92 LINE SMOOTH",
"-54 -92 OFFCURVE",
"-64 -101 OFFCURVE",
"-67 -112 CURVE SMOOTH",
"-69 -122 OFFCURVE",
"-62 -130 OFFCURVE",
"-51 -130 CURVE SMOOTH",
"182 -130 LINE SMOOTH",
"193 -130 OFFCURVE",
"204 -121 OFFCURVE",
"207 -110 CURVE SMOOTH",
"387 740 LINE SMOOTH",
"390 751 OFFCURVE",
"383 760 OFFCURVE",
"372 760 CURVE SMOOTH",
"139 760 LINE SMOOTH",
"128 760 OFFCURVE",
"117 752 OFFCURVE",
"115 741 CURVE SMOOTH"
);
}
);
width = 360.696;
}
);
unicode = 005D;
},
{
glyphname = parenleft;
lastChange = "2013-12-18 08:31:27 +0400";
layers = (
{
layerId = "6A4EEAE7-E2C6-4FA4-83F5-ABDB5FD8E17B";
name = Light;
paths = (
{
closed = 1;
nodes = (
"434 760 LINE SMOOTH",
"430 769 OFFCURVE",
"419 771 OFFCURVE",
"409 766 CURVE SMOOTH",
"222 666 OFFCURVE",
"90 492 OFFCURVE",
"53 317 CURVE SMOOTH",
"16 142 OFFCURVE",
"73 -31 OFFCURVE",
"218 -131 CURVE SMOOTH",
"226 -137 OFFCURVE",
"238 -134 OFFCURVE",
"246 -125 CURVE SMOOTH",
"254 -115 OFFCURVE",
"254 -104 OFFCURVE",
"246 -97 CURVE SMOOTH",
"119 -1 OFFCURVE",
"71 156 OFFCURVE",
"105 317 CURVE SMOOTH",
"139 478 OFFCURVE",
"255 635 OFFCURVE",
"422 731 CURVE SMOOTH",
"433 738 OFFCURVE",
"439 749 OFFCURVE",
"435 759 CURVE SMOOTH"
);
}
);
width = 364.243;
}
);
unicode = 0028;
},
{
glyphname = parenright;
lastChange = "2013-12-18 08:31:27 +0400";
layers = (
{
layerId = "6A4EEAE7-E2C6-4FA4-83F5-ABDB5FD8E17B";
name = Light;
paths = (
{
closed = 1;
nodes = (
"122 749 OFFCURVE",
"122 738 OFFCURVE",
"131 731 CURVE SMOOTH",
"258 635 OFFCURVE",
"306 478 OFFCURVE",
"272 317 CURVE SMOOTH",
"238 156 OFFCURVE",
"122 -1 OFFCURVE",
"-45 -97 CURVE SMOOTH",
"-57 -104 OFFCURVE",
"-61 -115 OFFCURVE",
"-57 -125 CURVE SMOOTH",
"-53 -134 OFFCURVE",
"-43 -137 OFFCURVE",
"-31 -131 CURVE SMOOTH",
"156 -31 OFFCURVE",
"287 142 OFFCURVE",
"324 317 CURVE SMOOTH",
"361 492 OFFCURVE",
"303 666 OFFCURVE",
"158 766 CURVE SMOOTH",
"150 771 OFFCURVE",
"139 769 OFFCURVE",
"131 760 CURVE SMOOTH",
"130 759 LINE SMOOTH"
);
}
);
width = 369.868;
}
);
unicode = 0029;
},
{
glyphname = emdash;
lastChange = "2013-12-18 08:31:27 +0400";
layers = (
{
layerId = "6A4EEAE7-E2C6-4FA4-83F5-ABDB5FD8E17B";
name = Light;
paths = (
{
closed = 1;
nodes = (
"785 271 LINE SMOOTH",
"799 271 OFFCURVE",
"813 282 OFFCURVE",
"816 296 CURVE SMOOTH",
"816 298 LINE SMOOTH",
"819 312 OFFCURVE",
"811 323 OFFCURVE",
"797 323 CURVE SMOOTH",
"89 323 LINE SMOOTH",
"75 323 OFFCURVE",
"61 312 OFFCURVE",
"58 298 CURVE SMOOTH",
"58 296 LINE SMOOTH",
"55 282 OFFCURVE",
"63 271 OFFCURVE",
"77 271 CURVE SMOOTH"
);
}
);
width = 868.627;
}
);
unicode = 2014;
},
{
glyphname = endash;
lastChange = "2013-12-18 08:31:27 +0400";
layers = (
{
layerId = "6A4EEAE7-E2C6-4FA4-83F5-ABDB5FD8E17B";
name = Light;
paths = (
{
closed = 1;
nodes = (
"410 271 LINE SMOOTH",
"424 271 OFFCURVE",
"438 282 OFFCURVE",
"441 296 CURVE SMOOTH",
"441 298 LINE SMOOTH",
"444 312 OFFCURVE",
"436 323 OFFCURVE",
"422 323 CURVE SMOOTH",
"84 323 LINE SMOOTH",
"70 323 OFFCURVE",
"56 312 OFFCURVE",
"53 298 CURVE SMOOTH",
"53 296 LINE SMOOTH",
"50 282 OFFCURVE",
"58 271 OFFCURVE",
"72 271 CURVE SMOOTH"
);
}
);
width = 487.627;
}
);
unicode = 2013;
},
{
glyphname = hyphen;
lastChange = "2013-12-18 08:31:27 +0400";
layers = (
{
layerId = "6A4EEAE7-E2C6-4FA4-83F5-ABDB5FD8E17B";
name = Light;
paths = (
{
closed = 1;
nodes = (
"287 269 LINE SMOOTH",
"304 269 OFFCURVE",
"318 280 OFFCURVE",
"322 296 CURVE SMOOTH",
"325 313 OFFCURVE",
"316 325 OFFCURVE",
"299 325 CURVE SMOOTH",
"89 325 LINE SMOOTH",
"72 325 OFFCURVE",
"58 314 OFFCURVE",
"54 298 CURVE SMOOTH",
"51 281 OFFCURVE",
"60 269 OFFCURVE",
"77 269 CURVE SMOOTH"
);
}
);
width = 379.57;
}
);
unicode = 002D;
},
{
glyphname = guillemetleft;
lastChange = "2013-12-18 08:31:27 +0400";
layers = (
{
layerId = "6A4EEAE7-E2C6-4FA4-83F5-ABDB5FD8E17B";
name = Light;
paths = (
{
closed = 1;
nodes = (
"468 457 LINE SMOOTH",
"458 463 OFFCURVE",
"446 461 OFFCURVE",
"436 451 CURVE SMOOTH",
"264 272 LINE SMOOTH",
"253 262 OFFCURVE",
"251 248 OFFCURVE",
"256 238 CURVE SMOOTH",
"352 59 LINE SMOOTH",
"358 49 OFFCURVE",
"370 47 OFFCURVE",
"382 53 CURVE SMOOTH",
"383 54 LINE SMOOTH",
"395 61 OFFCURVE",
"400 75 OFFCURVE",
"393 86 CURVE SMOOTH",
"309 252 LINE SMOOTH",
"308 255 OFFCURVE",
"308 257 OFFCURVE",
"311 259 CURVE SMOOTH",
"465 424 LINE SMOOTH",
"476 435 OFFCURVE",
"477 449 OFFCURVE",
"469 456 CURVE SMOOTH"
);
},
{
closed = 1;
nodes = (
"264 457 LINE SMOOTH",
"254 463 OFFCURVE",
"242 461 OFFCURVE",
"232 451 CURVE SMOOTH",
"60 272 LINE SMOOTH",
"49 262 OFFCURVE",
"47 248 OFFCURVE",
"52 238 CURVE SMOOTH",
"148 59 LINE SMOOTH",
"154 49 OFFCURVE",
"166 47 OFFCURVE",
"178 53 CURVE SMOOTH",
"179 54 LINE SMOOTH",
"191 61 OFFCURVE",
"196 75 OFFCURVE",
"189 86 CURVE SMOOTH",
"105 252 LINE SMOOTH",
"104 255 OFFCURVE",
"104 257 OFFCURVE",
"107 259 CURVE SMOOTH",
"261 424 LINE SMOOTH",
"272 435 OFFCURVE",
"273 449 OFFCURVE",
"265 456 CURVE SMOOTH"
);
}
);
width = 485.662;
}
);
unicode = 00AB;
},
{
glyphname = guillemetright;
lastChange = "2013-12-18 08:31:27 +0400";
layers = (
{
layerId = "6A4EEAE7-E2C6-4FA4-83F5-ABDB5FD8E17B";
name = Light;
paths = (
{
closed = 1;
nodes = (
"92 449 OFFCURVE",
"87 435 OFFCURVE",
"94 424 CURVE SMOOTH",
"178 259 LINE SMOOTH",
"179 257 OFFCURVE",
"179 255 OFFCURVE",
"176 252 CURVE SMOOTH",
"22 86 LINE SMOOTH",
"11 75 OFFCURVE",
"10 61 OFFCURVE",
"18 54 CURVE SMOOTH",
"19 53 LINE SMOOTH",
"29 47 OFFCURVE",
"41 49 OFFCURVE",
"51 59 CURVE SMOOTH",
"223 238 LINE SMOOTH",
"234 248 OFFCURVE",
"236 262 OFFCURVE",
"231 272 CURVE SMOOTH",
"135 451 LINE SMOOTH",
"129 461 OFFCURVE",
"117 463 OFFCURVE",
"105 457 CURVE SMOOTH",
"104 456 LINE SMOOTH"
);
},
{
closed = 1;
nodes = (
"296 449 OFFCURVE",
"291 435 OFFCURVE",
"298 424 CURVE SMOOTH",
"382 259 LINE SMOOTH",
"383 257 OFFCURVE",
"383 255 OFFCURVE",
"380 252 CURVE SMOOTH",
"226 86 LINE SMOOTH",
"215 75 OFFCURVE",
"214 61 OFFCURVE",
"222 54 CURVE SMOOTH",
"223 53 LINE SMOOTH",
"233 47 OFFCURVE",
"245 49 OFFCURVE",
"255 59 CURVE SMOOTH",
"427 238 LINE SMOOTH",
"438 248 OFFCURVE",
"440 262 OFFCURVE",
"435 272 CURVE SMOOTH",
"339 451 LINE SMOOTH",
"333 461 OFFCURVE",
"321 463 OFFCURVE",
"309 457 CURVE SMOOTH",
"308 456 LINE SMOOTH"
);
}
);
width = 487.122;
}
);
unicode = 00BB;
},
{
glyphname = guilsinglleft;
lastChange = "2013-12-18 08:31:27 +0400";
layers = (
{
layerId = "6A4EEAE7-E2C6-4FA4-83F5-ABDB5FD8E17B";
name = Light;
paths = (
{
closed = 1;
nodes = (
"242 457 LINE SMOOTH",
"232 463 OFFCURVE",
"220 461 OFFCURVE",
"210 451 CURVE SMOOTH",
"38 272 LINE SMOOTH",
"27 262 OFFCURVE",
"25 248 OFFCURVE",
"30 238 CURVE SMOOTH",
"126 59 LINE SMOOTH",
"132 49 OFFCURVE",
"144 47 OFFCURVE",
"156 53 CURVE SMOOTH",
"157 54 LINE SMOOTH",
"169 61 OFFCURVE",
"174 75 OFFCURVE",
"167 86 CURVE SMOOTH",
"83 252 LINE SMOOTH",
"82 255 OFFCURVE",
"82 257 OFFCURVE",
"85 259 CURVE SMOOTH",
"239 424 LINE SMOOTH",
"250 435 OFFCURVE",
"251 449 OFFCURVE",
"243 456 CURVE SMOOTH"
);
}
);
width = 270.249;
}
);
unicode = 2039;
},
{
glyphname = guilsinglright;
lastChange = "2013-12-18 08:31:27 +0400";
layers = (
{
layerId = "6A4EEAE7-E2C6-4FA4-83F5-ABDB5FD8E17B";
name = Light;
paths = (
{
closed = 1;
nodes = (
"90 449 OFFCURVE",
"85 435 OFFCURVE",
"92 424 CURVE SMOOTH",
"176 259 LINE SMOOTH",
"177 257 OFFCURVE",
"177 255 OFFCURVE",
"174 252 CURVE SMOOTH",
"20 86 LINE SMOOTH",
"9 75 OFFCURVE",
"8 61 OFFCURVE",
"16 54 CURVE SMOOTH",
"17 53 LINE SMOOTH",
"27 47 OFFCURVE",
"39 49 OFFCURVE",
"49 59 CURVE SMOOTH",
"221 238 LINE SMOOTH",
"232 248 OFFCURVE",
"234 262 OFFCURVE",
"229 272 CURVE SMOOTH",
"133 451 LINE SMOOTH",
"127 461 OFFCURVE",
"115 463 OFFCURVE",
"103 457 CURVE SMOOTH",
"102 456 LINE SMOOTH"
);
}
);
width = 270.594;
}
);
unicode = 203A;
},
{
glyphname = quotedblleft;
lastChange = "2013-12-18 08:31:27 +0400";
layers = (
{
layerId = "6A4EEAE7-E2C6-4FA4-83F5-ABDB5FD8E17B";
name = Light;
paths = (
{
closed = 1;
nodes = (
"212 700 OFFCURVE",
"203 703 OFFCURVE",
"191 697 CURVE SMOOTH",
"139 674 OFFCURVE",
"115 642 OFFCURVE",
"103 587 CURVE SMOOTH",
"93 543 LINE SMOOTH",
"89 523 OFFCURVE",
"97 513 OFFCURVE",
"117 513 CURVE SMOOTH",
"123 513 LINE SMOOTH",
"142 513 OFFCURVE",
"155 524 OFFCURVE",
"159 543 CURVE SMOOTH",
"165 568 LINE SMOOTH",
"168 585 OFFCURVE",
"164 596 OFFCURVE",
"149 598 CURVE SMOOTH",
"146 598 OFFCURVE",
"145 600 OFFCURVE",
"145 603 CURVE SMOOTH",
"149 632 OFFCURVE",
"166 652 OFFCURVE",
"198 670 CURVE SMOOTH",
"211 677 OFFCURVE",
"216 684 OFFCURVE",
"214 692 CURVE SMOOTH"
);
},
{
closed = 1;
nodes = (
"392 700 OFFCURVE",
"383 703 OFFCURVE",
"371 697 CURVE SMOOTH",
"319 674 OFFCURVE",
"295 642 OFFCURVE",
"283 587 CURVE SMOOTH",
"273 543 LINE SMOOTH",
"269 523 OFFCURVE",
"277 513 OFFCURVE",
"297 513 CURVE SMOOTH",
"303 513 LINE SMOOTH",
"322 513 OFFCURVE",
"335 524 OFFCURVE",
"339 543 CURVE SMOOTH",
"345 568 LINE SMOOTH",
"348 585 OFFCURVE",
"344 596 OFFCURVE",
"329 598 CURVE SMOOTH",
"326 598 OFFCURVE",
"325 600 OFFCURVE",
"325 603 CURVE SMOOTH",
"329 632 OFFCURVE",
"346 652 OFFCURVE",
"378 670 CURVE SMOOTH",
"391 677 OFFCURVE",
"396 684 OFFCURVE",
"394 692 CURVE SMOOTH"
);
}
);
width = 379.426;
}
);
unicode = 201C;
},
{
glyphname = quotedblright;
lastChange = "2013-12-18 08:31:27 +0400";
layers = (
{
layerId = "6A4EEAE7-E2C6-4FA4-83F5-ABDB5FD8E17B";
name = Light;
paths = (
{
closed = 1;
nodes = (
"273 513 OFFCURVE",
"282 510 OFFCURVE",
"294 516 CURVE SMOOTH",
"346 539 OFFCURVE",
"370 571 OFFCURVE",
"382 626 CURVE SMOOTH",
"392 670 LINE SMOOTH",
"396 690 OFFCURVE",
"388 700 OFFCURVE",
"368 700 CURVE SMOOTH",
"362 700 LINE SMOOTH",
"343 700 OFFCURVE",
"330 689 OFFCURVE",
"326 670 CURVE SMOOTH",
"320 645 LINE SMOOTH",
"317 628 OFFCURVE",
"321 617 OFFCURVE",
"336 615 CURVE SMOOTH",
"339 615 OFFCURVE",
"340 613 OFFCURVE",
"340 610 CURVE SMOOTH",
"336 581 OFFCURVE",
"319 561 OFFCURVE",
"287 543 CURVE SMOOTH",
"274 536 OFFCURVE",
"269 529 OFFCURVE",
"271 521 CURVE SMOOTH"
);
},
{
closed = 1;
nodes = (
"93 513 OFFCURVE",
"102 510 OFFCURVE",
"114 516 CURVE SMOOTH",
"166 539 OFFCURVE",
"190 571 OFFCURVE",
"202 626 CURVE SMOOTH",
"212 670 LINE SMOOTH",
"216 690 OFFCURVE",
"208 700 OFFCURVE",
"188 700 CURVE SMOOTH",
"182 700 LINE SMOOTH",
"163 700 OFFCURVE",
"150 689 OFFCURVE",
"146 670 CURVE SMOOTH",
"140 645 LINE SMOOTH",
"137 628 OFFCURVE",
"141 617 OFFCURVE",
"156 615 CURVE SMOOTH",
"159 615 OFFCURVE",
"160 613 OFFCURVE",
"160 610 CURVE SMOOTH",
"156 581 OFFCURVE",
"139 561 OFFCURVE",
"107 543 CURVE SMOOTH",
"94 536 OFFCURVE",
"89 529 OFFCURVE",
"91 521 CURVE SMOOTH"
);
}
);
width = 368;
}
);
unicode = 201D;
},
{
glyphname = quoteleft;
lastChange = "2013-12-18 08:31:27 +0400";
layers = (
{
layerId = "6A4EEAE7-E2C6-4FA4-83F5-ABDB5FD8E17B";
name = Light;
paths = (
{
closed = 1;
nodes = (
"212 700 OFFCURVE",
"203 703 OFFCURVE",
"191 697 CURVE SMOOTH",
"139 674 OFFCURVE",
"115 642 OFFCURVE",
"103 587 CURVE SMOOTH",
"93 543 LINE SMOOTH",
"89 523 OFFCURVE",
"97 513 OFFCURVE",
"117 513 CURVE SMOOTH",
"123 513 LINE SMOOTH",
"142 513 OFFCURVE",
"155 524 OFFCURVE",
"159 543 CURVE SMOOTH",
"165 568 LINE SMOOTH",
"168 585 OFFCURVE",
"164 596 OFFCURVE",
"149 598 CURVE SMOOTH",
"146 598 OFFCURVE",
"145 600 OFFCURVE",
"145 603 CURVE SMOOTH",
"149 632 OFFCURVE",
"166 652 OFFCURVE",
"198 670 CURVE SMOOTH",
"211 677 OFFCURVE",
"216 684 OFFCURVE",
"214 692 CURVE SMOOTH"
);
}
);
width = 198.426;
}
);
unicode = 2018;
},
{
glyphname = quoteright;
lastChange = "2013-12-18 08:31:27 +0400";
layers = (
{
layerId = "6A4EEAE7-E2C6-4FA4-83F5-ABDB5FD8E17B";
name = Light;
paths = (
{
closed = 1;
nodes = (
"93 513 OFFCURVE",
"102 510 OFFCURVE",
"114 516 CURVE SMOOTH",
"166 539 OFFCURVE",
"190 571 OFFCURVE",
"202 626 CURVE SMOOTH",
"212 670 LINE SMOOTH",
"216 690 OFFCURVE",
"208 700 OFFCURVE",
"188 700 CURVE SMOOTH",
"182 700 LINE SMOOTH",
"163 700 OFFCURVE",
"150 689 OFFCURVE",
"146 670 CURVE SMOOTH",
"140 645 LINE SMOOTH",
"137 628 OFFCURVE",
"141 617 OFFCURVE",
"156 615 CURVE SMOOTH",
"159 615 OFFCURVE",
"160 613 OFFCURVE",
"160 610 CURVE SMOOTH",
"156 581 OFFCURVE",
"139 561 OFFCURVE",
"107 543 CURVE SMOOTH",
"94 536 OFFCURVE",
"89 529 OFFCURVE",
"91 521 CURVE SMOOTH"
);
}
);
width = 187;
}
);
unicode = 2019;
},
{
glyphname = .notdef;
lastChange = "2013-12-18 08:31:27 +0400";
layers = (
{
layerId = "6A4EEAE7-E2C6-4FA4-83F5-ABDB5FD8E17B";
name = Light;
paths = (
{
closed = 1;
nodes = (
"40 35 LINE SMOOTH",
"40 12 OFFCURVE",
"52 0 OFFCURVE",
"75 0 CURVE SMOOTH",
"509 0 LINE SMOOTH",
"532 0 OFFCURVE",
"544 12 OFFCURVE",
"544 35 CURVE SMOOTH",
"544 665 LINE SMOOTH",
"544 688 OFFCURVE",
"532 700 OFFCURVE",
"509 700 CURVE SMOOTH",
"75 700 LINE SMOOTH",
"52 700 OFFCURVE",
"40 688 OFFCURVE",
"40 665 CURVE SMOOTH"
);
},
{
closed = 1;
nodes = (
"509 670 LINE SMOOTH",
"512 670 OFFCURVE",
"514 668 OFFCURVE",
"514 665 CURVE SMOOTH",
"514 67 LINE SMOOTH",
"514 62 OFFCURVE",
"511 61 OFFCURVE",
"508 65 CURVE SMOOTH",
"92 664 LINE SMOOTH",
"90 667 OFFCURVE",
"91 670 OFFCURVE",
"95 670 CURVE SMOOTH"
);
},
{
closed = 1;
nodes = (
"70 633 LINE SMOOTH",
"70 638 OFFCURVE",
"73 639 OFFCURVE",
"76 635 CURVE SMOOTH",
"491 36 LINE SMOOTH",
"493 33 OFFCURVE",
"492 30 OFFCURVE",
"488 30 CURVE SMOOTH",
"75 30 LINE SMOOTH",
"72 30 OFFCURVE",
"70 32 OFFCURVE",
"70 35 CURVE SMOOTH"
);
}
);
width = 584;
}
);
},
{
glyphname = florin;
lastChange = "2013-12-18 08:31:27 +0400";
layers = (
{
layerId = "6A4EEAE7-E2C6-4FA4-83F5-ABDB5FD8E17B";
name = Light;
paths = (
{
closed = 1;
nodes = (
"566 646 OFFCURVE",
"561 633 CURVE SMOOTH",
"557 623 OFFCURVE",
"548 618 OFFCURVE",
"534 620 CURVE SMOOTH",
"527 621 OFFCURVE",
"519 622 OFFCURVE",
"508 622 CURVE",
"435 622 OFFCURVE",
"387 580 OFFCURVE",
"364 518 CURVE",
"320 405 LINE",
"319 401 OFFCURVE",
"321 400 OFFCURVE",
"325 400 CURVE",
"436 400 LINE",
"446 400 OFFCURVE",
"450 390 OFFCURVE",
"448 381 CURVE",
"446 372 OFFCURVE",
"438 362 OFFCURVE",
"428 362 CURVE",
"309 362 LINE",
"304 362 OFFCURVE",
"302 359 OFFCURVE",
"300 354 CURVE",
"186 55 LINE",
"151 -36 OFFCURVE",
"88 -96 OFFCURVE",
"-11 -96 CURVE",
"-27 -96 OFFCURVE",
"-39 -95 OFFCURVE",
"-50 -92 CURVE",
"-61 -90 OFFCURVE",
"-65 -80 OFFCURVE",
"-61 -71 CURVE SMOOTH",
"-57 -61 OFFCURVE",
"-47 -54 OFFCURVE",
"-37 -56 CURVE",
"-28 -59 OFFCURVE",
"-16 -60 OFFCURVE",
"-4 -60 CURVE",
"65 -60 OFFCURVE",
"113 -17 OFFCURVE",
"137 44 CURVE",
"256 354 LINE",
"259 360 OFFCURVE",
"257 362 OFFCURVE",
"253 362 CURVE",
"171 362 LINE",
"161 362 OFFCURVE",
"157 372 OFFCURVE",
"159 381 CURVE",
"161 390 OFFCURVE",
"169 400 OFFCURVE",
"179 400 CURVE",
"268 400 LINE",
"272 400 OFFCURVE",
"275 402 OFFCURVE",
"276 405 CURVE",
"316 508 LINE",
"349 599 OFFCURVE",
"413 659 OFFCURVE",
"508 659 CURVE SMOOTH",
"526 659 OFFCURVE",
"538 658 OFFCURVE",
"549 656 CURVE SMOOTH",
"560 654 OFFCURVE"
);
}
);
width = 600;
}
);
unicode = 0192;
},
{
glyphname = cent;
lastChange = "2013-12-18 08:31:27 +0400";
layers = (
{
anchors = (
{
name = bottom;
position = "{212, 101}";
},
{
name = top;
position = "{318, 601}";
}
);
layerId = "6A4EEAE7-E2C6-4FA4-83F5-ABDB5FD8E17B";
name = Light;
paths = (
{
closed = 1;
nodes = (
"359 155 OFFCURVE",
"312 141 OFFCURVE",
"262 141 CURVE SMOOTH",
"245 141 OFFCURVE",
"230 143 OFFCURVE",
"215 146 CURVE SMOOTH",
"212 146 OFFCURVE",
"212 148 OFFCURVE",
"213 152 CURVE SMOOTH",
"383 554 LINE SMOOTH",
"385 557 OFFCURVE",
"387 559 OFFCURVE",
"390 558 CURVE SMOOTH",
"423 553 OFFCURVE",
"451 540 OFFCURVE",
"475 522 CURVE SMOOTH",
"484 515 OFFCURVE",
"495 517 OFFCURVE",
"504 526 CURVE SMOOTH",
"513 535 OFFCURVE",
"514 547 OFFCURVE",
"505 554 CURVE SMOOTH",
"479 575 OFFCURVE",
"445 590 OFFCURVE",
"406 597 CURVE SMOOTH",
"404 598 OFFCURVE",
"403 600 OFFCURVE",
"404 603 CURVE SMOOTH",
"439 686 LINE",
"445 697 OFFCURVE",
"440 708 OFFCURVE",
"429 710 CURVE SMOOTH",
"419 712 OFFCURVE",
"407 706 OFFCURVE",
"402 694 CURVE",
"364 605 LINE SMOOTH",
"363 602 OFFCURVE",
"362 601 OFFCURVE",
"360 601 CURVE SMOOTH",
"210 601 OFFCURVE",
"77 477 OFFCURVE",
"50 351 CURVE SMOOTH",
"30 256 OFFCURVE",
"70 163 OFFCURVE",
"155 122 CURVE SMOOTH",
"158 121 OFFCURVE",
"159 119 OFFCURVE",
"157 116 CURVE SMOOTH",
"115 16 LINE",
"109 5 OFFCURVE",
"114 -6 OFFCURVE",
"125 -8 CURVE SMOOTH",
"135 -10 OFFCURVE",
"147 -4 OFFCURVE",
"152 8 CURVE",
"192 103 LINE SMOOTH",
"194 106 OFFCURVE",
"196 108 OFFCURVE",
"199 107 CURVE SMOOTH",
"216 103 OFFCURVE",
"235 101 OFFCURVE",
"254 101 CURVE SMOOTH",
"310 101 OFFCURVE",
"368 118 OFFCURVE",
"419 147 CURVE SMOOTH",
"430 154 OFFCURVE",
"435 166 OFFCURVE",
"430 175 CURVE SMOOTH",
"425 184 OFFCURVE",
"414 186 OFFCURVE",
"403 180 CURVE"
);
},
{
closed = 1;
nodes = (
"112 455 OFFCURVE",
"212 554 OFFCURVE",
"339 561 CURVE SMOOTH",
"343 561 OFFCURVE",
"344 559 OFFCURVE",
"343 555 CURVE SMOOTH",
"177 165 LINE SMOOTH",
"177 161 OFFCURVE",
"173 160 OFFCURVE",
"171 161 CURVE SMOOTH",
"102 197 OFFCURVE",
"73 272 OFFCURVE",
"90 351 CURVE"
);
}
);
width = 521;
}
);
unicode = 00A2;
},
{
glyphname = currency;
lastChange = "2013-12-18 08:31:27 +0400";
layers = (
{
layerId = "6A4EEAE7-E2C6-4FA4-83F5-ABDB5FD8E17B";
name = Light;
paths = (
{
closed = 1;
nodes = (
"385 156 OFFCURVE",
"383 146 OFFCURVE",
"375 138 CURVE",
"366 130 OFFCURVE",
"355 129 OFFCURVE",
"349 137 CURVE",
"308 183 LINE",
"273 158 OFFCURVE",
"238 144 OFFCURVE",
"199 144 CURVE",
"158 144 OFFCURVE",
"129 157 OFFCURVE",
"107 183 CURVE",
"47 137 LINE",
"37 129 OFFCURVE",
"26 130 OFFCURVE",
"21 138 CURVE",
"15 146 OFFCURVE",
"19 156 OFFCURVE",
"28 163 CURVE",
"88 210 LINE",
"78 234 OFFCURVE",
"75 262 OFFCURVE",
"82 292 CURVE",
"84 303 LINE",
"90 334 OFFCURVE",
"105 361 OFFCURVE",
"128 387 CURVE",
"86 435 LINE",
"79 442 OFFCURVE",
"81 452 OFFCURVE",
"89 460 CURVE",
"98 468 OFFCURVE",
"109 469 OFFCURVE",
"115 461 CURVE",
"158 415 LINE",
"190 440 OFFCURVE",
"227 454 OFFCURVE",
"266 454 CURVE",
"306 454 OFFCURVE",
"336 441 OFFCURVE",
"359 416 CURVE",
"417 461 LINE",
"427 469 OFFCURVE",
"438 468 OFFCURVE",
"443 460 CURVE",
"449 452 OFFCURVE",
"445 442 OFFCURVE",
"436 435 CURVE",
"375 389 LINE",
"387 363 OFFCURVE",
"390 336 OFFCURVE",
"383 306 CURVE",
"381 295 LINE",
"374 263 OFFCURVE",
"360 236 OFFCURVE",
"338 210 CURVE",
"378 163 LINE"
);
},
{
closed = 1;
nodes = (
"229 174 OFFCURVE",
"256 182 OFFCURVE",
"276 195 CURVE",
"318 218 OFFCURVE",
"339 263 OFFCURVE",
"345 290 CURVE",
"348 306 LINE",
"356 341 OFFCURVE",
"350 378 OFFCURVE",
"319 402 CURVE",
"304 415 OFFCURVE",
"282 423 OFFCURVE",
"258 423 CURVE",
"235 423 OFFCURVE",
"209 415 OFFCURVE",
"189 402 CURVE",
"148 377 OFFCURVE",
"127 341 OFFCURVE",
"119 306 CURVE",
"116 290 LINE",
"108 252 OFFCURVE",
"118 217 OFFCURVE",
"145 195 CURVE",
"160 182 OFFCURVE",
"181 174 OFFCURVE",
"206 174 CURVE"
);
}
);
width = 464;
}
);
unicode = 00A4;
},
{
glyphname = dollar;
lastChange = "2013-12-18 08:31:27 +0400";
layers = (
{
anchors = (
{
name = bottom;
position = "{228, 0}";
},
{
name = top;
position = "{377, 700}";
}
);
layerId = "6A4EEAE7-E2C6-4FA4-83F5-ABDB5FD8E17B";
name = Light;
paths = (
{
closed = 1;
nodes = (
"368 654 LINE SMOOTH",
"369 657 OFFCURVE",
"371 659 OFFCURVE",
"374 659 CURVE SMOOTH",
"445 653 OFFCURVE",
"482 626 OFFCURVE",
"508 606 CURVE SMOOTH",
"517 599 OFFCURVE",
"530 602 OFFCURVE",
"538 612 CURVE",
"546 621 OFFCURVE",
"545 632 OFFCURVE",
"537 638 CURVE SMOOTH",
"510 660 OFFCURVE",
"466 693 OFFCURVE",
"382 699 CURVE SMOOTH",
"379 699 OFFCURVE",
"378 701 OFFCURVE",
"378 704 CURVE SMOOTH",
"386 740 LINE SMOOTH",
"388 751 OFFCURVE",
"382 760 OFFCURVE",
"370 760 CURVE SMOOTH",
"358 760 OFFCURVE",
"348 751 OFFCURVE",
"346 740 CURVE SMOOTH",
"338 704 LINE SMOOTH",
"338 701 OFFCURVE",
"336 700 OFFCURVE",
"332 699 CURVE SMOOTH",
"210 691 OFFCURVE",
"103 605 OFFCURVE",
"85 518 CURVE SMOOTH",
"62 411 OFFCURVE",
"168 376 OFFCURVE",
"259 350 CURVE SMOOTH",
"262 349 OFFCURVE",
"263 347 OFFCURVE",
"262 344 CURVE SMOOTH",
"199 47 LINE SMOOTH",
"198 43 OFFCURVE",
"196 42 OFFCURVE",
"193 42 CURVE SMOOTH",
"117 50 OFFCURVE",
"62 78 OFFCURVE",
"27 117 CURVE SMOOTH",
"20 124 OFFCURVE",
"9 125 OFFCURVE",
"0 117 CURVE SMOOTH",
"-11 108 OFFCURVE",
"-14 96 OFFCURVE",
"-7 87 CURVE",
"34 44 OFFCURVE",
"100 10 OFFCURVE",
"184 2 CURVE SMOOTH",
"187 2 OFFCURVE",
"189 0 OFFCURVE",
"188 -3 CURVE SMOOTH",
"172 -80 LINE SMOOTH",
"170 -91 OFFCURVE",
"176 -100 OFFCURVE",
"188 -100 CURVE SMOOTH",
"200 -100 OFFCURVE",
"210 -91 OFFCURVE",
"212 -80 CURVE SMOOTH",
"228 -5 LINE SMOOTH",
"228 -2 OFFCURVE",
"231 0 OFFCURVE",
"234 0 CURVE SMOOTH",
"346 4 OFFCURVE",
"481 80 OFFCURVE",
"505 192 CURVE SMOOTH",
"530 310 OFFCURVE",
"415 347 OFFCURVE",
"318 376 CURVE SMOOTH",
"313 377 LINE SMOOTH",
"310 378 OFFCURVE",
"310 380 OFFCURVE",
"310 383 CURVE SMOOTH"
);
},
{
closed = 1;
nodes = (
"273 395 LINE SMOOTH",
"272 392 OFFCURVE",
"270 390 OFFCURVE",
"266 391 CURVE SMOOTH",
"185 415 OFFCURVE",
"109 443 OFFCURVE",
"125 518 CURVE SMOOTH",
"139 586 OFFCURVE",
"218 652 OFFCURVE",
"324 659 CURVE SMOOTH",
"327 660 OFFCURVE",
"329 658 OFFCURVE",
"328 654 CURVE SMOOTH"
);
},
{
closed = 1;
nodes = (
"299 332 LINE SMOOTH",
"300 335 OFFCURVE",
"302 337 OFFCURVE",
"306 336 CURVE SMOOTH",
"400 308 OFFCURVE",
"483 278 OFFCURVE",
"465 192 CURVE SMOOTH",
"446 106 OFFCURVE",
"342 44 OFFCURVE",
"242 40 CURVE SMOOTH",
"239 40 OFFCURVE",
"238 42 OFFCURVE",
"238 45 CURVE SMOOTH"
);
}
);
width = 596;
}
);
unicode = 0024;
},
{
glyphname = euro;
lastChange = "2013-12-18 08:31:27 +0400";
layers = (
{
layerId = "6A4EEAE7-E2C6-4FA4-83F5-ABDB5FD8E17B";
name = Light;
paths = (
{
closed = 1;
nodes = (
"444 -10 OFFCURVE",
"524 44 OFFCURVE",
"592 118 CURVE SMOOTH",
"602 129 OFFCURVE",
"602 142 OFFCURVE",
"592 150 CURVE SMOOTH",
"583 157 OFFCURVE",
"568 153 OFFCURVE",
"558 141 CURVE SMOOTH",
"498 77 OFFCURVE",
"434 36 OFFCURVE",
"355 36 CURVE SMOOTH",
"245 36 OFFCURVE",
"177 117 OFFCURVE",
"170 239 CURVE SMOOTH",
"171 243 OFFCURVE",
"173 245 OFFCURVE",
"177 245 CURVE SMOOTH",
"432 245 LINE SMOOTH",
"446 245 OFFCURVE",
"459 255 OFFCURVE",
"462 269 CURVE SMOOTH",
"465 283 OFFCURVE",
"456 293 OFFCURVE",
"442 293 CURVE SMOOTH",
"177 293 LINE SMOOTH",
"174 293 OFFCURVE",
"172 295 OFFCURVE",
"173 298 CURVE SMOOTH",
"175 315 OFFCURVE",
"177 332 OFFCURVE",
"181 350 CURVE SMOOTH",
"181 352 LINE SMOOTH",
"186 372 OFFCURVE",
"192 394 OFFCURVE",
"198 411 CURVE SMOOTH",
"200 414 OFFCURVE",
"202 416 OFFCURVE",
"205 416 CURVE SMOOTH",
"468 416 LINE SMOOTH",
"482 416 OFFCURVE",
"495 426 OFFCURVE",
"498 440 CURVE SMOOTH",
"501 454 OFFCURVE",
"492 464 OFFCURVE",
"478 464 CURVE SMOOTH",
"225 464 LINE SMOOTH",
"221 464 OFFCURVE",
"221 466 OFFCURVE",
"223 470 CURVE SMOOTH",
"281 585 OFFCURVE",
"378 664 OFFCURVE",
"477 664 CURVE SMOOTH",
"563 664 OFFCURVE",
"608 630 OFFCURVE",
"643 565 CURVE SMOOTH",
"649 554 OFFCURVE",
"663 551 OFFCURVE",
"676 559 CURVE SMOOTH",
"690 566 OFFCURVE",
"695 581 OFFCURVE",
"689 593 CURVE SMOOTH",
"652 662 OFFCURVE",
"595 710 OFFCURVE",
"489 710 CURVE SMOOTH",
"361 710 OFFCURVE",
"237 609 OFFCURVE",
"170 468 CURVE SMOOTH",
"168 465 OFFCURVE",
"167 464 OFFCURVE",
"164 464 CURVE SMOOTH",
"99 464 LINE SMOOTH",
"85 464 OFFCURVE",
"72 454 OFFCURVE",
"69 440 CURVE SMOOTH",
"66 426 OFFCURVE",
"75 416 OFFCURVE",
"89 416 CURVE SMOOTH",
"144 416 LINE SMOOTH",
"147 416 OFFCURVE",
"149 414 OFFCURVE",
"147 411 CURVE SMOOTH",
"141 393 OFFCURVE",
"134 371 OFFCURVE",
"130 350 CURVE SMOOTH",
"130 348 LINE SMOOTH",
"126 331 OFFCURVE",
"124 315 OFFCURVE",
"121 298 CURVE SMOOTH",
"121 295 OFFCURVE",
"119 293 OFFCURVE",
"116 293 CURVE SMOOTH",
"63 293 LINE SMOOTH",
"49 293 OFFCURVE",
"36 283 OFFCURVE",
"33 269 CURVE SMOOTH",
"30 255 OFFCURVE",
"39 245 OFFCURVE",
"53 245 CURVE SMOOTH",
"114 245 LINE SMOOTH",
"117 245 OFFCURVE",
"117 244 OFFCURVE",
"118 241 CURVE SMOOTH",
"121 90 OFFCURVE",
"205 -10 OFFCURVE",
"342 -10 CURVE SMOOTH"
);
}
);
width = 696;
}
);
unicode = 20AC;
},
{
glyphname = sterling;
lastChange = "2013-12-18 08:31:27 +0400";
layers = (
{
layerId = "6A4EEAE7-E2C6-4FA4-83F5-ABDB5FD8E17B";
name = Light;
paths = (
{
closed = 1;
nodes = (
"-24 5 OFFCURVE",
"-16 0 OFFCURVE",
"-5 0 CURVE SMOOTH",
"461 0 LINE SMOOTH",
"475 0 OFFCURVE",
"488 10 OFFCURVE",
"491 24 CURVE SMOOTH",
"493 37 OFFCURVE",
"485 47 OFFCURVE",
"470 47 CURVE SMOOTH",
"127 47 LINE SMOOTH",
"124 47 OFFCURVE",
"122 49 OFFCURVE",
"123 52 CURVE SMOOTH",
"175 300 LINE SMOOTH",
"176 303 OFFCURVE",
"178 305 OFFCURVE",
"181 305 CURVE SMOOTH",
"449 305 LINE SMOOTH",
"463 305 OFFCURVE",
"476 315 OFFCURVE",
"479 329 CURVE SMOOTH",
"482 343 OFFCURVE",
"474 353 OFFCURVE",
"460 353 CURVE SMOOTH",
"192 353 LINE SMOOTH",
"189 353 OFFCURVE",
"187 355 OFFCURVE",
"188 358 CURVE SMOOTH",
"212 472 LINE SMOOTH",
"225 536 OFFCURVE",
"253 587 OFFCURVE",
"293 620 CURVE SMOOTH",
"327 648 OFFCURVE",
"367 663 OFFCURVE",
"415 663 CURVE SMOOTH",
"488 663 OFFCURVE",
"527 633 OFFCURVE",
"555 592 CURVE SMOOTH",
"563 581 OFFCURVE",
"577 579 OFFCURVE",
"590 588 CURVE SMOOTH",
"591 589 LINE SMOOTH",
"604 597 OFFCURVE",
"609 613 OFFCURVE",
"601 624 CURVE SMOOTH",
"568 674 OFFCURVE",
"518 710 OFFCURVE",
"426 710 CURVE SMOOTH",
"365 710 OFFCURVE",
"309 689 OFFCURVE",
"264 652 CURVE SMOOTH",
"213 610 OFFCURVE",
"177 546 OFFCURVE",
"161 471 CURVE SMOOTH",
"137 358 LINE SMOOTH",
"136 355 OFFCURVE",
"134 353 OFFCURVE",
"131 353 CURVE SMOOTH",
"75 353 LINE SMOOTH",
"61 353 OFFCURVE",
"47 343 OFFCURVE",
"44 329 CURVE SMOOTH",
"41 315 OFFCURVE",
"50 305 OFFCURVE",
"64 305 CURVE SMOOTH",
"120 305 LINE SMOOTH",
"123 305 OFFCURVE",
"125 303 OFFCURVE",
"124 300 CURVE SMOOTH",
"71 49 LINE SMOOTH",
"70 46 OFFCURVE",
"69 45 OFFCURVE",
"66 44 CURVE SMOOTH",
"-5 28 LINE SMOOTH",
"-14 26 OFFCURVE",
"-21 20 OFFCURVE",
"-23 13 CURVE SMOOTH"
);
}
);
width = 611;
}
);
unicode = 00A3;
},
{
glyphname = yen;
lastChange = "2013-12-18 08:31:27 +0400";
layers = (
{
anchors = (
{
name = top;
position = "{378, 700}";
}
);
layerId = "6A4EEAE7-E2C6-4FA4-83F5-ABDB5FD8E17B";
name = Light;
paths = (
{
closed = 1;
nodes = (
"614 707 OFFCURVE",
"602 705 OFFCURVE",
"593 695 CURVE SMOOTH",
"318 404 LINE",
"314 401 OFFCURVE",
"312 401 OFFCURVE",
"310 404 CURVE",
"159 695 LINE SMOOTH",
"154 705 OFFCURVE",
"142 707 OFFCURVE",
"132 700 CURVE SMOOTH",
"121 693 OFFCURVE",
"117 681 OFFCURVE",
"122 672 CURVE SMOOTH",
"272 384 LINE SMOOTH",
"273 381 OFFCURVE",
"272 378 OFFCURVE",
"268 378 CURVE SMOOTH",
"106 378 LINE SMOOTH",
"92 378 OFFCURVE",
"80 372 OFFCURVE",
"77 358 CURVE SMOOTH",
"77 357 LINE SMOOTH",
"74 343 OFFCURVE",
"83 337 OFFCURVE",
"97 337 CURVE SMOOTH",
"275 337 LINE SMOOTH",
"278 337 OFFCURVE",
"279 335 OFFCURVE",
"279 332 CURVE SMOOTH",
"253 213 LINE SMOOTH",
"253 210 OFFCURVE",
"250 208 OFFCURVE",
"247 208 CURVE SMOOTH",
"68 208 LINE SMOOTH",
"54 208 OFFCURVE",
"44 202 OFFCURVE",
"41 188 CURVE SMOOTH",
"41 187 LINE SMOOTH",
"38 173 OFFCURVE",
"46 167 OFFCURVE",
"60 167 CURVE SMOOTH",
"239 167 LINE SMOOTH",
"242 167 OFFCURVE",
"243 165 OFFCURVE",
"243 162 CURVE SMOOTH",
"212 20 LINE SMOOTH",
"210 9 OFFCURVE",
"216 0 OFFCURVE",
"228 0 CURVE SMOOTH",
"239 0 OFFCURVE",
"250 9 OFFCURVE",
"252 20 CURVE SMOOTH",
"283 162 LINE SMOOTH",
"283 165 OFFCURVE",
"286 167 OFFCURVE",
"289 167 CURVE SMOOTH",
"468 167 LINE SMOOTH",
"482 167 OFFCURVE",
"492 173 OFFCURVE",
"495 187 CURVE SMOOTH",
"495 188 LINE SMOOTH",
"498 202 OFFCURVE",
"490 208 OFFCURVE",
"475 208 CURVE SMOOTH",
"297 208 LINE SMOOTH",
"294 208 OFFCURVE",
"293 210 OFFCURVE",
"293 213 CURVE SMOOTH",
"319 332 LINE SMOOTH",
"319 335 OFFCURVE",
"322 337 OFFCURVE",
"325 337 CURVE SMOOTH",
"504 337 LINE SMOOTH",
"518 337 OFFCURVE",
"528 343 OFFCURVE",
"531 357 CURVE SMOOTH",
"531 358 LINE SMOOTH",
"534 372 OFFCURVE",
"527 378 OFFCURVE",
"512 378 CURVE SMOOTH",
"350 378 LINE SMOOTH",
"346 378 OFFCURVE",
"345 381 OFFCURVE",
"348 384 CURVE SMOOTH",
"621 672 LINE",
"629 682 OFFCURVE",
"630 693 OFFCURVE",
"623 700 CURVE"
);
}
);
width = 607;
}
);
unicode = 00A5;
},
{
glyphname = Ohm;
lastChange = "2013-12-18 08:31:27 +0400";
layers = (
{
layerId = "6A4EEAE7-E2C6-4FA4-83F5-ABDB5FD8E17B";
name = Light;
paths = (
{
closed = 1;
nodes = (
"546 678 OFFCURVE",
"617 551 OFFCURVE",
"585 398 CURVE SMOOTH",
"550 235 OFFCURVE",
"444 123 OFFCURVE",
"362 37 CURVE SMOOTH",
"360 35 OFFCURVE",
"361 33 OFFCURVE",
"363 33 CURVE SMOOTH",
"496 33 LINE SMOOTH",
"505 33 OFFCURVE",
"509 25 OFFCURVE",
"508 17 CURVE SMOOTH",
"506 9 OFFCURVE",
"498 0 OFFCURVE",
"489 0 CURVE SMOOTH",
"336 0 LINE SMOOTH",
"326 0 OFFCURVE",
"321 6 OFFCURVE",
"323 16 CURVE SMOOTH",
"329 42 LINE SMOOTH",
"329 44 OFFCURVE",
"330 47 OFFCURVE",
"333 50 CURVE",
"459 174 OFFCURVE",
"523 273 OFFCURVE",
"549 396 CURVE SMOOTH",
"578 530 OFFCURVE",
"520 646 OFFCURVE",
"373 646 CURVE SMOOTH",
"225 646 OFFCURVE",
"120 530 OFFCURVE",
"91 396 CURVE SMOOTH",
"65 274 OFFCURVE",
"86 174 OFFCURVE",
"159 49 CURVE",
"161 47 OFFCURVE",
"160 44 OFFCURVE",
"160 42 CURVE SMOOTH",
"154 16 LINE SMOOTH",
"152 6 OFFCURVE",
"145 0 OFFCURVE",
"135 0 CURVE SMOOTH",
"-17 0 LINE SMOOTH",
"-26 0 OFFCURVE",
"-30 9 OFFCURVE",
"-28 17 CURVE SMOOTH",
"-27 25 OFFCURVE",
"-19 33 OFFCURVE",
"-10 33 CURVE SMOOTH",
"123 33 LINE SMOOTH",
"125 33 OFFCURVE",
"126 35 OFFCURVE",
"126 37 CURVE SMOOTH",
"77 129 OFFCURVE",
"22 235 OFFCURVE",
"57 400 CURVE SMOOTH",
"89 551 OFFCURVE",
"213 678 OFFCURVE",
"380 678 CURVE SMOOTH"
);
}
);
width = 616;
}
);
unicode = 2126;
},
{
glyphname = approxequal;
lastChange = "2013-12-18 08:31:27 +0400";
layers = (
{
layerId = "6A4EEAE7-E2C6-4FA4-83F5-ABDB5FD8E17B";
name = Light;
paths = (
{
closed = 1;
nodes = (
"404 264 OFFCURVE",
"434 275 OFFCURVE",
"462 297 CURVE SMOOTH",
"468 303 OFFCURVE",
"471 308 OFFCURVE",
"473 316 CURVE SMOOTH",
"475 327 LINE SMOOTH",
"478 339 OFFCURVE",
"470 340 OFFCURVE",
"458 330 CURVE SMOOTH",
"431 310 OFFCURVE",
"403 299 OFFCURVE",
"379 299 CURVE SMOOTH",
"304 299 OFFCURVE",
"237 350 OFFCURVE",
"163 350 CURVE SMOOTH",
"135 350 OFFCURVE",
"100 339 OFFCURVE",
"71 313 CURVE SMOOTH",
"65 307 OFFCURVE",
"62 302 OFFCURVE",
"60 295 CURVE SMOOTH",
"58 286 LINE SMOOTH",
"56 275 OFFCURVE",
"64 275 OFFCURVE",
"76 284 CURVE SMOOTH",
"103 305 OFFCURVE",
"131 314 OFFCURVE",
"157 314 CURVE SMOOTH",
"231 314 OFFCURVE",
"293 264 OFFCURVE",
"370 264 CURVE SMOOTH"
);
},
{
closed = 1;
nodes = (
"378 144 OFFCURVE",
"408 155 OFFCURVE",
"436 178 CURVE SMOOTH",
"442 183 OFFCURVE",
"445 188 OFFCURVE",
"447 196 CURVE SMOOTH",
"450 208 LINE SMOOTH",
"452 219 OFFCURVE",
"444 220 OFFCURVE",
"433 211 CURVE SMOOTH",
"406 191 OFFCURVE",
"378 180 OFFCURVE",
"354 180 CURVE SMOOTH",
"279 180 OFFCURVE",
"212 231 OFFCURVE",
"138 231 CURVE SMOOTH",
"110 231 OFFCURVE",
"74 220 OFFCURVE",
"46 195 CURVE SMOOTH",
"40 189 OFFCURVE",
"37 184 OFFCURVE",
"35 177 CURVE SMOOTH",
"33 167 LINE SMOOTH",
"31 156 OFFCURVE",
"39 156 OFFCURVE",
"51 165 CURVE SMOOTH",
"78 186 OFFCURVE",
"106 196 OFFCURVE",
"132 196 CURVE SMOOTH",
"206 196 OFFCURVE",
"267 144 OFFCURVE",
"344 144 CURVE SMOOTH"
);
}
);
width = 508;
}
);
unicode = 2248;
},
{
glyphname = asciitilde;
lastChange = "2013-12-18 08:31:27 +0400";
layers = (
{
layerId = "6A4EEAE7-E2C6-4FA4-83F5-ABDB5FD8E17B";
name = Light;
paths = (
{
closed = 1;
nodes = (
"303 207 OFFCURVE",
"339 245 OFFCURVE",
"338 299 CURVE SMOOTH",
"338 308 OFFCURVE",
"332 314 OFFCURVE",
"324 314 CURVE SMOOTH",
"311 314 OFFCURVE",
"302 304 OFFCURVE",
"298 291 CURVE SMOOTH",
"292 264 OFFCURVE",
"277 253 OFFCURVE",
"256 253 CURVE SMOOTH",
"236 253 OFFCURVE",
"224 264 OFFCURVE",
"203 281 CURVE",
"181 298 OFFCURVE",
"163 313 OFFCURVE",
"129 313 CURVE SMOOTH",
"80 313 OFFCURVE",
"43 273 OFFCURVE",
"44 220 CURVE SMOOTH",
"45 212 OFFCURVE",
"50 207 OFFCURVE",
"57 207 CURVE SMOOTH",
"70 207 OFFCURVE",
"79 217 OFFCURVE",
"83 231 CURVE SMOOTH",
"89 255 OFFCURVE",
"104 266 OFFCURVE",
"124 266 CURVE SMOOTH",
"146 266 OFFCURVE",
"160 253 OFFCURVE",
"182 237 CURVE SMOOTH",
"203 222 OFFCURVE",
"221 207 OFFCURVE",
"250 207 CURVE SMOOTH"
);
}
);
width = 383;
}
);
unicode = 007E;
},
{
glyphname = bulletoperator;
lastChange = "2013-12-22 07:58:49 +0400";
layers = (
{
layerId = "6A4EEAE7-E2C6-4FA4-83F5-ABDB5FD8E17B";
name = Light;
paths = (
{
closed = 1;
nodes = (
"117 257 OFFCURVE",
"137 277 OFFCURVE",
"137 301 CURVE SMOOTH",
"137 324 OFFCURVE",
"117 344 OFFCURVE",
"94 344 CURVE SMOOTH",
"70 344 OFFCURVE",
"50 324 OFFCURVE",
"50 301 CURVE SMOOTH",
"50 277 OFFCURVE",
"70 257 OFFCURVE",
"94 257 CURVE SMOOTH"
);
}
);
width = 187;
}
);
unicode = 2219;
},
{
glyphname = divide;
lastChange = "2013-12-18 08:31:27 +0400";
layers = (
{
layerId = "6A4EEAE7-E2C6-4FA4-83F5-ABDB5FD8E17B";
name = Light;
paths = (
{
closed = 1;
nodes = (
"203 55 OFFCURVE",
"214 40 OFFCURVE",
"233 40 CURVE SMOOTH",
"252 40 OFFCURVE",
"272 55 OFFCURVE",
"276 74 CURVE SMOOTH",
"280 93 OFFCURVE",
"267 109 OFFCURVE",
"248 109 CURVE SMOOTH",
"229 109 OFFCURVE",
"211 93 OFFCURVE",
"207 74 CURVE SMOOTH"
);
},
{
closed = 1;
nodes = (
"275 396 OFFCURVE",
"287 381 OFFCURVE",
"306 381 CURVE SMOOTH",
"325 381 OFFCURVE",
"344 396 OFFCURVE",
"348 415 CURVE SMOOTH",
"352 435 OFFCURVE",
"340 451 OFFCURVE",
"321 451 CURVE SMOOTH",
"302 451 OFFCURVE",
"283 435 OFFCURVE",
"279 415 CURVE SMOOTH"
);
},
{
closed = 1;
nodes = (
"81 274 LINE SMOOTH",
"67 274 OFFCURVE",
"54 263 OFFCURVE",
"51 249 CURVE SMOOTH",
"51 248 LINE SMOOTH",
"48 234 OFFCURVE",
"56 223 OFFCURVE",
"70 223 CURVE SMOOTH",
"474 223 LINE SMOOTH",
"488 223 OFFCURVE",
"502 234 OFFCURVE",
"505 248 CURVE SMOOTH",
"505 249 LINE SMOOTH",
"508 263 OFFCURVE",
"499 274 OFFCURVE",
"484 274 CURVE SMOOTH"
);
}
);
width = 554;
}
);
unicode = 00F7;
},
{
glyphname = divisionslash;
lastChange = "2013-12-22 08:07:08 +0400";
layers = (
{
layerId = "6A4EEAE7-E2C6-4FA4-83F5-ABDB5FD8E17B";
name = Light;
paths = (
{
closed = 1;
nodes = (
"525 798 LINE SMOOTH",
"514 798 OFFCURVE",
"508 794 OFFCURVE",
"501 784 CURVE SMOOTH",
"-31 -104 LINE SMOOTH",
"-39 -118 OFFCURVE",
"-34 -128 OFFCURVE",
"-18 -128 CURVE SMOOTH",
"-12 -128 LINE SMOOTH",
"-1 -128 OFFCURVE",
"5 -124 OFFCURVE",
"12 -114 CURVE SMOOTH",
"544 774 LINE SMOOTH",
"552 788 OFFCURVE",
"548 798 OFFCURVE",
"534 798 CURVE SMOOTH"
);
}
);
width = 513.141;
}
);
unicode = 2215;
},
{
glyphname = emptyset;
lastChange = "2013-12-18 08:31:27 +0400";
layers = (
{
layerId = "6A4EEAE7-E2C6-4FA4-83F5-ABDB5FD8E17B";
name = Light;
paths = (
{
closed = 1;
nodes = (
"549 521 OFFCURVE",
"537 521 OFFCURVE",
"528 513 CURVE",
"480 467 LINE SMOOTH",
"478 464 OFFCURVE",
"476 464 OFFCURVE",
"473 467 CURVE SMOOTH",
"434 503 OFFCURVE",
"382 525 OFFCURVE",
"323 525 CURVE SMOOTH",
"184 525 OFFCURVE",
"57.9999 405 OFFCURVE",
"42.9999 257 CURVE SMOOTH",
"36 193 OFFCURVE",
"51 133 OFFCURVE",
"82 87 CURVE SMOOTH",
"84 85 OFFCURVE",
"84 82 OFFCURVE",
"82 80 CURVE SMOOTH",
"31.9999 32 LINE SMOOTH",
"22.9999 23 OFFCURVE",
"22.9999 11 OFFCURVE",
"30.9999 3 CURVE",
"38.9999 -6 OFFCURVE",
"50.9999 -6 OFFCURVE",
"59.9999 3 CURVE SMOOTH",
"107 49 LINE SMOOTH",
"110 51 OFFCURVE",
"112 51 OFFCURVE",
"115 49 CURVE SMOOTH",
"154 12 OFFCURVE",
"206 -10 OFFCURVE",
"266 -10 CURVE SMOOTH",
"405 -10 OFFCURVE",
"530 110 OFFCURVE",
"546 257 CURVE SMOOTH",
"553 322 OFFCURVE",
"537 382 OFFCURVE",
"506 429 CURVE SMOOTH",
"504 431 OFFCURVE",
"504 434 OFFCURVE",
"506 436 CURVE SMOOTH",
"556 484 LINE SMOOTH",
"565 493 OFFCURVE",
"565 505 OFFCURVE",
"557 513 CURVE SMOOTH"
);
},
{
closed = 1;
nodes = (
"95.9999 383 OFFCURVE",
"202 485 OFFCURVE",
"318 485 CURVE SMOOTH",
"367 485 OFFCURVE",
"410 467 OFFCURVE",
"442 437 CURVE SMOOTH",
"445 435 OFFCURVE",
"445 432 OFFCURVE",
"442 430 CURVE SMOOTH",
"120 117 LINE SMOOTH",
"117 115 OFFCURVE",
"115 115 OFFCURVE",
"113 118 CURVE SMOOTH",
"89 156 OFFCURVE",
"77 205 OFFCURVE",
"83 257 CURVE SMOOTH"
);
},
{
closed = 1;
nodes = (
"492 132 OFFCURVE",
"387 29.9999 OFFCURVE",
"271 29.9999 CURVE SMOOTH",
"222 30 OFFCURVE",
"178 48 OFFCURVE",
"145 79 CURVE SMOOTH",
"143 81 OFFCURVE",
"143 83 OFFCURVE",
"145 86 CURVE SMOOTH",
"468 399 LINE SMOOTH",
"471 401 OFFCURVE",
"473 401 OFFCURVE",
"475 398 CURVE SMOOTH",
"499 359 OFFCURVE",
"511 310 OFFCURVE",
"506 257 CURVE SMOOTH"
);
}
);
width = 588;
}
);
unicode = 2205;
},
{
glyphname = equal;
lastChange = "2013-12-18 08:31:27 +0400";
layers = (
{
layerId = "6A4EEAE7-E2C6-4FA4-83F5-ABDB5FD8E17B";
name = Light;
paths = (
{
closed = 1;
nodes = (
"104 490 LINE SMOOTH",
"90 490 OFFCURVE",
"77 479 OFFCURVE",
"74 465 CURVE SMOOTH",
"74 464 LINE SMOOTH",
"71 450 OFFCURVE",
"79 439 OFFCURVE",
"93 439 CURVE SMOOTH",
"497 439 LINE SMOOTH",
"511 439 OFFCURVE",
"525 450 OFFCURVE",
"528 464 CURVE SMOOTH",
"528 465 LINE SMOOTH",
"531 479 OFFCURVE",
"522 490 OFFCURVE",
"507 490 CURVE SMOOTH"
);
},
{
closed = 1;
nodes = (
"57 265 LINE SMOOTH",
"43 265 OFFCURVE",
"29 254 OFFCURVE",
"26 240 CURVE SMOOTH",
"26 239 LINE SMOOTH",
"23 225 OFFCURVE",
"32 214 OFFCURVE",
"46 214 CURVE SMOOTH",
"450 214 LINE SMOOTH",
"464 214 OFFCURVE",
"477 225 OFFCURVE",
"480 239 CURVE SMOOTH",
"480 240 LINE SMOOTH",
"483 254 OFFCURVE",
"475 265 OFFCURVE",
"460 265 CURVE SMOOTH"
);
}
);
width = 554;
}
);
unicode = 003D;
},
{
glyphname = greater;
lastChange = "2013-12-18 08:31:27 +0400";
layers = (
{
layerId = "6A4EEAE7-E2C6-4FA4-83F5-ABDB5FD8E17B";
name = Light;
paths = (
{
closed = 1;
nodes = (
"114 608 OFFCURVE",
"103 602 OFFCURVE",
"100 586 CURVE SMOOTH",
"97 575 LINE SMOOTH",
"95 564 OFFCURVE",
"98 557 OFFCURVE",
"107 552 CURVE SMOOTH",
"447 356 LINE SMOOTH",
"451 355 OFFCURVE",
"450 351 OFFCURVE",
"446 350 CURVE SMOOTH",
"21 152 LINE SMOOTH",
"10 147 OFFCURVE",
"5 140 OFFCURVE",
"3 129 CURVE SMOOTH",
"0 118 LINE SMOOTH",
"-3 102 OFFCURVE",
"6 96 OFFCURVE",
"21 103 CURVE SMOOTH",
"494 325 LINE SMOOTH",
"505 330 OFFCURVE",
"511 337 OFFCURVE",
"513 348 CURVE SMOOTH",
"515 356 LINE SMOOTH",
"517 367 OFFCURVE",
"515 374 OFFCURVE",
"506 379 CURVE SMOOTH",
"127 601 LINE SMOOTH"
);
}
);
width = 564;
}
);
unicode = 003E;
},
{
glyphname = greaterequal;
lastChange = "2013-12-18 08:31:27 +0400";
layers = (
{
layerId = "6A4EEAE7-E2C6-4FA4-83F5-ABDB5FD8E17B";
name = Light;
paths = (
{
closed = 1;
nodes = (
"125 608 OFFCURVE",
"114 602 OFFCURVE",
"110 586 CURVE SMOOTH",
"108 575 LINE SMOOTH",
"106 564 OFFCURVE",
"108 557 OFFCURVE",
"117 552 CURVE SMOOTH",
"457 356 LINE SMOOTH",
"461 355 OFFCURVE",
"460 351 OFFCURVE",
"456 350 CURVE SMOOTH",
"32 152 LINE SMOOTH",
"21 147 OFFCURVE",
"16 140 OFFCURVE",
"13 129 CURVE SMOOTH",
"11 118 LINE SMOOTH",
"8 102 OFFCURVE",
"16 96 OFFCURVE",
"32 103 CURVE SMOOTH",
"505 325 LINE SMOOTH",
"516 330 OFFCURVE",
"521 337 OFFCURVE",
"524 348 CURVE SMOOTH",
"525 356 LINE SMOOTH",
"528 367 OFFCURVE",
"525 374 OFFCURVE",
"516 379 CURVE SMOOTH",
"138 601 LINE SMOOTH"
);
},
{
closed = 1;
nodes = (
"25 51 LINE SMOOTH",
"11 51 OFFCURVE",
"-3 40 OFFCURVE",
"-6 26 CURVE SMOOTH",
"-6 25 LINE SMOOTH",
"-9 11 OFFCURVE",
"0 0 OFFCURVE",
"14 0 CURVE SMOOTH",
"435 0 LINE SMOOTH",
"449 0 OFFCURVE",
"462 11 OFFCURVE",
"465 25 CURVE SMOOTH",
"465 26 LINE SMOOTH",
"468 40 OFFCURVE",
"460 51 OFFCURVE",
"445 51 CURVE SMOOTH"
);
}
);
width = 574;
}
);
unicode = 2265;
},
{
glyphname = increment;
lastChange = "2013-12-18 08:31:27 +0400";
layers = (
{
layerId = "6A4EEAE7-E2C6-4FA4-83F5-ABDB5FD8E17B";
name = Light;
paths = (
{
closed = 1;
nodes = (
"432 692 LINE",
"430 699 OFFCURVE",
"424 704 OFFCURVE",
"416 704 CURVE",
"409 704 OFFCURVE",
"400 699 OFFCURVE",
"394 692 CURVE",
"-42 29 LINE SMOOTH",
"-49 18 OFFCURVE",
"-47 7 OFFCURVE",
"-37 2 CURVE",
"-34 0 OFFCURVE",
"-31 0 OFFCURVE",
"-27 0 CURVE",
"-24 0 LINE",
"556 0 LINE",
"559 0 LINE",
"563 0 OFFCURVE",
"566 0 OFFCURVE",
"571 2 CURVE",
"582 7 OFFCURVE",
"589 18 OFFCURVE",
"586 29 CURVE SMOOTH"
);
},
{
closed = 1;
nodes = (
"397 627 LINE SMOOTH",
"398 631 OFFCURVE",
"402 631 OFFCURVE",
"403 627 CURVE SMOOTH",
"538 46 LINE SMOOTH",
"538 42 OFFCURVE",
"537 40 OFFCURVE",
"533 40 CURVE SMOOTH",
"17 40 LINE SMOOTH",
"13 40 OFFCURVE",
"12 42 OFFCURVE",
"14 46 CURVE SMOOTH"
);
}
);
width = 681.962;
}
);
unicode = 2206;
},
{
glyphname = infinity;
lastChange = "2013-12-18 08:31:27 +0400";
layers = (
{
layerId = "6A4EEAE7-E2C6-4FA4-83F5-ABDB5FD8E17B";
name = Light;
paths = (
{
closed = 1;
nodes = (
"116 339 OFFCURVE",
"180 384 OFFCURVE",
"246 384 CURVE SMOOTH",
"294 384 OFFCURVE",
"329 366 OFFCURVE",
"357 324 CURVE SMOOTH",
"401 257 LINE SMOOTH",
"402 254 OFFCURVE",
"402 252 OFFCURVE",
"399 249 CURVE SMOOTH",
"327 181 LINE",
"280 140 OFFCURVE",
"238 121 OFFCURVE",
"190 121 CURVE SMOOTH",
"124 121 OFFCURVE",
"80 167 OFFCURVE",
"98 252 CURVE SMOOTH"
);
},
{
closed = 1;
nodes = (
"419 218 LINE SMOOTH",
"422 221 OFFCURVE",
"424 221 OFFCURVE",
"427 218 CURVE SMOOTH",
"466 156 LINE SMOOTH",
"497 106 OFFCURVE",
"539 79 OFFCURVE",
"604 79 CURVE SMOOTH",
"703 79 OFFCURVE",
"787 146 OFFCURVE",
"810 252 CURVE SMOOTH",
"833 359 OFFCURVE",
"777 426 OFFCURVE",
"678 426 CURVE SMOOTH",
"613 426 OFFCURVE",
"558 397 OFFCURVE",
"508 350 CURVE SMOOTH",
"441 287 LINE SMOOTH",
"438 285 OFFCURVE",
"436 285 OFFCURVE",
"433 287 CURVE SMOOTH",
"394 350 LINE SMOOTH",
"364 397 OFFCURVE",
"321 426 OFFCURVE",
"256 426 CURVE SMOOTH",
"157 426 OFFCURVE",
"73 359 OFFCURVE",
"50 252 CURVE SMOOTH",
"27 146 OFFCURVE",
"83 79 OFFCURVE",
"182 79 CURVE SMOOTH",
"247 79 OFFCURVE",
"301 106 OFFCURVE",
"352 156 CURVE SMOOTH"
);
},
{
closed = 1;
nodes = (
"744 167 OFFCURVE",
"680 121 OFFCURVE",
"614 121 CURVE SMOOTH",
"566 121 OFFCURVE",
"531 139 OFFCURVE",
"504 181 CURVE SMOOTH",
"459 249 LINE SMOOTH",
"458 252 OFFCURVE",
"458 254 OFFCURVE",
"461 257 CURVE SMOOTH",
"534 324 LINE SMOOTH",
"579 366 OFFCURVE",
"622 384 OFFCURVE",
"670 384 CURVE SMOOTH",
"736 384 OFFCURVE",
"780 339 OFFCURVE",
"762 252 CURVE SMOOTH"
);
}
);
width = 860;
}
);
unicode = 221E;
},
{
glyphname = integral;
lastChange = "2013-12-18 08:31:27 +0400";
layers = (
{
layerId = "6A4EEAE7-E2C6-4FA4-83F5-ABDB5FD8E17B";
name = Light;
paths = (
{
closed = 1;
nodes = (
"146 -31 LINE SMOOTH",
"132 -100 OFFCURVE",
"94 -129 OFFCURVE",
"48 -129 CURVE SMOOTH",
"32 -129 OFFCURVE",
"16 -125 OFFCURVE",
"4 -118 CURVE SMOOTH",
"-9 -112 OFFCURVE",
"-25 -117 OFFCURVE",
"-32 -131 CURVE SMOOTH",
"-34 -136 LINE SMOOTH",
"-38 -145 OFFCURVE",
"-37 -154 OFFCURVE",
"-29 -158 CURVE SMOOTH",
"-11 -167 OFFCURVE",
"12 -173 OFFCURVE",
"37 -173 CURVE SMOOTH",
"107 -173 OFFCURVE",
"176 -133 OFFCURVE",
"197 -34 CURVE SMOOTH",
"323 559 LINE SMOOTH",
"337 628 OFFCURVE",
"375 656 OFFCURVE",
"421 656 CURVE SMOOTH",
"436 656 OFFCURVE",
"452 652 OFFCURVE",
"465 645 CURVE SMOOTH",
"478 639 OFFCURVE",
"494 644 OFFCURVE",
"501 658 CURVE SMOOTH",
"503 663 LINE SMOOTH",
"507 672 OFFCURVE",
"506 681 OFFCURVE",
"499 685 CURVE SMOOTH",
"480 695 OFFCURVE",
"457 700 OFFCURVE",
"432 700 CURVE SMOOTH",
"362 700 OFFCURVE",
"293 661 OFFCURVE",
"272 562 CURVE SMOOTH"
);
}
);
width = 469;
}
);
unicode = 222B;
},
{
glyphname = less;
lastChange = "2013-12-18 08:31:27 +0400";
layers = (
{
layerId = "6A4EEAE7-E2C6-4FA4-83F5-ABDB5FD8E17B";
name = Light;
paths = (
{
closed = 1;
nodes = (
"70 379 LINE SMOOTH",
"59 374 OFFCURVE",
"53 367 OFFCURVE",
"51 356 CURVE SMOOTH",
"49 348 LINE SMOOTH",
"47 337 OFFCURVE",
"49 330 OFFCURVE",
"58 325 CURVE SMOOTH",
"437 103 LINE SMOOTH",
"450 96 OFFCURVE",
"461 102 OFFCURVE",
"464 118 CURVE SMOOTH",
"467 129 LINE SMOOTH",
"469 140 OFFCURVE",
"466 147 OFFCURVE",
"457 152 CURVE SMOOTH",
"118 350 LINE SMOOTH",
"114 351 OFFCURVE",
"115 355 OFFCURVE",
"119 356 CURVE SMOOTH",
"543 552 LINE SMOOTH",
"554 557 OFFCURVE",
"559 564 OFFCURVE",
"561 575 CURVE SMOOTH",
"564 586 LINE SMOOTH",
"567 602 OFFCURVE",
"558 608 OFFCURVE",
"543 601 CURVE SMOOTH"
);
}
);
width = 564;
}
);
unicode = 003C;
},
{
glyphname = lessequal;
lastChange = "2013-12-18 08:31:27 +0400";
layers = (
{
layerId = "6A4EEAE7-E2C6-4FA4-83F5-ABDB5FD8E17B";
name = Light;
paths = (
{
closed = 1;
nodes = (
"125 608 OFFCURVE",
"114 602 OFFCURVE",
"110 586 CURVE SMOOTH",
"108 575 LINE SMOOTH",
"106 564 OFFCURVE",
"108 557 OFFCURVE",
"117 552 CURVE SMOOTH",
"457 356 LINE SMOOTH",
"461 355 OFFCURVE",
"460 351 OFFCURVE",
"456 350 CURVE SMOOTH",
"32 152 LINE SMOOTH",
"21 147 OFFCURVE",
"16 140 OFFCURVE",
"13 129 CURVE SMOOTH",
"11 118 LINE SMOOTH",
"8 102 OFFCURVE",
"16 96 OFFCURVE",
"32 103 CURVE SMOOTH",
"505 325 LINE SMOOTH",
"516 330 OFFCURVE",
"521 337 OFFCURVE",
"524 348 CURVE SMOOTH",
"525 356 LINE SMOOTH",
"528 367 OFFCURVE",
"525 374 OFFCURVE",
"516 379 CURVE SMOOTH",
"138 601 LINE SMOOTH"
);
},
{
closed = 1;
nodes = (
"25 51 LINE SMOOTH",
"11 51 OFFCURVE",
"-3 40 OFFCURVE",
"-6 26 CURVE SMOOTH",
"-6 25 LINE SMOOTH",
"-9 11 OFFCURVE",
"0 0 OFFCURVE",
"14 0 CURVE SMOOTH",
"435 0 LINE SMOOTH",
"449 0 OFFCURVE",
"462 11 OFFCURVE",
"465 25 CURVE SMOOTH",
"465 26 LINE SMOOTH",
"468 40 OFFCURVE",
"460 51 OFFCURVE",
"445 51 CURVE SMOOTH"
);
}
);
width = 574;
}
);
unicode = 2264;
},
{
glyphname = logicalnot;
lastChange = "2013-12-18 08:31:27 +0400";
layers = (
{
layerId = "6A4EEAE7-E2C6-4FA4-83F5-ABDB5FD8E17B";
name = Light;
paths = (
{
closed = 1;
nodes = (
"595 352 LINE SMOOTH",
"598 352 OFFCURVE",
"600 350 OFFCURVE",
"599 347 CURVE SMOOTH",
"559 160 LINE SMOOTH",
"556 146 OFFCURVE",
"565 135 OFFCURVE",
"578 135 CURVE SMOOTH",
"592 135 OFFCURVE",
"603 146 OFFCURVE",
"607 161 CURVE SMOOTH",
"652 373 LINE SMOOTH",
"655 387 OFFCURVE",
"646 398 OFFCURVE",
"632 398 CURVE SMOOTH",
"103 398 LINE SMOOTH",
"89 398 OFFCURVE",
"76 387 OFFCURVE",
"73 375 CURVE SMOOTH",
"70 361 OFFCURVE",
"79 352 OFFCURVE",
"93 352 CURVE SMOOTH"
);
}
);
width = 679;
}
);
unicode = 00AC;
},
{
glyphname = micro;
lastChange = "2013-12-18 08:31:27 +0400";
layers = (
{
layerId = "6A4EEAE7-E2C6-4FA4-83F5-ABDB5FD8E17B";
name = Light;
paths = (
{
closed = 1;
nodes = (
"506 515 OFFCURVE",
"495 506 OFFCURVE",
"492 495 CURVE SMOOTH",
"426 183 LINE SMOOTH",
"408 99 OFFCURVE",
"305 30 OFFCURVE",
"221 30 CURVE SMOOTH",
"126 30 OFFCURVE",
"102 99 OFFCURVE",
"120 183 CURVE SMOOTH",
"186 495 LINE SMOOTH",
"189 506 OFFCURVE",
"183 515 OFFCURVE",
"171 515 CURVE SMOOTH",
"160 515 OFFCURVE",
"149 506 OFFCURVE",
"146 495 CURVE SMOOTH",
"14 -130 LINE SMOOTH",
"11 -141 OFFCURVE",
"17 -150 OFFCURVE",
"29 -150 CURVE SMOOTH",
"41 -150 OFFCURVE",
"51 -141 OFFCURVE",
"54 -130 CURVE SMOOTH",
"90 41 LINE SMOOTH",
"91 45 OFFCURVE",
"94 46 OFFCURVE",
"96 43 CURVE SMOOTH",
"118 10 OFFCURVE",
"156 -10 OFFCURVE",
"212 -10 CURVE SMOOTH",
"291 -10 OFFCURVE",
"371 37 OFFCURVE",
"397 73 CURVE",
"400 78 OFFCURVE",
"403 75 OFFCURVE",
"402 71 CURVE SMOOTH",
"391 20 LINE SMOOTH",
"389 9 OFFCURVE",
"395 0 OFFCURVE",
"407 0 CURVE SMOOTH",
"418 0 OFFCURVE",
"429 9 OFFCURVE",
"431 20 CURVE SMOOTH",
"532 495 LINE SMOOTH",
"535 506 OFFCURVE",
"529 515 OFFCURVE",
"517 515 CURVE SMOOTH"
);
}
);
width = 546;
}
);
unicode = 00B5;
},
{
glyphname = minus;
lastChange = "2013-12-18 08:31:27 +0400";
layers = (
{
layerId = "6A4EEAE7-E2C6-4FA4-83F5-ABDB5FD8E17B";
name = Light;
paths = (
{
closed = 1;
nodes = (
"80 376 LINE SMOOTH",
"66 376 OFFCURVE",
"53 366 OFFCURVE",
"50 353 CURVE SMOOTH",
"47 339 OFFCURVE",
"56 328 OFFCURVE",
"71 328 CURVE SMOOTH",
"504 328 LINE SMOOTH",
"518 328 OFFCURVE",
"531 338 OFFCURVE",
"534 351 CURVE SMOOTH",
"537 365 OFFCURVE",
"528 376 OFFCURVE",
"514 376 CURVE SMOOTH"
);
}
);
width = 584;
}
);
unicode = 2212;
},
